<?xml version="1.0" encoding="utf-8"?>
<!-- Generator: Adobe Illustrator 20.1.0, SVG Export Plug-In . SVG Version: 6.00 Build 0)  -->
<svg version="1.1" id="Layer_2" xmlns="http://www.w3.org/2000/svg" xmlns:xlink="http://www.w3.org/1999/xlink" x="0px" y="0px"
	 viewBox="0 0 410.3 409.5" style="enable-background:new 0 0 410.3 409.5;" xml:space="preserve">
<style type="text/css">
	.st0{fill:#FFFFFF;}
</style>
<path class="st0" d="M409.3,328.6c0,0-2.2-4-4,2.2l-2.6,6.2l-7.5-0.4l6.6-7.5c0,0-0.4-4-4.8-1.8l-3.5-18.1c0,0-0.9-2.2-2.6-1.3
	c0,0-0.4-3.1-3.5,0.4l-7.9,8.4l-7.5,2.2c0,0-7-1.8-10.1,0.4c0,0-4,0.4-7.9-1.8s-36.1-41.8-41.8-47.1c0,0-10.1-42.3-9.3-56.4
	c0.9-14.1,4.4-64.3-18.9-73.6s-30.8-13.7-30.8-13.7s-18.1-10.1-19.8-16.7V98.7c0,0,6.2-7,6.6-20.3c0,0,6.2-0.9,8.4-11.4
	c0,0,7.5-17.6-1.3-12.8l-2.2-2.2c0,0,2.6-18.1,1.3-24.7C244.6,20.7,241-0.4,214.2,0s-38.8,18.1-35.2,43.2v9.2c0,0-6.2-5.3-4.4,4
	l4.8,18.5c0,0,2.6,7,4.4,2.2l1.3,13.2c0,0,0.4,4,4,7.5c0,0,2.6,12.3-3.1,17.2c-5.7,4.8-21.1,13.7-21.1,13.7l-25.5,11
	c0,0-24.2,3.5-19.8,62.1l-4.8,58.6l-4,9.7c0,0-44.9,54.6-55.1,59.9l-9.7-1.3l-11-0.4l-8.8-2.6l-7.5-6.2c0,0-1.8-1.8-2.6,0.4
	c0,0-4.4,0.4-4,5.7l0.4,16.7l1.3,4.4l-3.5,0.4l-3.5-7l-1.3-3.5c0,0-2.6-2.6-4.4-0.9s0,4,0,4l2.6,8.4c0,0-4.4,0.9-3.5,3.5
	c0.9,2.6,3.5,1.8,5.3,2.2c1.8,0.4,25.1,7,25.1,7l-8.4,8.4l-6.2,3.1c0,0-3.1,4,0.9,4.4l10.6-3.5l9.3-7l12.8-8.8c0,0-11,9.7-6.2,23.8
	s15,18.5,19.4,20.7c4.4,2.2,6.2,8.8,28.6,6.6c0,0,70,4.4,122.4-12.3l16.7-1.3c0,0,60.8,24.7,96.9,10.6l6.6-4.8l7.5-1.3l13.7-10.1
	c0,0,23.8-6.2,18.5-33.5l12.8,6.6l1.8-3.1l-10.1-11c0,0,7,2.6,10.1-2.2l18.1-0.9C406.2,344.9,412.8,336.5,409.3,328.6z M23.5,344.4
	c-4.4-0.4-4.8-13.2-4.8-13.2C29.6,331.2,23.5,344.4,23.5,344.4z M144.6,321.1c0,0-23.3,4-27.7,7s-17.2-2.2-17.2-2.2
	s34.8-30.4,40.5-37c5.7-6.6,12.8-46.7,12.8-46.7l2.6,32.2L144.6,321.1z M281.6,321.5l-9.3-62.1l7.9,27.3
	c7.5,22.5,64.7,49.8,64.7,49.8C329.6,336.1,281.6,321.5,281.6,321.5z M388.6,318l0.4,11.5C379.8,325.9,388.6,318,388.6,318z"/>
</svg>
