<?xml version="1.0" standalone="no"?>
<!DOCTYPE svg PUBLIC "-//W3C//DTD SVG 1.1//EN" "http://www.w3.org/Graphics/SVG/1.1/DTD/svg11.dtd" >
<svg xmlns="http://www.w3.org/2000/svg">
<metadata></metadata>
<defs>
<font id="bw_surco_demomedium" horiz-adv-x="514" >
<font-face units-per-em="2048" ascent="1577" descent="-471" />
<missing-glyph horiz-adv-x="468" />
<glyph horiz-adv-x="0" />
<glyph horiz-adv-x="682" />
<glyph unicode="&#xd;" horiz-adv-x="468" />
<glyph unicode=" "  horiz-adv-x="468" />
<glyph unicode="&#x09;" horiz-adv-x="468" />
<glyph unicode="&#xa0;" horiz-adv-x="468" />
<glyph unicode="!" horiz-adv-x="561" d="M133 121q0 66 39.5 103.5t108.5 37.5t108 -37.5t39 -103.5t-39 -103.5t-108 -37.5t-108.5 37.5t-39.5 103.5zM162 1475l10 -1035h219l10 1035h-239z" />
<glyph unicode="&#x22;" horiz-adv-x="743" d="M104 1577h224l-29 -430h-166zM412 1577h223l-29 -430h-166z" />
<glyph unicode="#" horiz-adv-x="1392" d="M84 299l20 176h191l35 318h-191l21 176h190l31 280h225l-31 -280h314l29 280h225l-31 -280h195l-21 -176h-192l-35 -318h192l-20 -176h-191l-32 -299h-226l33 299h-315l-33 -299h-225l32 299h-190zM516 471h320l34 326h-317z" />
<glyph unicode="$" horiz-adv-x="1024" d="M82 90l59 141q138 -88 340 -92v406q-97 35 -161.5 68t-112 77t-69 100t-21.5 130q0 153 96.5 244.5t267.5 103.5v207h88v-205q187 -10 328 -101l-82 -127q-118 59 -246 68v-381l13 -4q63 -21 108.5 -40.5t97.5 -52t84 -70t54 -93.5t22 -123q0 -158 -99.5 -253.5 t-279.5 -110.5v-207h-88v205q-261 7 -399 110zM324 946q0 -70 40 -114.5t117 -75.5v354q-74 -11 -115.5 -53t-41.5 -111zM569 145q83 12 127.5 57.5t44.5 119.5q0 69 -42 112.5t-130 81.5v-371z" />
<glyph unicode="%" horiz-adv-x="1431" d="M86 946q0 152 73 238t203 86t203.5 -86t73.5 -238t-73 -236.5t-204 -84.5t-203.5 84.5t-72.5 236.5zM223 61l854 1209l127 -82l-854 -1208zM248 946q0 -91 30 -141.5t84 -50.5t84.5 50.5t30.5 141.5t-30.5 142t-84.5 51t-84 -51t-30 -142zM791 301q0 152 73 238t203 86 t203 -86t73 -238t-72.5 -236.5t-203.5 -84.5t-203.5 84.5t-72.5 236.5zM952 301q0 -91 30.5 -141.5t84.5 -50.5t84.5 50.5t30.5 141.5t-30.5 142t-84.5 51t-84.5 -51t-30.5 -142z" />
<glyph unicode="&#x26;" horiz-adv-x="1400" d="M90 315q0 262 232 521q-93 161 -93 288q0 170 122 270.5t337 100.5q251 0 459 -172l-88 -162q-158 137 -342 137q-113 0 -175.5 -49.5t-62.5 -140.5q0 -218 467 -674q92 168 144 440l188 -45q-64 -319 -199 -524q114 -106 287 -256q-20 -28 -65.5 -48.5t-86.5 -20.5 q-114 0 -188 69q-66 62 -94 90q-191 -159 -455 -159q-183 0 -285 88.5t-102 246.5zM319 332q0 -80 51.5 -126t145.5 -46q170 0 291 100q-250 247 -365 397q-123 -156 -123 -325z" />
<glyph unicode="'" horiz-adv-x="434" d="M104 1577h224l-29 -430h-166z" />
<glyph unicode="(" horiz-adv-x="632" d="M98 553q0 -585 277 -1045l192 82q-113 213 -166 465t-53 502q0 248 52.5 496.5t166.5 462.5l-192 81q-277 -460 -277 -1044z" />
<glyph unicode=")" horiz-adv-x="632" d="M66 -410l192 -82q277 460 277 1045q0 584 -277 1044l-192 -81q114 -214 166.5 -462.5t52.5 -496.5q0 -250 -53 -502t-166 -465z" />
<glyph unicode="*" horiz-adv-x="786" d="M94 1300l43 142l199 -82l-14 217h147l-14 -215l196 80l47 -139l-206 -52l135 -161l-119 -89l-113 181l-110 -181l-121 86l137 162z" />
<glyph unicode="+" horiz-adv-x="997" d="M88 428v176h293v322h231v-322h295v-176h-295v-322h-229v322h-295z" />
<glyph unicode="," d="M111 113q0 70 39 109.5t108 39.5t108.5 -54t39.5 -149q0 -245 -236 -325l-37 65q77 30 115 75.5t49 115.5q-38 -10 -74 -10q-54 0 -83 35t-29 98z" />
<glyph unicode="-" horiz-adv-x="854" d="M129 424v192h594v-192h-594z" />
<glyph unicode="." d="M111 121q0 66 39 103.5t108 37.5t108.5 -37.5t39.5 -103.5t-39.5 -103.5t-108.5 -37.5t-108 37.5t-39 103.5z" />
<glyph unicode="/" horiz-adv-x="811" d="M63 -197l523 1794l162 -49l-523 -1794z" />
<glyph unicode="0" horiz-adv-x="1255" d="M102 625q0 305 139 475t388 170t387.5 -170t138.5 -475t-138.5 -475t-387.5 -170t-388 170t-139 475zM338 625q0 -216 77 -337.5t214 -121.5t214 121.5t77 337.5t-77 337t-214 121t-214 -121t-77 -337z" />
<glyph unicode="1" horiz-adv-x="745" d="M27 1053l368 196h189v-1249h-232v995l-233 -121z" />
<glyph unicode="2" horiz-adv-x="1122" d="M80 0v121q0 59 22.5 114t55 96t86.5 86t98 75t108 71q9 5 13 8q76 49 118 78.5t92.5 74t73.5 89t23 92.5q0 84 -58 131t-165 47q-184 0 -342 -137l-88 152q208 172 461 172q201 0 314.5 -95t113.5 -264q0 -45 -14 -88t-33 -77t-56 -72.5t-65 -63.5t-79.5 -60t-79.5 -52.5 t-83 -51.5q-52 -32 -83.5 -52t-72 -50t-63.5 -54t-41.5 -54t-22.5 -60h719v-176h-952z" />
<glyph unicode="3" horiz-adv-x="1118" d="M51 -111l88 158q80 -56 159 -81t181 -25q152 0 237 70.5t85 195.5q0 131 -133 214t-430 144l444 508h-543v176h832v-141l-406 -446q471 -133 471 -465q0 -209 -141.5 -326t-394.5 -117q-252 0 -449 135z" />
<glyph unicode="4" horiz-adv-x="1173" d="M45 0v150l553 1120l207 -58l-520 -1036h430v320l225 86v-406h197v-176h-197v-225h-231v225h-664z" />
<glyph unicode="5" horiz-adv-x="1159" d="M49 -88l98 156q95 -70 185 -98.5t194 -28.5q151 0 235.5 74.5t84.5 209.5q0 129 -79 205t-218 80l-402 14l82 725h756v-176h-532l-52 -377l199 -10q227 -12 354 -133t127 -324q0 -226 -143 -350.5t-401 -124.5q-287 0 -488 158z" />
<glyph unicode="6" horiz-adv-x="1202" d="M100 717q0 367 158.5 572.5t439.5 205.5q210 0 387 -111l-69 -172q-123 97 -293 97q-158 0 -258.5 -116t-126.5 -327q135 66 297 66q224 0 349.5 -121.5t125.5 -337.5q0 -232 -132 -362.5t-368 -130.5q-241 0 -375.5 194t-134.5 543zM330 698q3 -251 79.5 -391.5 t208.5 -140.5q120 0 188 80t68 221q0 140 -74 219.5t-206 79.5q-140 0 -264 -68z" />
<glyph unicode="7" horiz-adv-x="1062" d="M57 1073v176h955v-143l-615 -1391l-215 70l578 1288h-703z" />
<glyph unicode="8" horiz-adv-x="1226" d="M96 403q0 130 59.5 224t172.5 145q-183 101 -183 328q0 187 123.5 291t345.5 104t345.5 -104t123.5 -291q0 -227 -182 -328q113 -51 172.5 -145t59.5 -224q0 -199 -137 -311t-382 -112q-244 0 -381 111.5t-137 311.5zM330 424q0 -122 74.5 -190t207.5 -68t208 68t75 190 q0 123 -75 192.5t-208 69.5t-207.5 -69.5t-74.5 -192.5zM379 1079q0 -108 62 -168.5t173 -60.5t173.5 60.5t62.5 168.5t-62.5 169t-173.5 61q-110 0 -172.5 -60.5t-62.5 -169.5z" />
<glyph unicode="9" horiz-adv-x="1200" d="M90 776q0 226 133 360t367 134q241 0 375.5 -194.5t134.5 -543.5q0 -367 -158.5 -572.5t-439.5 -205.5q-210 0 -387 111l69 172q122 -96 293 -96q158 0 258.5 115.5t126.5 326.5q-135 -66 -297 -66q-224 0 -349.5 121.5t-125.5 337.5zM326 782q0 -140 74 -219.5 t206 -79.5q136 0 264 70q-3 250 -79.5 390t-208.5 140q-120 0 -188 -80t-68 -221z" />
<glyph unicode=":" horiz-adv-x="538" d="M123 121q0 66 39 103.5t108 37.5t108.5 -37.5t39.5 -103.5t-39.5 -103.5t-108.5 -37.5t-108 37.5t-39 103.5zM123 903q0 66 39 103.5t108 37.5t108.5 -37.5t39.5 -103.5t-39.5 -103.5t-108.5 -37.5t-108 37.5t-39 103.5z" />
<glyph unicode=";" horiz-adv-x="540" d="M123 113q0 70 39 109.5t108 39.5t108.5 -54t39.5 -149q0 -245 -236 -325l-37 65q77 30 115 75.5t49 115.5q-38 -10 -73 -10q-54 0 -83.5 35t-29.5 98zM125 903q0 66 39 103.5t108 37.5t108.5 -37.5t39.5 -103.5t-39.5 -103.5t-108.5 -37.5t-108 37.5t-39 103.5z" />
<glyph unicode="&#x3c;" horiz-adv-x="1030" d="M80 434v166l819 356v-186l-623 -252l623 -252v-186z" />
<glyph unicode="=" horiz-adv-x="1089" d="M135 264v176h819v-176h-819zM135 592v176h819v-176h-819z" />
<glyph unicode="&#x3e;" horiz-adv-x="1030" d="M131 80v186l623 252l-623 252v186l819 -356v-166z" />
<glyph unicode="?" horiz-adv-x="985" d="M55 1323q90 84 200 128t220 44q204 0 320 -101.5t116 -275.5q0 -83 -37.5 -162t-72 -118.5t-105.5 -108.5l-14 -14q-41 -40 -63 -64t-49.5 -60.5t-39.5 -73t-12 -77.5h-219q0 57 14 110t31 89.5t51 79t55.5 64.5t61.5 61q73 70 111.5 130t38.5 134q0 90 -57 140t-161 50 q-161 0 -301 -137zM262 121q0 66 39.5 103.5t108.5 37.5t108 -37.5t39 -103.5t-39 -103.5t-108 -37.5t-108.5 37.5t-39.5 103.5z" />
<glyph unicode="@" horiz-adv-x="2187" d="M94 553q0 492 263.5 768t732.5 276q470 0 733.5 -259.5t263.5 -723.5q0 -235 -112.5 -367t-311.5 -132q-136 0 -232 56.5t-143 162.5q-39 -104 -129.5 -161.5t-206.5 -57.5q-152 0 -236.5 110t-84.5 307q0 217 117.5 339t326.5 122q169 0 395 -28v-412q0 -120 51 -188 t142 -68t141.5 83t50.5 234q0 378 -202 589.5t-563 211.5q-359 0 -561.5 -228t-202.5 -634t202.5 -634t561.5 -228q134 0 271 35t249 98l82 -168q-120 -68 -284 -108t-318 -40q-469 0 -732.5 276t-263.5 769zM856 530q0 -115 43.5 -179t120.5 -64q106 0 166.5 75t60.5 207 v238q-110 4 -151 4q-109 0 -174.5 -74.5t-65.5 -206.5z" />
<glyph unicode="A" horiz-adv-x="1351" d="M16 0l529 1464q67 31 131 31q120 0 170 -135l489 -1360h-260l-117 348h-587l-117 -348h-238zM434 539h461l-231 688z" />
<glyph unicode="B" horiz-adv-x="1294" d="M174 0v1475q257 20 418 20q261 0 407 -104.5t146 -290.5q0 -112 -55 -194t-160 -130q134 -47 205 -142t71 -228q0 -201 -151.5 -313.5t-421.5 -112.5q-209 0 -459 20zM416 176q117 -6 219 -6q152 0 236.5 66.5t84.5 185.5t-84.5 184.5t-236.5 65.5h-219v-496zM416 862 h178q142 0 221.5 58.5t79.5 162.5t-79.5 163t-221.5 59q-13 0 -178 -5v-438z" />
<glyph unicode="C" horiz-adv-x="1282" d="M100 737q0 357 164.5 557.5t456.5 200.5q320 0 477 -260l-223 -92q-88 155 -254 155q-175 0 -273 -148.5t-98 -412.5t109 -412.5t303 -148.5q106 0 205 33t174 94l98 -170q-88 -72 -219.5 -112.5t-278.5 -40.5q-302 0 -471.5 199.5t-169.5 557.5z" />
<glyph unicode="D" horiz-adv-x="1425" d="M174 0v1475q205 20 395 20q358 0 559 -200t201 -558q0 -357 -201 -557t-559 -200q-195 0 -395 20zM416 176q70 -6 151 -6q241 0 375.5 150t134.5 417t-134.5 417.5t-375.5 150.5q-45 0 -151 -9v-1120z" />
<glyph unicode="E" horiz-adv-x="1165" d="M174 0v1475h870v-191h-628v-430h557v-190h-557v-474h651v-190h-893z" />
<glyph unicode="F" horiz-adv-x="1069" d="M174 0v1475h830v-191h-588v-491h481v-191h-481v-602h-242z" />
<glyph unicode="G" horiz-adv-x="1413" d="M102 737q0 357 170 557.5t471 200.5q321 0 478 -260l-224 -92q-91 155 -260 155q-181 0 -283 -148.5t-102 -412.5t103.5 -412.5t287.5 -148.5q64 0 119 17t99.5 51t70 93t25.5 136v160h-322v190h563v-813q-56 -30 -108 -30q-57 0 -92 38.5t-35 104.5v22 q-118 -165 -381 -165q-274 0 -427 199.5t-153 557.5z" />
<glyph unicode="H" horiz-adv-x="1521" d="M174 0v1464q57 31 109 31q60 0 96.5 -38.5t36.5 -104.5v-508h692v620q57 31 109 31q60 0 96.5 -38.5t36.5 -104.5v-1352h-242v653h-692v-653h-242z" />
<glyph unicode="I" horiz-adv-x="585" d="M174 0v1464q57 31 109 31q60 0 96.5 -38.5t36.5 -104.5v-1352h-242z" />
<glyph unicode="J" horiz-adv-x="802" d="M35 29q113 -49 256 -49q164 0 257 94.5t93 263.5v1014q0 66 -36.5 104.5t-96.5 38.5q-52 0 -109 -31v-1071q0 -103 -42.5 -160t-125.5 -57q-92 0 -165 37z" />
<glyph unicode="K" horiz-adv-x="1308" d="M174 0v1464q57 31 109 31q60 0 96.5 -38.5t36.5 -104.5v-1352h-242zM426 745l563 750l230 -41l-519 -690l619 -744q-46 -40 -129 -40q-77 0 -122.5 22.5t-82.5 71.5z" />
<glyph unicode="L" horiz-adv-x="1036" d="M174 0v1464q57 31 109 31q60 0 96.5 -38.5t36.5 -104.5v-1155h577v-197h-819z" />
<glyph unicode="M" horiz-adv-x="1871" d="M100 0l164 1464q64 31 121 31q142 0 180 -111l387 -1140l400 1218q54 33 112 33q69 0 104 -32.5t44 -110.5l164 -1352h-246l-113 1106l-375 -1106h-229l-385 1112l-104 -1112h-224z" />
<glyph unicode="N" horiz-adv-x="1523" d="M174 0v1464q43 31 96 31q45 0 80.5 -23t71.5 -73l706 -977l-10 1053h232v-1475h-189l-766 1055l11 -1055h-232z" />
<glyph unicode="O" horiz-adv-x="1566" d="M100 737q0 358 180.5 558t503.5 200t503.5 -200t180.5 -558t-180.5 -557.5t-503.5 -199.5t-503.5 199.5t-180.5 557.5zM348 737q0 -264 115 -412.5t319 -148.5t319.5 148.5t115.5 412.5t-115.5 412.5t-319.5 148.5t-319 -148.5t-115 -412.5z" />
<glyph unicode="P" horiz-adv-x="1263" d="M174 0v1475q250 20 459 20q270 0 421.5 -121t151.5 -338q0 -221 -152 -345t-423 -124q-104 0 -215 6v-573h-242zM416 764q108 -6 215 -6q155 0 240 73.5t85 204.5q0 126 -85 197.5t-238 71.5q-81 0 -217 -7v-534z" />
<glyph unicode="Q" horiz-adv-x="1566" d="M100 737q0 358 180.5 558t503.5 200t503.5 -200t180.5 -558q0 -316 -141.5 -510t-400.5 -237l28 -66q35 -81 115 -128t188 -60l-106 -166q-153 23 -263 102.5t-169 206.5l-49 107q-271 35 -420.5 231t-149.5 520zM348 737q0 -264 115 -412.5t319 -148.5t319.5 148.5 t115.5 412.5t-115.5 412.5t-319.5 148.5t-319 -148.5t-115 -412.5z" />
<glyph unicode="R" horiz-adv-x="1337" d="M174 0v1475q238 20 438 20q280 0 437 -112.5t157 -313.5q0 -125 -65 -217t-187 -143q227 -99 252 -361l21 -209q5 -63 30 -129q-71 -30 -139 -30q-59 0 -93 38t-40 105l-20 213q-12 131 -85 201.5t-206 70.5h-258v-608h-242zM416 799h194q167 0 256.5 66.5t89.5 187.5 q0 119 -89 185.5t-255 66.5q-21 0 -196 -5v-501z" />
<glyph unicode="S" horiz-adv-x="1161" d="M76 123l78 178q73 -59 179.5 -92t229.5 -33t191.5 53t68.5 148q0 32 -9 60.5t-21.5 49t-37 41t-44 33.5t-56 29.5t-59 25.5t-64.5 25q-160 60 -230 105q-167 107 -180 303q-1 18 -1 36q0 196 124.5 303t348.5 107q243 0 442 -137l-102 -172q-72 52 -161.5 82t-178.5 30 q-107 0 -167 -47.5t-60 -132.5q0 -34 9.5 -62t32 -52t43.5 -40.5t61 -35.5t66 -30t76 -30q54 -20 85.5 -32.5t81 -36.5t79.5 -46t65.5 -56.5t55.5 -72.5t33.5 -90t13.5 -112q0 -210 -135 -326t-379 -116q-139 0 -263.5 36.5t-215.5 106.5z" />
<glyph unicode="T" horiz-adv-x="1116" d="M45 1284v191h1024v-191h-391v-1284h-242v1284h-391z" />
<glyph unicode="U" horiz-adv-x="1454" d="M160 543v921q57 31 108 31q60 0 96.5 -38.5t36.5 -104.5v-793q0 -181 86 -282t240 -101q160 0 249 101t89 282v905q57 31 106 31q57 0 91 -38.5t34 -104.5v-809q0 -266 -150.5 -414.5t-418.5 -148.5q-267 0 -417 149t-150 414z" />
<glyph unicode="V" horiz-adv-x="1366" d="M31 1454q48 41 125 41q61 0 99 -25t64 -98l306 -885l80 -260l77 267l330 1001l223 -41l-522 -1454h-256z" />
<glyph unicode="W" horiz-adv-x="2050" d="M33 1454q48 41 127 41q63 0 101 -24.5t58 -98.5l254 -926l50 -221l41 236l256 991q46 43 124 43q56 0 100.5 -35.5t57.5 -97.5l230 -928l38 -213l48 228l268 1046l225 -41l-424 -1454h-264l-254 938l-47 231l-45 -229l-246 -940h-264z" />
<glyph unicode="X" horiz-adv-x="1292" d="M12 0l490 754l-449 700q48 41 129 41q71 0 116 -21.5t77 -72.5l282 -459l342 553l238 -41l-449 -700l486 -734q-46 -40 -123 -40q-83 0 -127 20t-78 74l-317 493l-363 -567h-254z" />
<glyph unicode="Y" horiz-adv-x="1277" d="M31 1454q48 41 129 41q69 0 110.5 -20t71.5 -74l238 -434l82 -181l77 189l279 520l227 -41l-485 -860v-594h-242v594z" />
<glyph unicode="Z" horiz-adv-x="1179" d="M55 0v156l643 983l103 145h-697v191h975q29 -47 29 -91q0 -29 -16 -60.5t-56 -88.5l-579 -889l-115 -156h760v-190h-1047z" />
<glyph unicode="[" horiz-adv-x="675" d="M164 -471v2048h442v-191h-200v-1667h200v-190h-442z" />
<glyph unicode="\" horiz-adv-x="811" d="M63 1548l162 49l523 -1794l-162 -49z" />
<glyph unicode="]" horiz-adv-x="675" d="M70 -281h200v1667h-200v191h442v-2048h-442v190z" />
<glyph unicode="^" horiz-adv-x="935" d="M82 723l295 752h184l295 -752h-203l-184 534l-184 -534h-203z" />
<glyph unicode="_" horiz-adv-x="1214" d="M96 -92h1024v-133h-1024v133z" />
<glyph unicode="`" horiz-adv-x="491" d="M2 1380l119 195l350 -264l-65 -117z" />
<glyph unicode="a" horiz-adv-x="1073" d="M57 291q0 155 122 241t343 86q98 0 189 -6v11q0 119 -51.5 181t-163.5 62q-154 0 -279 -84l-92 148q177 114 410 114q192 0 299.5 -99t107.5 -277v-658q-65 -30 -119 -30q-49 0 -77.5 38.5t-28.5 104.5v41q-61 -92 -149 -138t-189 -46q-151 0 -236.5 82.5t-85.5 228.5z M279 309q0 -72 41 -113.5t118 -41.5q71 0 131 33t100.5 106t41.5 176q-94 6 -183 6q-118 0 -183.5 -44t-65.5 -122z" />
<glyph unicode="b" horiz-adv-x="1212" d="M141 0v1567q65 30 119 30q53 0 83 -32.5t30 -89.5v-605q62 86 154 130t196 44q187 0 293 -135.5t106 -376.5q0 -261 -144.5 -406.5t-402.5 -145.5q-206 0 -434 20zM373 160q136 -4 184 -4q154 0 242 99t88 277q0 155 -63 240.5t-181 85.5q-112 0 -191 -78.5t-79 -228.5 v-391z" />
<glyph unicode="c" horiz-adv-x="1030" d="M90 514q0 247 133.5 388.5t351.5 141.5q52 0 102.5 -12t103 -38.5t95 -78t66.5 -122.5l-174 -70q-58 135 -182 135q-123 0 -191.5 -90.5t-68.5 -253.5q0 -164 75 -256t207 -92q78 0 157 26t136 72l76 -168q-151 -116 -385 -116q-236 0 -369 141t-133 393z" />
<glyph unicode="d" horiz-adv-x="1212" d="M88 492q0 261 144.5 406.5t402.5 145.5q89 0 203 -6v529q65 30 118 30t83 -32.5t30 -89.5v-1465q-65 -30 -119 -30q-49 0 -77.5 38.5t-28.5 104.5v39q-62 -90 -156.5 -136t-200.5 -46q-187 0 -293 135.5t-106 376.5zM324 492q0 -155 62.5 -240.5t180.5 -85.5 q53 0 100.5 17.5t86 53t61.5 96.5t23 140v391q-136 4 -185 4q-154 0 -241.5 -99t-87.5 -277z" />
<glyph unicode="e" horiz-adv-x="1079" d="M88 483q0 264 137 412.5t381 148.5q181 0 282 -88t101 -245q0 -154 -125 -240t-348 -86q-100 0 -199 18q15 -119 81.5 -182t183.5 -63q182 0 313 84l92 -148q-180 -114 -420 -114q-226 0 -352.5 132.5t-126.5 370.5zM315 541q102 -15 199 -15q118 0 184 46t66 128 q0 75 -48 118.5t-134 43.5q-116 0 -186.5 -84.5t-80.5 -236.5z" />
<glyph unicode="f" horiz-adv-x="800" d="M55 848v176h160v236q0 160 92 248.5t258 88.5q150 0 266 -49l-30 -174q-75 37 -174 37q-87 0 -134 -52t-47 -145v-190h322v-176h-322v-848h-231v848h-160z" />
<glyph unicode="g" horiz-adv-x="1212" d="M90 492q0 261 144.5 406.5t402.5 145.5q206 0 434 -20v-1098q0 -198 -118 -308t-330 -110q-255 0 -451 115l92 148q144 -84 320 -84q256 0 256 284v183q-62 -86 -154.5 -130t-196.5 -44q-187 0 -293 135.5t-106 376.5zM326 492q0 -155 62.5 -240.5t180.5 -85.5 q113 0 192 78.5t79 228.5v391q-136 4 -185 4q-154 0 -241.5 -99t-87.5 -277z" />
<glyph unicode="h" horiz-adv-x="1210" d="M141 0v1567q65 30 119 30q53 0 83 -32.5t30 -89.5v-603q121 172 356 172q164 0 256 -99t92 -277v-668h-231v623q0 111 -49 173t-138 62q-133 0 -209.5 -76.5t-76.5 -230.5v-551h-232z" />
<glyph unicode="i" d="M121 1339q0 61 36 95t99 34t99 -34t36 -95t-36 -95t-99 -34t-99 34t-36 95zM141 0h232v1024h-232v-1024z" />
<glyph unicode="j" d="M33 -324l104 -168q236 95 236 355v1161h-232v-1116q0 -181 -108 -232zM121 1339q0 61 36 95t99 34t99 -34t36 -95t-36 -95t-99 -34t-99 34t-36 95z" />
<glyph unicode="k" horiz-adv-x="1128" d="M141 0v1567q65 30 119 30q53 0 83 -32.5t30 -89.5v-1475h-232zM379 541l463 503l219 -36l-422 -457l498 -535q-63 -36 -148 -36q-60 0 -101.5 19.5t-80.5 63.5z" />
<glyph unicode="l" horiz-adv-x="577" d="M137 211v1356q65 30 119 30q53 0 83 -32.5t30 -89.5v-1237q0 -72 65 -72q49 0 84 14l31 -147q-76 -53 -184 -53t-168 60.5t-60 170.5z" />
<glyph unicode="m" horiz-adv-x="1748" d="M141 0v1014q65 30 119 30q49 0 78 -38.5t29 -104.5v-29q110 172 321 172q97 0 166 -44.5t104 -129.5q126 174 353 174q145 0 226 -99t81 -277v-668h-232v623q0 111 -38 173t-109 62q-111 0 -177.5 -77t-66.5 -230v-551h-231v623q0 111 -38.5 173t-109.5 62 q-111 0 -177 -76.5t-66 -230.5v-551h-232z" />
<glyph unicode="n" horiz-adv-x="1210" d="M141 0v1014q65 30 119 30q49 0 78 -38.5t29 -104.5v-37q123 180 362 180q164 0 256 -99t92 -277v-668h-231v623q0 111 -49 173t-138 62q-133 0 -209.5 -76.5t-76.5 -230.5v-551h-232z" />
<glyph unicode="o" horiz-adv-x="1216" d="M88 512q0 251 137 391.5t383 140.5t383 -140.5t137 -391.5t-137 -391.5t-383 -140.5t-383 140.5t-137 391.5zM324 512q0 -163 75 -254.5t209 -91.5t209.5 91.5t75.5 254.5t-75.5 254.5t-209.5 91.5t-209 -91.5t-75 -254.5z" />
<glyph unicode="p" horiz-adv-x="1212" d="M141 -471v1485q65 30 119 30q49 0 78 -38.5t29 -104.5v-39q62 90 156 136t200 46q187 0 293 -135.5t106 -376.5q0 -261 -144.5 -406.5t-402.5 -145.5q-88 0 -202 6v-457h-232zM373 160q136 -4 184 -4q154 0 242 99t88 277q0 155 -63 240.5t-181 85.5q-112 0 -191 -78.5 t-79 -228.5v-391z" />
<glyph unicode="q" horiz-adv-x="1212" d="M88 492q0 261 144.5 406.5t402.5 145.5q206 0 434 -20v-1495h-231v625q-62 -86 -154.5 -130t-196.5 -44q-187 0 -293 135.5t-106 376.5zM324 492q0 -155 62.5 -240.5t180.5 -85.5q113 0 192 78.5t79 228.5v391q-136 4 -185 4q-154 0 -241.5 -99t-87.5 -277z" />
<glyph unicode="r" horiz-adv-x="845" d="M141 0v1014q65 30 119 30q49 0 78 -38.5t29 -104.5v-63q111 206 321 206q82 0 148 -32l-68 -211q-56 37 -129 37q-124 0 -195 -92t-71 -277v-469h-232z" />
<glyph unicode="s" horiz-adv-x="970" d="M70 90l63 150q128 -90 332 -90q97 0 150 30t53 88q0 29 -16.5 51.5t-53 41.5t-66.5 30t-86 29q-58 18 -97.5 33t-90 42.5t-81 59t-52 80t-21.5 106.5q0 142 105.5 222.5t290.5 80.5q211 0 364 -100l-88 -137q-137 70 -276 70q-77 0 -122.5 -28t-45.5 -81q0 -26 12 -48 t29.5 -37.5t48.5 -31t57.5 -25.5t69.5 -24q63 -20 102.5 -35t91 -43t81 -58.5t50.5 -77t21 -103.5q0 -143 -111 -224t-309 -81q-265 0 -405 110z" />
<glyph unicode="t" horiz-adv-x="823" d="M47 848v176h166v246q65 30 119 30q50 0 78 -32.5t28 -89.5v-154h334v-176h-334v-486q0 -93 42 -144.5t120 -51.5q85 0 152 37l30 -174q-107 -49 -245 -49q-157 0 -243.5 88.5t-86.5 248.5v531h-160z" />
<glyph unicode="u" horiz-adv-x="1185" d="M131 356v658q65 30 119 30q52 0 82 -32.5t30 -89.5v-521q0 -111 49 -173t138 -62q124 0 195 76.5t71 230.5v541q65 30 119 30q53 0 83 -32.5t30 -89.5v-912q-65 -30 -119 -30q-49 0 -78 38.5t-29 104.5v33q-116 -176 -342 -176q-164 0 -256 99t-92 277z" />
<glyph unicode="v" horiz-adv-x="1091" d="M41 1008q59 36 137 36q97 0 137 -114l181 -527l59 -223l63 219l216 645l217 -36l-379 -1008h-252z" />
<glyph unicode="w" horiz-adv-x="1660" d="M39 1008q56 36 131 36q108 0 143 -114l154 -518l49 -224l57 234l170 584q41 38 103 38q92 0 127 -114l149 -512l49 -217l58 223l184 620l205 -36l-334 -1008h-237l-185 608l-35 154l-32 -148l-177 -614h-241z" />
<glyph unicode="x" horiz-adv-x="1054" d="M20 0l373 520l-334 488q66 36 140 36q52 0 86.5 -19.5t66.5 -66.5l191 -274l243 360l213 -36l-335 -486l364 -506q-52 -36 -121 -36q-114 0 -174 83l-215 308l-258 -371h-240z" />
<glyph unicode="y" horiz-adv-x="1097" d="M47 1008q59 36 131 36q104 0 144 -114l167 -467l80 -283l76 283l193 581l217 -36l-424 -1149q-52 -140 -138 -232.5t-192 -118.5l-94 152q73 19 135.5 82t95.5 154l41 112q-61 17 -86 88z" />
<glyph unicode="z" horiz-adv-x="983" d="M63 0v154l422 542l131 152h-520v176h783q28 -47 28 -84q0 -30 -14 -58.5t-51 -74.5l-410 -512l-110 -119h591v-176h-850z" />
<glyph unicode="{" horiz-adv-x="647" d="M66 455v196q72 0 112.5 38t40.5 106v448q0 259 236 354l114 -167q-108 -51 -108 -232v-424q0 -148 -131 -221q131 -73 131 -221v-424q0 -181 108 -232l-114 -168q-236 95 -236 355v448q0 68 -40.5 106t-112.5 38z" />
<glyph unicode="|" horiz-adv-x="505" d="M164 -471v2048h180v-2048h-180z" />
<glyph unicode="}" horiz-adv-x="647" d="M78 -324q108 51 108 232v424q0 148 131 221q-131 73 -131 221v424q0 181 -108 232l115 167q235 -94 235 -354v-448q0 -67 41 -105.5t113 -38.5v-196q-72 0 -113 -38.5t-41 -105.5v-448q0 -261 -235 -355z" />
<glyph unicode="~" horiz-adv-x="1230" d="M117 459q39 79 111.5 129.5t148.5 50.5q105 0 270 -41t238 -41q91 0 162 96l65 -86q-49 -86 -121 -133t-151 -47q-104 0 -264 42t-230 42q-89 0 -162 -98z" />
<glyph unicode="&#xa2;" horiz-adv-x="1071" d="M104 514q0 232 121 373t320 155v129h88v-129q49 -5 94 -20t90 -42.5t81.5 -75.5t57.5 -111l-174 -70q-52 116 -149 133v-690q76 1 151 27.5t131 70.5l76 -168q-141 -110 -358 -116v-127h-88v129q-209 19 -325 158.5t-116 373.5zM340 514q0 -137 54 -225t151 -113v676 q-97 -19 -151 -107.5t-54 -230.5z" />
<glyph unicode="&#xa3;" horiz-adv-x="1075" d="M102 0v166h37q51 0 79 58t28 161v168h-137v164h137v198q0 167 100 261t279 94q193 0 333 -70l-22 -172q-110 55 -250 55q-103 0 -156 -56t-53 -157v-153h359v-164h-359v-219q0 -93 -41 -158h525v-176h-859z" />
<glyph unicode="&#xa5;" horiz-adv-x="1175" d="M61 1231q46 39 125 39q65 0 104.5 -20t65.5 -68l250 -465l291 553l217 -39l-383 -686h209v-164h-235v-381h-232v381h-235v164h206z" />
<glyph unicode="&#xa8;" horiz-adv-x="856" d="M109 1339q0 61 36 95t99 34t99 -34t36 -95t-36 -95t-99 -34t-99 34t-36 95zM477 1339q0 61 36 95t99 34t99.5 -34t36.5 -95t-36.5 -95t-99.5 -34t-99 34t-36 95z" />
<glyph unicode="&#xa9;" horiz-adv-x="1822" d="M98 737q0 358 214.5 558t598.5 200q383 0 598 -200.5t215 -557.5t-215 -557t-598 -200q-384 0 -598.5 199.5t-214.5 557.5zM299 737q0 -283 161.5 -440.5t450.5 -157.5q288 0 450.5 158t162.5 440t-162.5 440t-450.5 158q-289 0 -450.5 -157.5t-161.5 -440.5zM539 739 q0 185 103.5 292.5t266.5 107.5q40 0 79 -9t80.5 -30t75 -62.5t50.5 -99.5l-147 -59q-40 100 -127 100q-83 0 -130 -63t-47 -177t52.5 -177.5t146.5 -63.5q58 0 116 18.5t99 50.5l64 -141q-115 -88 -295 -88q-183 0 -285 106t-102 295z" />
<glyph unicode="&#xab;" horiz-adv-x="1058" d="M76 512l319 477l164 -96l-217 -381l217 -381l-164 -96zM485 512l320 477l164 -96l-217 -381l217 -381l-164 -96z" />
<glyph unicode="&#xad;" horiz-adv-x="854" d="M129 424v192h594v-192h-594z" />
<glyph unicode="&#xae;" horiz-adv-x="1060" d="M96 1106q0 183 115 286t319 103t319.5 -103t115.5 -286t-115.5 -286t-319.5 -103t-319 103t-115 286zM193 1106q0 -148 88.5 -230.5t248.5 -82.5q159 0 248.5 83t89.5 230t-89.5 230t-248.5 83q-160 0 -248.5 -82.5t-88.5 -230.5zM381 907v398q52 6 133 6q84 0 131 -32.5 t47 -90.5q0 -66 -59 -96q52 -25 59 -93l4 -38q3 -29 11 -46q-35 -14 -58 -14q-24 0 -37.5 14.5t-15.5 38.5l-2 41q-1 27 -18.5 42.5t-45.5 15.5h-49v-146h-100zM481 1128h37q70 0 70 54q0 53 -74 53h-33v-107z" />
<glyph unicode="&#xb4;" horiz-adv-x="509" d="M20 1311l351 264l118 -195l-403 -186z" />
<glyph unicode="&#xb8;" horiz-adv-x="509" d="M35 -440l45 98q59 -41 133 -41q56 0 87.5 24t31.5 64q0 48 -54.5 79.5t-173.5 51.5l123 193h156l-90 -129q182 -57 182 -197q0 -93 -65 -144t-183 -51q-106 0 -192 52z" />
<glyph unicode="&#xbb;" horiz-adv-x="1058" d="M90 131l217 381l-217 381l164 96l319 -477l-319 -477zM500 131l217 381l-217 381l164 96l319 -477l-319 -477z" />
<glyph unicode="&#xd3;" horiz-adv-x="1566" d="M100 737q0 358 180.5 558t503.5 200t503.5 -200t180.5 -558t-180.5 -557.5t-503.5 -199.5t-503.5 199.5t-180.5 557.5zM348 737q0 -264 115 -412.5t319 -148.5t319.5 148.5t115.5 412.5t-115.5 412.5t-319.5 148.5t-319 -148.5t-115 -412.5zM618 1761l351 264l118 -194 l-403 -186z" />
<glyph unicode="&#xf3;" horiz-adv-x="1216" d="M88 512q0 251 137 391.5t383 140.5t383 -140.5t137 -391.5t-137 -391.5t-383 -140.5t-383 140.5t-137 391.5zM324 512q0 -163 75 -254.5t209 -91.5t209.5 91.5t75.5 254.5t-75.5 254.5t-209.5 91.5t-209 -91.5t-75 -254.5zM444 1311l351 264l118 -195l-403 -186z" />
<glyph unicode="&#x104;" horiz-adv-x="1351" d="M16 0l529 1464q67 31 131 31q120 0 170 -135l489 -1360q-221 -201 -221 -315q0 -32 19.5 -50t56.5 -18q73 0 137 37l31 -94q-99 -52 -207 -52q-85 0 -132.5 42t-47.5 116q0 79 58 156t179 178h-133l-117 348h-587l-117 -348h-238zM434 539h461l-231 688z" />
<glyph unicode="&#x105;" horiz-adv-x="1073" d="M57 291q0 155 122 241t343 86q98 0 189 -6v11q0 119 -51.5 181t-163.5 62q-154 0 -279 -84l-92 148q177 114 410 114q192 0 299.5 -99t107.5 -277v-658q-221 -207 -221 -325q0 -32 19.5 -50t56.5 -18q68 0 137 37l31 -94q-99 -52 -207 -52q-85 0 -132.5 42t-47.5 116 q0 75 51.5 149.5t158.5 170.5q-71 25 -71 137v41q-61 -92 -149 -138t-189 -46q-151 0 -236.5 82.5t-85.5 228.5zM279 309q0 -72 41 -113.5t118 -41.5q71 0 131 33t100.5 106t41.5 176q-94 6 -183 6q-118 0 -183.5 -44t-65.5 -122z" />
<glyph unicode="&#x106;" horiz-adv-x="1282" d="M100 737q0 357 164.5 557.5t456.5 200.5q320 0 477 -260l-223 -92q-88 155 -254 155q-175 0 -273 -148.5t-98 -412.5t109 -412.5t303 -148.5q106 0 205 33t174 94l98 -170q-88 -72 -219.5 -112.5t-278.5 -40.5q-302 0 -471.5 199.5t-169.5 557.5zM557 1761l350 264 l119 -194l-403 -186z" />
<glyph unicode="&#x107;" horiz-adv-x="1030" d="M90 514q0 247 133.5 388.5t351.5 141.5q52 0 102.5 -12t103 -38.5t95 -78t66.5 -122.5l-174 -70q-58 135 -182 135q-123 0 -191.5 -90.5t-68.5 -253.5q0 -164 75 -256t207 -92q78 0 157 26t136 72l76 -168q-151 -116 -385 -116q-236 0 -369 141t-133 393zM412 1311 l350 264l119 -195l-404 -186z" />
<glyph unicode="&#x118;" horiz-adv-x="1165" d="M174 0v1475h870v-191h-628v-430h557v-190h-557v-474h651v-190q-221 -201 -221 -315q0 -32 19.5 -50t56.5 -18q73 0 137 37l31 -94q-99 -52 -207 -52q-85 0 -133 42t-48 116q0 79 58 155.5t180 178.5h-766z" />
<glyph unicode="&#x119;" horiz-adv-x="1079" d="M88 483q0 264 137 412.5t381 148.5q181 0 282 -88t101 -245q0 -154 -125 -240t-348 -86q-100 0 -199 18q15 -119 81.5 -182t183.5 -63q182 0 313 84l92 -148q-207 -140 -298 -238.5t-91 -170.5q0 -32 19.5 -50t56.5 -18q68 0 137 37l31 -94q-99 -52 -207 -52 q-85 0 -132.5 42t-47.5 116q0 79 58.5 155t178.5 167q-55 -8 -125 -8q-226 0 -352.5 132.5t-126.5 370.5zM315 541q102 -15 199 -15q118 0 184 46t66 128q0 75 -48 118.5t-134 43.5q-116 0 -186.5 -84.5t-80.5 -236.5z" />
<glyph unicode="&#x141;" horiz-adv-x="1058" d="M49 528v177l146 73v686q57 31 108 31q60 0 96.5 -38.5t36.5 -104.5v-469l318 161v-176l-318 -161v-510h578v-197h-819v602z" />
<glyph unicode="&#x142;" horiz-adv-x="681" d="M86 528v177l115 77v785q65 30 118 30t83 -32.5t30 -89.5v-551l178 120v-176l-178 -120v-510q0 -34 17 -53t49 -19q49 0 84 14l30 -147q-76 -53 -184 -53t-167.5 60.5t-59.5 170.5v395z" />
<glyph unicode="&#x143;" horiz-adv-x="1523" d="M174 0v1464q43 31 96 31q45 0 80.5 -23t71.5 -73l706 -977l-10 1053h232v-1475h-189l-766 1055l11 -1055h-232zM598 1761l350 264l119 -194l-403 -186z" />
<glyph unicode="&#x144;" horiz-adv-x="1210" d="M141 0v1014q65 30 119 30q49 0 78 -38.5t29 -104.5v-37q123 180 362 180q164 0 256 -99t92 -277v-668h-231v623q0 111 -49 173t-138 62q-133 0 -209.5 -76.5t-76.5 -230.5v-551h-232zM446 1311l351 264l118 -195l-403 -186z" />
<glyph unicode="&#x15a;" horiz-adv-x="1161" d="M76 123l78 178q73 -59 179.5 -92t229.5 -33t191.5 53t68.5 148q0 32 -9 60.5t-21.5 49t-37 41t-44 33.5t-56 29.5t-59 25.5t-64.5 25q-160 60 -230 105q-167 107 -180 303q-1 18 -1 36q0 196 124.5 303t348.5 107q243 0 442 -137l-102 -172q-72 52 -161.5 82t-178.5 30 q-107 0 -167 -47.5t-60 -132.5q0 -34 9.5 -62t32 -52t43.5 -40.5t61 -35.5t66 -30t76 -30q54 -20 85.5 -32.5t81 -36.5t79.5 -46t65.5 -56.5t55.5 -72.5t33.5 -90t13.5 -112q0 -210 -135 -326t-379 -116q-139 0 -263.5 36.5t-215.5 106.5zM410 1761l350 264l119 -194 l-404 -186z" />
<glyph unicode="&#x15b;" horiz-adv-x="970" d="M70 90l63 150q128 -90 332 -90q97 0 150 30t53 88q0 29 -16.5 51.5t-53 41.5t-66.5 30t-86 29q-58 18 -97.5 33t-90 42.5t-81 59t-52 80t-21.5 106.5q0 142 105.5 222.5t290.5 80.5q211 0 364 -100l-88 -137q-137 70 -276 70q-77 0 -122.5 -28t-45.5 -81q0 -26 12 -48 t29.5 -37.5t48.5 -31t57.5 -25.5t69.5 -24q63 -20 102.5 -35t91 -43t81 -58.5t50.5 -77t21 -103.5q0 -143 -111 -224t-309 -81q-265 0 -405 110zM319 1311l351 264l118 -195l-403 -186z" />
<glyph unicode="&#x179;" horiz-adv-x="1179" d="M55 0v156l643 983l103 145h-697v191h975q29 -47 29 -91q0 -20 -10 -44t-21.5 -43t-40.5 -62l-579 -889l-115 -156h760v-190h-1047zM416 1761l350 264l119 -194l-404 -186z" />
<glyph unicode="&#x17a;" horiz-adv-x="983" d="M63 0v154l422 542l131 152h-520v176h783q28 -47 28 -84q0 -30 -14 -58.5t-51 -74.5l-410 -512l-110 -119h591v-176h-850zM326 1311l350 264l119 -195l-404 -186z" />
<glyph unicode="&#x17b;" horiz-adv-x="1179" d="M55 0v156l643 983l103 145h-697v191h975q29 -47 29 -91q0 -26 -13.5 -52.5t-47.5 -79.5q-7 -11 -11 -17l-579 -889l-115 -156h760v-190h-1047zM444 1790q0 61 36.5 95t99.5 34t99 -34t36 -95t-36 -95t-99 -34t-99.5 34t-36.5 95z" />
<glyph unicode="&#x17c;" horiz-adv-x="983" d="M63 0v154l422 542l131 152h-520v176h783q28 -47 28 -84q0 -30 -14 -58.5t-51 -74.5l-410 -512l-110 -119h591v-176h-850zM354 1339q0 61 36 95t99 34t99.5 -34t36.5 -95t-36.5 -95t-99.5 -34t-99 34t-36 95z" />
<glyph unicode="&#x2c6;" horiz-adv-x="741" d="M20 1311l351 256l350 -256l-66 -117l-284 145l-285 -145z" />
<glyph unicode="&#x2da;" horiz-adv-x="565" d="M27 1382q0 110 68 173t188 63t188 -63t68 -173t-68 -172.5t-188 -62.5t-188 62.5t-68 172.5zM168 1382q0 -57 30.5 -88.5t84.5 -31.5t84 31.5t30 88.5t-30 89t-84 32t-84.5 -32t-30.5 -89z" />
<glyph unicode="&#x2dc;" horiz-adv-x="872" d="M68 1303q36 71 105 118t140 47q54 0 144 -37.5t131 -37.5q88 0 157 69l62 -80q-47 -79 -116 -123.5t-144 -44.5q-53 0 -138.5 39t-125.5 39q-86 0 -154 -71z" />
<glyph unicode="&#x400;" horiz-adv-x="1165" d="M174 0v1475h870v-191h-628v-430h557v-190h-557v-474h651v-190h-893zM299 1831l119 194l350 -264l-66 -116z" />
<glyph unicode="&#x401;" horiz-adv-x="1165" d="M174 0v1475h870v-191h-628v-430h557v-190h-557v-474h651v-190h-893zM285 1790q0 61 36 95t99 34t99 -34t36 -95t-36 -95t-99 -34t-99 34t-36 95zM653 1790q0 61 36 95t99 34t99.5 -34t36.5 -95t-36.5 -95t-99.5 -34t-99 34t-36 95z" />
<glyph unicode="&#x402;" horiz-adv-x="1566" d="M47 1284v191h1024v-191h-432v-532q73 121 185 186.5t251 65.5q198 0 309 -135.5t111 -376.5q0 -242 -143.5 -377t-399.5 -135v196q141 0 221 83.5t80 232.5t-64.5 232t-180.5 83q-165 0 -267 -124t-102 -351v-332h-242v1284h-350z" />
<glyph unicode="&#x403;" horiz-adv-x="1003" d="M174 0v1475h789v-191h-547v-1284h-242zM350 1761l350 264l119 -194l-403 -186z" />
<glyph unicode="&#x404;" horiz-adv-x="1288" d="M100 737q0 357 164.5 557.5t456.5 200.5q320 0 477 -260l-223 -92q-88 155 -254 155q-156 0 -251.5 -118t-115.5 -334h539v-191h-541q17 -228 124.5 -353.5t285.5 -125.5q106 0 205 33t174 94l98 -170q-88 -72 -219.5 -112.5t-278.5 -40.5q-302 0 -471.5 199.5 t-169.5 557.5z" />
<glyph unicode="&#x405;" horiz-adv-x="1161" d="M76 123l78 178q73 -59 179.5 -92t229.5 -33t191.5 53t68.5 148q0 32 -9 60.5t-21.5 49t-37 41t-44 33.5t-56 29.5t-59 25.5t-64.5 25q-160 60 -230 105q-167 107 -180 303q-1 18 -1 36q0 196 124.5 303t348.5 107q243 0 442 -137l-102 -172q-72 52 -161.5 82t-178.5 30 q-107 0 -167 -47.5t-60 -132.5q0 -34 9.5 -62t32 -52t43.5 -40.5t61 -35.5t66 -30t76 -30q54 -20 85.5 -32.5t81 -36.5t79.5 -46t65.5 -56.5t55.5 -72.5t33.5 -90t13.5 -112q0 -210 -135 -326t-379 -116q-139 0 -263.5 36.5t-215.5 106.5z" />
<glyph unicode="&#x406;" horiz-adv-x="585" d="M174 0v1464q57 31 109 31q60 0 96.5 -38.5t36.5 -104.5v-1352h-242z" />
<glyph unicode="&#x407;" horiz-adv-x="585" d="M-25 1790q0 61 36.5 95t99.5 34t99 -34t36 -95t-36 -95t-99 -34t-99.5 34t-36.5 95zM174 0v1464q57 31 109 31q60 0 96.5 -38.5t36.5 -104.5v-1352h-242zM344 1790q0 61 36 95t99 34t99 -34t36 -95t-36 -95t-99 -34t-99 34t-36 95z" />
<glyph unicode="&#x408;" horiz-adv-x="802" d="M35 29q113 -49 256 -49q164 0 257 94.5t93 263.5v1014q0 66 -36.5 104.5t-96.5 38.5q-52 0 -109 -31v-1071q0 -103 -42.5 -160t-125.5 -57q-92 0 -165 37z" />
<glyph unicode="&#x409;" horiz-adv-x="2142" d="M53 154q84 36 127.5 108t50.5 199l56 1014h1024v-619q108 6 217 6q261 0 407 -120t146 -336q0 -201 -146 -313.5t-407 -112.5q-209 0 -459 20v1284h-571l-45 -868q-9 -175 -83 -277.5t-210 -158.5zM1311 176q117 -6 219 -6q142 0 221.5 66.5t79.5 185.5q0 118 -79 184 t-222 66q-108 0 -219 -6v-490z" />
<glyph unicode="&#x40a;" horiz-adv-x="2181" d="M174 0v1464q57 31 109 31q60 0 96.5 -38.5t36.5 -104.5v-508h692v620q57 31 109 31h2q60 0 96.5 -38.5t36.5 -104.5v-496q108 6 217 6q261 0 407 -120t146 -336q0 -201 -146 -313.5t-407 -112.5q-209 0 -459 20h-2v653h-692v-653h-242zM1352 176q117 -6 219 -6 q142 0 221.5 66.5t79.5 185.5q0 118 -79 184t-222 66q-108 0 -219 -6v-490z" />
<glyph unicode="&#x40b;" horiz-adv-x="1615" d="M47 1284v191h1024v-191h-432v-541q75 125 196 193t271 68q193 0 301.5 -126.5t108.5 -351.5v-526h-242v471q0 157 -63 246.5t-177 89.5q-177 0 -286 -124t-109 -351v-332h-242v1284h-350z" />
<glyph unicode="&#x40c;" horiz-adv-x="1308" d="M174 0v1464q57 31 109 31q60 0 96.5 -38.5t36.5 -104.5v-1352h-242zM426 745l563 750l230 -41l-519 -690l619 -744q-46 -40 -129 -40q-75 0 -119.5 22t-85.5 72zM522 1761l350 264l119 -194l-403 -186z" />
<glyph unicode="&#x40d;" horiz-adv-x="1521" d="M174 0v1464q57 31 109 31q60 0 96.5 -38.5t36.5 -104.5v-850l692 760v202q57 31 109 31q60 0 96.5 -38.5t36.5 -104.5v-1352h-242v950l-692 -760v-190h-242zM455 1831l118 194l351 -264l-66 -116z" />
<glyph unicode="&#x40e;" horiz-adv-x="1177" d="M35 1454q48 41 125 41q65 0 105.5 -25.5t72.5 -97.5l207 -469l73 -209l322 801l221 -41l-483 -1124q-59 -138 -162 -231t-229 -119l-103 163q186 46 273 224l57 116q-49 20 -76 84zM279 1929h167q0 -64 40.5 -101.5t111.5 -37.5t111.5 37.5t40.5 101.5h168 q0 -135 -84.5 -209.5t-235.5 -74.5t-235 74.5t-84 209.5z" />
<glyph unicode="&#x40f;" horiz-adv-x="1429" d="M174 0v1464q57 31 109 31q60 0 96.5 -38.5t36.5 -104.5v-1162h600v1274q57 31 108 31q60 0 96.5 -38.5t36.5 -104.5v-1352h-421v-215q-57 -31 -111 -31q-59 0 -95 39t-36 105v102h-420z" />
<glyph unicode="&#x410;" horiz-adv-x="1351" d="M16 0l529 1464q67 31 131 31q120 0 170 -135l489 -1360h-260l-117 348h-587l-117 -348h-238zM434 539h461l-231 688z" />
<glyph unicode="&#x411;" horiz-adv-x="1249" d="M174 0v1475h860v-191h-618v-428q108 6 217 6q261 0 407 -120t146 -336q0 -201 -146 -313.5t-407 -112.5q-209 0 -459 20zM416 176q117 -6 219 -6q142 0 221.5 66.5t79.5 185.5q0 118 -79 184t-222 66q-108 0 -219 -6v-490z" />
<glyph unicode="&#x412;" horiz-adv-x="1294" d="M174 0v1475q257 20 418 20q261 0 407 -104.5t146 -290.5q0 -112 -55 -194t-160 -130q134 -47 205 -142t71 -228q0 -201 -151.5 -313.5t-421.5 -112.5q-209 0 -459 20zM416 176q117 -6 219 -6q152 0 236.5 66.5t84.5 185.5t-84.5 184.5t-236.5 65.5h-219v-496zM416 862 h178q142 0 221.5 58.5t79.5 162.5t-79.5 163t-221.5 59q-13 0 -178 -5v-438z" />
<glyph unicode="&#x413;" horiz-adv-x="1003" d="M174 0v1475h789v-191h-547v-1284h-242z" />
<glyph unicode="&#x414;" horiz-adv-x="1544" d="M55 -102v278q95 50 147 173.5t62 336.5l41 789h1012v-1289h127v-401q-57 -31 -111 -31q-59 0 -95 39t-36 105v102h-913l-10 -215q-51 -31 -101 -31q-56 0 -89.5 39t-33.5 105zM348 190h727v1094h-559l-31 -643q-14 -301 -137 -451z" />
<glyph unicode="&#x415;" horiz-adv-x="1165" d="M174 0v1475h870v-191h-628v-430h557v-190h-557v-474h651v-190h-893z" />
<glyph unicode="&#x416;" horiz-adv-x="1863" d="M12 0l516 756l-444 698q48 41 125 41q62 0 101 -23.5t75 -78.5l418 -650l-514 -743h-277zM813 0v1464q57 31 109 31q60 0 96.5 -38.5t36.5 -104.5v-1352h-242zM1065 745l469 750l238 -41l-433 -690l516 -744q-50 -40 -131 -40q-76 0 -120.5 25t-87.5 87z" />
<glyph unicode="&#x417;" horiz-adv-x="1239" d="M39 190l94 156q87 -88 200.5 -129t229.5 -41q157 0 246.5 67.5t89.5 188.5q0 120 -86 187t-238 67h-186v174h141q132 0 206.5 58.5t74.5 162.5q0 103 -68 160t-188 57q-101 0 -201 -29.5t-176 -88.5l-65 159q96 74 226 115t257 41q220 0 342.5 -99.5t122.5 -279.5 q0 -123 -71.5 -210t-198.5 -118q170 -19 264 -117.5t94 -258.5q0 -204 -149 -318t-416 -114q-332 0 -545 210z" />
<glyph unicode="&#x418;" horiz-adv-x="1521" d="M174 0v1464q57 31 109 31q60 0 96.5 -38.5t36.5 -104.5v-850l692 760v202q57 31 109 31q60 0 96.5 -38.5t36.5 -104.5v-1352h-242v950l-692 -760v-190h-242z" />
<glyph unicode="&#x419;" horiz-adv-x="1521" d="M174 0v1464q57 31 109 31q60 0 96.5 -38.5t36.5 -104.5v-850l692 760v202q57 31 109 31q60 0 96.5 -38.5t36.5 -104.5v-1352h-242v950l-692 -760v-190h-242zM440 1929h168q0 -64 40.5 -101.5t111.5 -37.5q70 0 110.5 37t40.5 102h168q0 -135 -84 -209.5t-235 -74.5 t-235.5 74.5t-84.5 209.5z" />
<glyph unicode="&#x41a;" horiz-adv-x="1308" d="M174 0v1464q57 31 109 31q60 0 96.5 -38.5t36.5 -104.5v-1352h-242zM426 745l563 750l230 -41l-519 -690l619 -744q-46 -40 -129 -40q-75 0 -119.5 22t-85.5 72z" />
<glyph unicode="&#x41b;" horiz-adv-x="1484" d="M53 154q84 36 127.5 108t50.5 199l56 1014h1024v-1475h-242v1284h-571l-45 -868q-9 -175 -83 -277.5t-210 -158.5z" />
<glyph unicode="&#x41c;" horiz-adv-x="1871" d="M100 0l164 1464q64 31 121 31q142 0 180 -111l387 -1140l400 1218q54 33 112 33q69 0 104 -32.5t44 -110.5l164 -1352h-246l-113 1106l-375 -1106h-229l-385 1112l-104 -1112h-224z" />
<glyph unicode="&#x41d;" horiz-adv-x="1521" d="M174 0v1464q57 31 109 31q60 0 96.5 -38.5t36.5 -104.5v-508h692v620q57 31 109 31q60 0 96.5 -38.5t36.5 -104.5v-1352h-242v653h-692v-653h-242z" />
<glyph unicode="&#x41e;" horiz-adv-x="1566" d="M100 737q0 358 180.5 558t503.5 200t503.5 -200t180.5 -558t-180.5 -557.5t-503.5 -199.5t-503.5 199.5t-180.5 557.5zM348 737q0 -264 115 -412.5t319 -148.5t319.5 148.5t115.5 412.5t-115.5 412.5t-319.5 148.5t-319 -148.5t-115 -412.5z" />
<glyph unicode="&#x41f;" horiz-adv-x="1472" d="M174 0v1475h1124v-1475h-241v1284h-641v-1284h-242z" />
<glyph unicode="&#x420;" horiz-adv-x="1263" d="M174 0v1475q250 20 459 20q270 0 421.5 -121t151.5 -338q0 -221 -152 -345t-423 -124q-104 0 -215 6v-573h-242zM416 764q108 -6 215 -6q155 0 240 73.5t85 204.5q0 126 -85 197.5t-238 71.5q-81 0 -217 -7v-534z" />
<glyph unicode="&#x421;" horiz-adv-x="1282" d="M100 737q0 357 164.5 557.5t456.5 200.5q320 0 477 -260l-223 -92q-88 155 -254 155q-175 0 -273 -148.5t-98 -412.5t109 -412.5t303 -148.5q106 0 205 33t174 94l98 -170q-88 -72 -219.5 -112.5t-278.5 -40.5q-302 0 -471.5 199.5t-169.5 557.5z" />
<glyph unicode="&#x422;" horiz-adv-x="1116" d="M45 1284v191h1024v-191h-391v-1284h-242v1284h-391z" />
<glyph unicode="&#x423;" horiz-adv-x="1177" d="M35 1454q48 41 125 41q65 0 105.5 -25.5t72.5 -97.5l207 -469l73 -209l322 801l221 -41l-483 -1124q-59 -138 -162 -231t-229 -119l-103 163q186 46 273 224l57 116q-49 20 -76 84z" />
<glyph unicode="&#x424;" horiz-adv-x="1599" d="M84 737q0 276 157 434.5t439 169.5v123q57 31 108 31q60 0 97 -38.5t37 -104.5v-11q282 -11 439 -169.5t157 -434.5t-157 -434.5t-439 -169.5v-133h-242v133q-282 11 -439 169.5t-157 434.5zM334 737q0 -184 91.5 -292t254.5 -119v823q-163 -11 -254.5 -119.5 t-91.5 -292.5zM922 326q163 11 254.5 119t91.5 292t-91.5 292.5t-254.5 119.5v-823z" />
<glyph unicode="&#x425;" horiz-adv-x="1292" d="M12 0l490 754l-449 700q48 41 129 41q71 0 116 -21.5t77 -72.5l282 -459l342 553l238 -41l-449 -700l486 -734q-46 -40 -123 -40q-83 0 -127 20t-78 74l-317 493l-363 -567h-254z" />
<glyph unicode="&#x426;" horiz-adv-x="1484" d="M174 0v1464q57 31 109 31q60 0 96.5 -38.5t36.5 -104.5v-1162h600v1274q57 31 108 31q60 0 96.5 -38.5t36.5 -104.5v-1166h127v-401q-57 -31 -110 -31q-59 0 -95 39t-36 105v102h-969z" />
<glyph unicode="&#x427;" horiz-adv-x="1384" d="M113 948v516q57 31 108 31q60 0 96.5 -38.5t36.5 -104.5v-348q0 -157 59.5 -246.5t166.5 -89.5q174 0 281.5 124t107.5 351v332h241v-1475h-241v729q-74 -124 -192 -191t-265 -67q-189 0 -294 126t-105 351z" />
<glyph unicode="&#x428;" horiz-adv-x="2109" d="M174 0v1464q57 31 109 31q60 0 96.5 -38.5t36.5 -104.5v-1162h518v1274q57 31 108 31q60 0 97 -38.5t37 -104.5v-1162h522v1274q57 31 108 31q60 0 96.5 -38.5t36.5 -104.5v-1352h-1765z" />
<glyph unicode="&#x429;" horiz-adv-x="2164" d="M174 0v1464q57 31 109 31q60 0 96.5 -38.5t36.5 -104.5v-1162h518v1274q57 31 108 31q60 0 97 -38.5t37 -104.5v-1162h522v1274q57 31 108 31q60 0 96.5 -38.5t36.5 -104.5v-1166h125v-401q-57 -31 -110 -31q-59 0 -95 39t-36 105v102h-1649z" />
<glyph unicode="&#x42a;" horiz-adv-x="1404" d="M33 1284v191h540v-619q108 6 218 6q261 0 406.5 -120t145.5 -336q0 -201 -145.5 -313.5t-406.5 -112.5q-209 0 -459 20v1284h-299zM573 176q117 -6 220 -6q142 0 221.5 66.5t79.5 185.5q0 118 -79 184t-222 66q-109 0 -220 -6v-490z" />
<glyph unicode="&#x42b;" horiz-adv-x="1830" d="M174 0v1464q57 31 109 31q60 0 96.5 -38.5t36.5 -104.5v-496q108 6 217 6q261 0 407 -120t146 -336q0 -201 -146 -313.5t-407 -112.5q-209 0 -459 20zM416 176q117 -6 219 -6q142 0 221.5 66.5t79.5 185.5q0 118 -79 184t-222 66q-108 0 -219 -6v-490zM1419 0v1464 q57 31 109 31q60 0 96.5 -38.5t36.5 -104.5v-1352h-242z" />
<glyph unicode="&#x42c;" horiz-adv-x="1245" d="M174 0v1464q57 31 109 31q60 0 96.5 -38.5t36.5 -104.5v-496q108 6 217 6q261 0 407 -120t146 -336q0 -201 -146 -313.5t-407 -112.5q-209 0 -459 20zM416 176q117 -6 219 -6q142 0 221.5 66.5t79.5 185.5q0 118 -79 184t-222 66q-108 0 -219 -6v-490z" />
<glyph unicode="&#x42d;" horiz-adv-x="1288" d="M49 133l98 170q75 -61 174 -94t205 -33q178 0 285.5 125.5t124.5 353.5h-541v191h539q-20 216 -115.5 334t-251.5 118q-166 0 -254 -155l-223 92q157 260 477 260q292 0 456.5 -200.5t164.5 -557.5q0 -358 -169.5 -557.5t-471.5 -199.5q-147 0 -278.5 40.5t-219.5 112.5z " />
<glyph unicode="&#x42e;" horiz-adv-x="1984" d="M174 0v1464q57 31 109 31q60 0 96.5 -38.5t36.5 -104.5v-510h237q23 311 182.5 482t424.5 171q295 0 459.5 -200t164.5 -558t-164.5 -557.5t-459.5 -199.5q-268 0 -428.5 176.5t-180.5 494.5h-235v-651h-242zM889 737q0 -264 98 -412.5t273 -148.5t273.5 148.5 t98.5 412.5t-98.5 412.5t-273.5 148.5t-273 -148.5t-98 -412.5z" />
<glyph unicode="&#x42f;" horiz-adv-x="1361" d="M4 0l492 641q-168 44 -259.5 151t-91.5 261q0 209 160.5 325.5t448.5 116.5q230 0 434 -20v-1475h-242v623q-102 -13 -186 -13h-23l-463 -610h-270zM395 1042q0 -121 96.5 -188.5t268.5 -67.5q84 0 186 13v495q-122 4 -188 4q-171 0 -267 -67.5t-96 -188.5z" />
<glyph unicode="&#x430;" horiz-adv-x="1073" d="M57 291q0 155 122 241t343 86q98 0 189 -6v11q0 119 -51.5 181t-163.5 62q-154 0 -279 -84l-92 148q177 114 410 114q192 0 299.5 -99t107.5 -277v-658q-65 -30 -119 -30q-49 0 -77.5 38.5t-28.5 104.5v41q-61 -92 -149 -138t-189 -46q-151 0 -236.5 82.5t-85.5 228.5z M279 309q0 -72 41 -113.5t118 -41.5q71 0 131 33t100.5 106t41.5 176q-94 6 -183 6q-118 0 -183.5 -44t-65.5 -122z" />
<glyph unicode="&#x431;" horiz-adv-x="1243" d="M115 573q0 203 22.5 357.5t62.5 259t103 175t136.5 107.5t170.5 54l406 71q21 -22 35 -53t14 -57q0 -37 -34.5 -65t-92.5 -38l-307 -57q-66 -12 -113.5 -39t-88.5 -79.5t-67.5 -141t-39.5 -215.5q109 192 364 192q221 0 345 -140.5t124 -391.5t-137 -391.5t-383 -140.5 t-383 156.5t-137 436.5zM350 512q0 -163 75.5 -254.5t209.5 -91.5t209.5 91.5t75.5 254.5t-75.5 254.5t-209.5 91.5t-209.5 -91.5t-75.5 -254.5z" />
<glyph unicode="&#x432;" horiz-adv-x="1089" d="M141 0v1024q182 20 406 20q197 0 306.5 -77.5t109.5 -216.5q0 -152 -162 -222q203 -64 203 -241q0 -145 -112.5 -226t-313.5 -81q-242 0 -437 20zM373 156q126 -4 207 -4q91 0 142.5 42t51.5 115q0 71 -51.5 111.5t-142.5 40.5h-207v-305zM373 586h176q87 0 136.5 38.5 t49.5 104.5t-49.5 104.5t-136.5 38.5q-123 0 -176 -2v-284z" />
<glyph unicode="&#x433;" horiz-adv-x="866" d="M141 0v1024h684v-176h-452v-848h-232z" />
<glyph unicode="&#x434;" horiz-adv-x="1243" d="M43 -102v268q87 39 133 124.5t55 231.5l31 502h780v-850h117v-389q-67 -31 -119 -31t-82 39t-30 105v102h-662l-10 -215q-60 -31 -109 -31t-76.5 38.5t-27.5 105.5zM326 174h485v674h-352l-21 -371q-11 -188 -112 -303z" />
<glyph unicode="&#x435;" horiz-adv-x="1079" d="M88 483q0 264 137 412.5t381 148.5q181 0 282 -88t101 -245q0 -154 -125 -240t-348 -86q-100 0 -199 18q15 -119 81.5 -182t183.5 -63q182 0 313 84l92 -148q-180 -114 -420 -114q-226 0 -352.5 132.5t-126.5 370.5zM315 541q102 -15 199 -15q118 0 184 46t66 128 q0 75 -48 118.5t-134 43.5q-116 0 -186.5 -84.5t-80.5 -236.5z" />
<glyph unicode="&#x436;" horiz-adv-x="1595" d="M20 0l408 541l-358 467q55 36 129 36q54 0 90.5 -19t70.5 -64l316 -422l-402 -539h-254zM682 0v1014q65 30 119 30q52 0 82 -32.5t30 -89.5v-922h-231zM920 541l378 503l215 -36l-344 -459l406 -533q-55 -36 -129 -36q-63 0 -105.5 19.5t-74.5 63.5z" />
<glyph unicode="&#x437;" horiz-adv-x="940" d="M43 129l84 137q113 -108 289 -108q97 0 152 39.5t55 109.5q0 71 -51 110.5t-142 39.5h-135v151h102q77 0 120.5 34t43.5 95t-42.5 95t-119.5 34q-142 0 -241 -73l-62 145q77 52 172 79t187 27q162 0 252 -70.5t90 -199.5q0 -82 -51.5 -142t-143.5 -85q121 -15 188.5 -85 t67.5 -179q0 -142 -112 -222.5t-310 -80.5q-233 0 -393 149z" />
<glyph unicode="&#x438;" horiz-adv-x="1206" d="M141 0v1014q65 30 119 30q53 0 83 -32.5t30 -89.5v-496l461 420v168q65 30 118 30t83 -32.5t30 -89.5v-922h-231v598l-461 -420v-178h-232z" />
<glyph unicode="&#x439;" horiz-adv-x="1206" d="M141 0v1014q65 30 119 30q53 0 83 -32.5t30 -89.5v-496l461 420v168q65 30 118 30t83 -32.5t30 -89.5v-922h-231v598l-461 -420v-178h-232zM285 1479h168q0 -65 40.5 -102.5t110.5 -37.5t111 37.5t41 102.5h168q0 -135 -84.5 -210t-235.5 -75t-235 75t-84 210z" />
<glyph unicode="&#x43a;" horiz-adv-x="1132" d="M141 0v1014q65 30 119 30q53 0 83 -32.5t30 -89.5v-922h-232zM379 541l463 503l219 -36l-422 -457l498 -535q-63 -36 -150 -36q-59 0 -100 19.5t-80 63.5z" />
<glyph unicode="&#x43b;" horiz-adv-x="1161" d="M37 139q137 50 149 240l41 645h791v-1024h-232v848h-358l-31 -514q-9 -142 -73.5 -226.5t-182.5 -127.5z" />
<glyph unicode="&#x43c;" horiz-adv-x="1402" d="M92 0l115 1016q58 28 112 28q134 0 164 -92l234 -708l239 772q54 28 111 28q64 0 95 -27t40 -97l115 -920h-232l-73 741l-238 -741h-184l-234 737l-77 -737h-187z" />
<glyph unicode="&#x43d;" horiz-adv-x="1206" d="M141 0v1014q65 30 119 30q53 0 83 -32.5t30 -89.5v-308h461v400q65 30 118 30t83 -32.5t30 -89.5v-922h-231v438h-461v-438h-232z" />
<glyph unicode="&#x43e;" horiz-adv-x="1216" d="M88 512q0 251 137 391.5t383 140.5t383 -140.5t137 -391.5t-137 -391.5t-383 -140.5t-383 140.5t-137 391.5zM324 512q0 -163 75 -254.5t209 -91.5t209.5 91.5t75.5 254.5t-75.5 254.5t-209.5 91.5t-209 -91.5t-75 -254.5z" />
<glyph unicode="&#x43f;" horiz-adv-x="1206" d="M141 0v1024h924v-1024h-231v848h-461v-848h-232z" />
<glyph unicode="&#x440;" horiz-adv-x="1212" d="M141 -471v1485q65 30 119 30q49 0 78 -38.5t29 -104.5v-39q62 90 156 136t200 46q187 0 293 -135.5t106 -376.5q0 -261 -144.5 -406.5t-402.5 -145.5q-88 0 -202 6v-457h-232zM373 160q136 -4 184 -4q154 0 242 99t88 277q0 155 -63 240.5t-181 85.5q-112 0 -191 -78.5 t-79 -228.5v-391z" />
<glyph unicode="&#x441;" horiz-adv-x="1030" d="M90 514q0 247 133.5 388.5t351.5 141.5q52 0 102.5 -12t103 -38.5t95 -78t66.5 -122.5l-174 -70q-58 135 -182 135q-123 0 -191.5 -90.5t-68.5 -253.5q0 -164 75 -256t207 -92q78 0 157 26t136 72l76 -168q-151 -116 -385 -116q-236 0 -369 141t-133 393z" />
<glyph unicode="&#x442;" horiz-adv-x="909" d="M43 848v176h823v-176h-297v-848h-231v848h-295z" />
<glyph unicode="&#x443;" horiz-adv-x="1097" d="M47 1008q59 36 131 36q104 0 144 -114l167 -467l80 -283l76 283l193 581l217 -36l-424 -1149q-52 -140 -138 -232.5t-192 -118.5l-94 152q73 19 135.5 82t95.5 154l41 112q-61 17 -86 88z" />
<glyph unicode="&#x444;" horiz-adv-x="1746" d="M90 492q0 261 134 406.5t372 145.5q73 0 162 -28v551q65 30 119 30q52 0 82 -32.5t30 -89.5v-594q57 82 137.5 122.5t171.5 40.5q168 0 263.5 -135.5t95.5 -376.5q0 -261 -134 -406.5t-372 -145.5q-40 0 -162 4v-455h-231v614q-57 -82 -137.5 -122.5t-171.5 -40.5 q-168 0 -263.5 135.5t-95.5 376.5zM326 492q0 -155 52 -240.5t150 -85.5q96 0 163 78.5t67 228.5v369q-86 26 -144 26q-135 0 -211.5 -99t-76.5 -277zM989 160q106 -4 144 -4q135 0 211.5 99t76.5 277q0 155 -52 240.5t-150 85.5q-96 0 -163 -78.5t-67 -228.5v-391z" />
<glyph unicode="&#x445;" horiz-adv-x="1054" d="M20 0l373 520l-334 488q66 36 140 36q52 0 86 -19.5t67 -66.5l191 -274l243 360l213 -36l-335 -486l364 -506q-52 -36 -121 -36q-114 0 -174 83l-215 308l-258 -371h-240z" />
<glyph unicode="&#x446;" horiz-adv-x="1243" d="M141 0v1014q65 30 119 30q53 0 83 -32.5t30 -89.5v-746h440v838q65 30 119 30q52 0 82 -32.5t30 -89.5v-748h117v-389q-67 -31 -119 -31t-82 39t-30 105v102h-789z" />
<glyph unicode="&#x447;" horiz-adv-x="1112" d="M96 643v371q65 30 119 30q53 0 83 -32.5t30 -89.5v-234q0 -91 41 -142.5t114 -51.5q119 0 187.5 76.5t68.5 230.5v223h232v-1024h-232v471q-113 -164 -325 -164q-151 0 -234.5 88.5t-83.5 247.5z" />
<glyph unicode="&#x448;" horiz-adv-x="1693" d="M141 0v1014q65 30 119 30q53 0 83 -32.5t30 -89.5v-746h358v838q65 30 119 30q53 0 83 -32.5t30 -89.5v-746h358v838q65 30 119 30q52 0 82 -32.5t30 -89.5v-922h-1411z" />
<glyph unicode="&#x449;" horiz-adv-x="1753" d="M141 0v1014q65 30 119 30q53 0 83 -32.5t30 -89.5v-746h358v838q65 30 119 30q53 0 83 -32.5t30 -89.5v-746h358v838q65 30 119 30q52 0 82 -32.5t30 -89.5v-748h117v-389q-67 -31 -119 -31t-82 39t-30 105v102h-1297z" />
<glyph unicode="&#x44a;" horiz-adv-x="1134" d="M47 848v176h426v-348q98 4 148 4q215 0 334.5 -92.5t119.5 -257.5t-119.5 -257.5t-332.5 -92.5q-199 0 -381 20v848h-195zM473 147q47 -2 150 -2q104 0 162.5 49.5t58.5 135.5t-59.5 135t-163.5 49q-54 0 -148 -4v-363z" />
<glyph unicode="&#x44b;" horiz-adv-x="1492" d="M141 0v1014q65 30 119 30q53 0 83 -32.5t30 -89.5v-246q98 4 147 4q215 0 335 -92.5t120 -257.5q0 -164 -120 -257t-333 -93q-199 0 -381 20zM373 147q47 -2 149 -2q104 0 162.5 49.5t58.5 135.5t-59.5 135t-163.5 49q-53 0 -147 -4v-363zM1120 0v1014q65 30 119 30 q53 0 83 -32.5t30 -89.5v-922h-232z" />
<glyph unicode="&#x44c;" horiz-adv-x="1036" d="M141 0v1014q65 30 119 30q53 0 83 -32.5t30 -89.5v-246q98 4 147 4q215 0 335 -92.5t120 -257.5q0 -164 -120 -257t-333 -93q-199 0 -381 20zM373 147q47 -2 149 -2q104 0 162.5 49.5t58.5 135.5t-59.5 135t-163.5 49q-53 0 -147 -4v-363z" />
<glyph unicode="&#x44d;" horiz-adv-x="1030" d="M53 96l74 166q52 -45 127 -70.5t152 -25.5q125 0 202 73.5t92 206.5h-288v148h286q-17 126 -92 195t-196 69q-139 0 -256 -102l-66 159q154 129 346 129q227 0 366.5 -142t139.5 -388q0 -252 -133 -393t-369 -141q-234 0 -385 116z" />
<glyph unicode="&#x44e;" horiz-adv-x="1556" d="M141 0v1014q65 30 119 30q53 0 83 -32.5t30 -89.5v-310h178q23 205 140 318.5t308 113.5q220 0 344.5 -141t124.5 -391t-124.5 -391t-344.5 -141q-196 0 -313 117.5t-137 330.5h-176v-428h-232zM766 512q0 -163 61.5 -254.5t171.5 -91.5t172 91.5t62 254.5t-62 254.5 t-172 91.5t-171.5 -91.5t-61.5 -254.5z" />
<glyph unicode="&#x44f;" horiz-adv-x="1103" d="M29 0l309 426q-100 40 -153.5 115.5t-53.5 179.5q0 152 118.5 237.5t330.5 85.5q203 0 385 -20v-1024h-230v389q-98 -4 -149 -4h-29l-274 -385h-254zM360 711q0 -79 60 -123.5t166 -44.5q55 0 149 4v332q-47 2 -151 2t-164 -45.5t-60 -124.5z" />
<glyph unicode="&#x450;" horiz-adv-x="1079" d="M88 483q0 264 137 412.5t381 148.5q181 0 282 -88t101 -245q0 -154 -125 -240t-348 -86q-100 0 -199 18q15 -119 81.5 -182t183.5 -63q182 0 313 84l92 -148q-180 -114 -420 -114q-226 0 -352.5 132.5t-126.5 370.5zM281 1380l118 195l351 -264l-66 -117zM315 541 q102 -15 199 -15q118 0 184 46t66 128q0 75 -48 118.5t-134 43.5q-116 0 -186.5 -84.5t-80.5 -236.5z" />
<glyph unicode="&#x451;" horiz-adv-x="1079" d="M88 483q0 264 137 412.5t381 148.5q181 0 282 -88t101 -245q0 -154 -125 -240t-348 -86q-100 0 -199 18q15 -119 81.5 -182t183.5 -63q182 0 313 84l92 -148q-180 -114 -420 -114q-226 0 -352.5 132.5t-126.5 370.5zM266 1339q0 61 36 95t99 34t99.5 -34t36.5 -95 t-36.5 -95t-99.5 -34t-99 34t-36 95zM315 541q102 -15 199 -15q118 0 184 46t66 128q0 75 -48 118.5t-134 43.5q-116 0 -186.5 -84.5t-80.5 -236.5zM635 1339q0 61 36 95t99 34t99 -34t36 -95t-36 -95t-99 -34t-99 34t-36 95z" />
<glyph unicode="&#x452;" horiz-adv-x="1210" d="M6 1221v176h135v170q65 30 119 30q53 0 83 -32.5t30 -89.5v-78h342v-176h-342v-349q121 172 356 172q164 0 256 -99t92 -277v-805q0 -261 -235 -355l-105 168q109 51 109 232v715q0 111 -49 173t-138 62q-133 0 -209.5 -76.5t-76.5 -230.5v-551h-232v1221h-135z" />
<glyph unicode="&#x453;" horiz-adv-x="866" d="M141 0v1024h684v-176h-452v-848h-232zM285 1311l350 264l119 -195l-404 -186z" />
<glyph unicode="&#x454;" horiz-adv-x="1030" d="M90 514q0 246 139.5 388t366.5 142q192 0 346 -129l-65 -159q-117 102 -256 102q-121 0 -196.5 -69t-92.5 -195h286v-148h-288q15 -133 92.5 -206.5t202.5 -73.5q77 0 151.5 25.5t126.5 70.5l74 -166q-151 -116 -385 -116q-236 0 -369 141t-133 393z" />
<glyph unicode="&#x455;" horiz-adv-x="970" d="M70 90l63 150q128 -90 332 -90q97 0 150 30t53 88q0 29 -16.5 51.5t-53 41.5t-66.5 30t-86 29q-58 18 -97.5 33t-90 42.5t-81 59t-52 80t-21.5 106.5q0 142 105.5 222.5t290.5 80.5q211 0 364 -100l-88 -137q-137 70 -276 70q-77 0 -122.5 -28t-45.5 -81q0 -26 12 -48 t29.5 -37.5t48.5 -31t57.5 -25.5t69.5 -24q63 -20 102.5 -35t91 -43t81 -58.5t50.5 -77t21 -103.5q0 -143 -111 -224t-309 -81q-265 0 -405 110z" />
<glyph unicode="&#x456;" d="M121 1339q0 61 36 95t99 34t99 -34t36 -95t-36 -95t-99 -34t-99 34t-36 95zM141 0h232v1024h-232v-1024z" />
<glyph unicode="&#x457;" d="M-61 1339q0 61 36 95t99 34t99 -34t36 -95t-36 -95t-99 -34t-99 34t-36 95zM141 0v1024h232v-1024h-232zM307 1339q0 61 36 95t99 34t99.5 -34t36.5 -95t-36.5 -95t-99.5 -34t-99 34t-36 95z" />
<glyph unicode="&#x458;" d="M33 -324l104 -168q236 95 236 355v1161h-232v-1116q0 -181 -108 -232zM121 1339q0 61 36 95t99 34t99 -34t36 -95t-36 -95t-99 -34t-99 34t-36 95z" />
<glyph unicode="&#x459;" horiz-adv-x="1677" d="M37 139q137 50 149 240l41 645h791v-348q98 4 147 4q215 0 335 -92.5t120 -257.5q0 -164 -120 -257t-333 -93q-199 0 -381 20v848h-358l-31 -514q-9 -142 -73.5 -226.5t-182.5 -127.5zM1018 147q47 -2 149 -2q104 0 163 49.5t59 135.5t-60 135t-164 49q-53 0 -147 -4 v-363z" />
<glyph unicode="&#x45a;" horiz-adv-x="1724" d="M141 0v1014q65 30 119 30q53 0 83 -32.5t30 -89.5v-308h461v400q65 30 118 30t83 -32.5t30 -89.5v-246q98 4 147 4q215 0 335 -92.5t120 -257.5q0 -164 -120 -257t-333 -93q-198 0 -380 20v438h-461v-438h-232zM1065 147q47 -2 149 -2q104 0 163 49.5t59 135.5t-60 135 t-164 49q-53 0 -147 -4v-363z" />
<glyph unicode="&#x45b;" horiz-adv-x="1210" d="M6 1221v176h135v170q65 30 119 30q53 0 83 -32.5t30 -89.5v-78h342v-176h-342v-349q121 172 356 172q164 0 256 -99t92 -277v-668h-231v623q0 111 -49 173t-138 62q-133 0 -209.5 -76.5t-76.5 -230.5v-551h-232v1221h-135z" />
<glyph unicode="&#x45c;" horiz-adv-x="1132" d="M141 0v1014q65 30 119 30q53 0 83 -32.5t30 -89.5v-922h-232zM379 541l463 503l219 -36l-422 -457l498 -535q-63 -36 -150 -36q-59 0 -100 19.5t-80 63.5zM424 1311l350 264l119 -195l-404 -186z" />
<glyph unicode="&#x45d;" horiz-adv-x="1206" d="M141 0v1014q65 30 119 30q53 0 83 -32.5t30 -89.5v-496l461 420v168q65 30 118 30t83 -32.5t30 -89.5v-922h-231v598l-461 -420v-178h-232zM299 1380l119 195l350 -264l-66 -117z" />
<glyph unicode="&#x45e;" horiz-adv-x="1097" d="M47 1008q59 36 131 36q104 0 144 -114l167 -467l80 -283l76 283l193 581l217 -36l-424 -1149q-52 -140 -138 -232.5t-192 -118.5l-94 152q73 19 135.5 82t95.5 154l41 112q-61 17 -86 88zM233 1479h168q0 -65 41 -102.5t111 -37.5t111 37.5t41 102.5h167q0 -135 -84 -210 t-235 -75t-235.5 75t-84.5 210z" />
<glyph unicode="&#x45f;" horiz-adv-x="1185" d="M141 0v1014q65 30 119 30q53 0 83 -32.5t30 -89.5v-746h440v838q65 30 119 30q52 0 82 -32.5t30 -89.5v-922h-333v-215q-67 -31 -119 -31t-82.5 39t-30.5 105v102h-338z" />
<glyph unicode="&#x490;" horiz-adv-x="1003" d="M174 0v1475h547v215q56 30 110 30q59 0 95.5 -39t36.5 -104v-293h-547v-1284h-242z" />
<glyph unicode="&#x491;" horiz-adv-x="856" d="M141 0v1024h453v215q67 31 119 31t82 -39t30 -105v-278h-452v-848h-232z" />
<glyph unicode="&#x2000;" horiz-adv-x="1012" />
<glyph unicode="&#x2001;" horiz-adv-x="2025" />
<glyph unicode="&#x2002;" horiz-adv-x="1012" />
<glyph unicode="&#x2003;" horiz-adv-x="2025" />
<glyph unicode="&#x2004;" horiz-adv-x="675" />
<glyph unicode="&#x2005;" horiz-adv-x="506" />
<glyph unicode="&#x2006;" horiz-adv-x="337" />
<glyph unicode="&#x2007;" horiz-adv-x="337" />
<glyph unicode="&#x2008;" horiz-adv-x="253" />
<glyph unicode="&#x2009;" horiz-adv-x="405" />
<glyph unicode="&#x200a;" horiz-adv-x="112" />
<glyph unicode="&#x2010;" horiz-adv-x="854" d="M129 424v192h594v-192h-594z" />
<glyph unicode="&#x2011;" horiz-adv-x="854" d="M129 424v192h594v-192h-594z" />
<glyph unicode="&#x2012;" horiz-adv-x="854" d="M129 424v192h594v-192h-594z" />
<glyph unicode="&#x2013;" horiz-adv-x="1222" d="M129 424v192h963v-192h-963z" />
<glyph unicode="&#x2014;" horiz-adv-x="1806" d="M129 424v192h1546v-192h-1546z" />
<glyph unicode="&#x2018;" horiz-adv-x="489" d="M96 1169q0 246 236 326l37 -65q-77 -30 -115 -75.5t-49 -115.5q38 10 74 10q54 0 83 -35t29 -98q0 -70 -39 -109.5t-108 -39.5t-108.5 53.5t-39.5 148.5z" />
<glyph unicode="&#x2019;" horiz-adv-x="485" d="M100 1346q0 70 39.5 109.5t108.5 39.5t108 -54t39 -149q0 -245 -235 -325l-37 65q77 30 115 75.5t49 115.5q-42 -11 -74 -11q-54 0 -83.5 35.5t-29.5 98.5z" />
<glyph unicode="&#x201a;" d="M111 113q0 70 39 109.5t108 39.5t108.5 -54t39.5 -149q0 -245 -236 -325l-37 65q77 30 115 75.5t49 115.5q-38 -10 -74 -10q-54 0 -83 35t-29 98z" />
<glyph unicode="&#x201c;" horiz-adv-x="858" d="M96 1169q0 246 236 326l37 -65q-77 -30 -115 -75.5t-49 -115.5q38 10 74 10q54 0 83 -35t29 -98q0 -70 -39 -109.5t-108 -39.5t-108.5 53.5t-39.5 148.5zM465 1169q0 246 235 326l37 -65q-77 -30 -115 -75.5t-49 -115.5q38 10 74 10q54 0 83.5 -35t29.5 -98 q0 -70 -39.5 -109.5t-108.5 -39.5t-108 53.5t-39 148.5z" />
<glyph unicode="&#x201d;" horiz-adv-x="854" d="M100 1346q0 70 39.5 109.5t108.5 39.5t108 -54t39 -149q0 -245 -235 -325l-37 65q77 30 115 75.5t49 115.5q-42 -11 -74 -11q-54 0 -83.5 35.5t-29.5 98.5zM469 1346q0 70 39 109.5t108 39.5t108.5 -54t39.5 -149q0 -245 -236 -325l-36 65q77 30 114.5 75.5t48.5 115.5 q-42 -11 -73 -11q-54 0 -83.5 35.5t-29.5 98.5z" />
<glyph unicode="&#x201e;" horiz-adv-x="882" d="M111 113q0 70 39 109.5t108 39.5t108.5 -54t39.5 -149q0 -245 -236 -325l-37 65q77 30 115 75.5t49 115.5q-38 -10 -74 -10q-54 0 -83 35t-29 98zM479 113q0 70 39.5 109.5t108.5 39.5t108 -54t39 -149q0 -245 -235 -325l-37 65q77 30 115 75.5t49 115.5q-38 -10 -74 -10 q-54 0 -83.5 35t-29.5 98z" />
<glyph unicode="&#x2022;" horiz-adv-x="778" d="M162 604q0 100 60 156.5t167 56.5t167 -56.5t60 -156.5t-60 -155.5t-167 -55.5t-167 55.5t-60 155.5z" />
<glyph unicode="&#x2026;" horiz-adv-x="1374" d="M111 121q0 66 39 103.5t108 37.5t108.5 -37.5t39.5 -103.5t-39.5 -103.5t-108.5 -37.5t-108 37.5t-39 103.5zM541 121q0 66 39 103.5t108 37.5t108.5 -37.5t39.5 -103.5t-39.5 -103.5t-108.5 -37.5t-108 37.5t-39 103.5zM971 121q0 66 39 103.5t108 37.5t108.5 -37.5 t39.5 -103.5t-39.5 -103.5t-108.5 -37.5t-108 37.5t-39 103.5z" />
<glyph unicode="&#x202f;" horiz-adv-x="405" />
<glyph unicode="&#x2039;" horiz-adv-x="649" d="M76 512l319 477l164 -96l-217 -381l217 -381l-164 -96z" />
<glyph unicode="&#x203a;" horiz-adv-x="649" d="M90 131l217 381l-217 381l164 96l319 -477l-319 -477z" />
<glyph unicode="&#x205f;" horiz-adv-x="506" />
<glyph unicode="&#x20ac;" horiz-adv-x="1239" d="M74 541v172h129q20 265 163.5 411t387.5 146q209 0 376 -92l-90 -160q-118 65 -272 65q-140 0 -225.5 -95.5t-104.5 -270.5h416l-98 -176h-318q17 -179 103 -277t227 -98q83 0 161.5 23t131.5 63l78 -168q-150 -104 -385 -104q-244 0 -387.5 147t-163.5 414h-129z" />
<glyph unicode="&#x2122;" horiz-adv-x="1642" d="M70 1354v121h532v-121h-188v-617h-156v617h-188zM653 737l82 727q34 21 66 21q69 0 96 -66l203 -506l203 549q30 23 61 23q36 0 54 -19t24 -69l82 -660h-158l-53 475l-176 -475h-107l-184 457l-49 -457h-144z" />
<glyph unicode="&#x25fc;" horiz-adv-x="1044" d="M0 0v1044h1044v-1044h-1044z" />
</font>
</defs>
</svg>
