<?xml version="1.0" standalone="no"?>
<!DOCTYPE svg PUBLIC "-//W3C//DTD SVG 1.1//EN" "http://www.w3.org/Graphics/SVG/1.1/DTD/svg11.dtd" >
<svg xmlns="http://www.w3.org/2000/svg">
<metadata></metadata>
<defs>
<font id="bw_surco_demobold" horiz-adv-x="1208" >
<font-face units-per-em="2048" ascent="1577" descent="-471" />
<missing-glyph horiz-adv-x="440" />
<glyph horiz-adv-x="0" />
<glyph horiz-adv-x="682" />
<glyph unicode="&#xd;" horiz-adv-x="440" />
<glyph unicode=" "  horiz-adv-x="440" />
<glyph unicode="&#x09;" horiz-adv-x="440" />
<glyph unicode="&#xa0;" horiz-adv-x="440" />
<glyph unicode="!" horiz-adv-x="604" d="M111 164q0 86 50.5 135t141.5 49q89 0 140 -49t51 -135t-51 -135t-140 -49q-91 0 -141.5 49t-50.5 135zM141 1475l11 -973h305l10 973h-326z" />
<glyph unicode="&#x22;" horiz-adv-x="858" d="M90 1577h295l-37 -492h-225zM471 1577h295l-37 -492h-225z" />
<glyph unicode="#" horiz-adv-x="1466" d="M76 268l26 238h179l28 256h-182l27 237h182l29 263h305l-29 -263h266l29 263h305l-29 -263h179l-29 -237h-176l-29 -256h182l-28 -238h-181l-28 -268h-305l30 268h-268l-31 -268h-305l31 268h-178zM582 498h272l31 270h-273z" />
<glyph unicode="$" horiz-adv-x="1069" d="M74 106l76 185q81 -50 176 -75.5t178 -27.5v332q-225 80 -310 162t-85 225q0 163 105.5 262t289.5 111v195h88v-193q217 -13 369 -119l-105 -159q-137 65 -264 71v-301l24 -8q65 -21 113 -41t102.5 -53.5t89 -73t57.5 -98t23 -129.5q0 -170 -108 -273t-301 -116v-207h-88 v205q-118 3 -233 34t-197 92zM385 944q0 -52 29.5 -86.5t89.5 -58.5v274q-54 -11 -86.5 -44.5t-32.5 -84.5zM592 195q135 22 135 139q0 58 -32.5 93t-102.5 65v-297z" />
<glyph unicode="%" horiz-adv-x="1490" d="M74 954q0 154 79 241t220 87q140 0 219.5 -87t79.5 -241q0 -153 -79.5 -238t-219.5 -85q-141 0 -220 85t-79 238zM236 86l847 1196l168 -104l-848 -1198zM285 954q0 -73 23.5 -114t64.5 -41q40 0 63 41t23 114t-23 115.5t-63 42.5q-41 0 -64.5 -42t-23.5 -116zM819 303 q0 154 79 241t220 87q140 0 219.5 -87t79.5 -241q0 -153 -79.5 -238t-219.5 -85q-141 0 -220 85t-79 238zM1030 303q0 -73 23.5 -114.5t64.5 -41.5q40 0 63 41.5t23 114.5t-23 114.5t-63 41.5q-41 0 -64.5 -41.5t-23.5 -114.5z" />
<glyph unicode="&#x26;" horiz-adv-x="1472" d="M76 346q0 239 223 485q-84 147 -84 269q0 179 134.5 287t369.5 108q117 0 244.5 -43.5t240.5 -128.5l-119 -217q-162 127 -325 127q-96 0 -149.5 -41.5t-53.5 -118.5q0 -168 428 -579q82 152 129 389l250 -56q-63 -301 -201 -499l289 -252q-30 -39 -92 -67.5t-119 -28.5 q-62 0 -126.5 19t-108.5 60q-20 20 -56 52q-195 -131 -448 -131q-201 0 -313.5 96.5t-112.5 269.5zM385 371q0 -73 45.5 -113.5t130.5 -40.5q127 0 221 55q-192 186 -315 330q-82 -113 -82 -231z" />
<glyph unicode="'" horiz-adv-x="477" d="M90 1577h295l-37 -492h-225z" />
<glyph unicode="(" horiz-adv-x="690" d="M82 553q0 -279 72.5 -549.5t220.5 -495.5l262 113q-110 194 -161.5 443.5t-51.5 494.5t51.5 488t161.5 438l-262 112q-148 -225 -220.5 -495t-72.5 -549z" />
<glyph unicode=")" horiz-adv-x="690" d="M53 -379l262 -113q148 225 220.5 495.5t72.5 549.5t-72.5 549t-220.5 495l-262 -112q110 -195 161.5 -438t51.5 -488t-51.5 -494.5t-161.5 -443.5z" />
<glyph unicode="*" horiz-adv-x="798" d="M80 1266l55 182l189 -80l-19 209h189l-19 -205l189 80l61 -180l-199 -45l131 -150l-151 -112l-103 174l-102 -176l-156 110l131 150z" />
<glyph unicode="+" horiz-adv-x="1019" d="M76 397v238h274v315h318v-315h276v-238h-276v-315h-316v315h-276z" />
<glyph unicode="," horiz-adv-x="563" d="M90 154q0 92 51 143t142 51q89 0 140.5 -69t51.5 -189q0 -144 -78 -247.5t-231 -135.5l-43 78q101 30 150 80.5t65 130.5q-53 -16 -100 -16q-71 0 -109.5 45.5t-38.5 128.5z" />
<glyph unicode="-" horiz-adv-x="886" d="M115 393v264h655v-264h-655z" />
<glyph unicode="." horiz-adv-x="559" d="M88 164q0 86 51 135t142 49q89 0 139.5 -49t50.5 -135t-50.5 -135t-139.5 -49q-91 0 -142 49t-51 135z" />
<glyph unicode="/" horiz-adv-x="843" d="M59 -182l519 1779l208 -63l-518 -1780z" />
<glyph unicode="0" horiz-adv-x="1292" d="M86 631q0 308 148 479.5t413 171.5q264 0 412.5 -172t148.5 -479t-148.5 -479t-412.5 -172q-265 0 -413 171.5t-148 479.5zM408 631q0 -189 62.5 -294.5t176.5 -105.5q111 0 173.5 106t62.5 294q0 189 -63 295t-173 106q-114 0 -176.5 -105.5t-62.5 -295.5z" />
<glyph unicode="1" horiz-adv-x="823" d="M10 1042l416 220h258v-1262h-317v915l-230 -116z" />
<glyph unicode="2" horiz-adv-x="1169" d="M68 0v162q0 44 13 85.5t30.5 73.5t53 68.5t60.5 59t75 57t74.5 49.5t80.5 49q50 30 73.5 45t63.5 43t60 47t43 45.5t32.5 52.5t9.5 54q0 66 -49.5 103.5t-142.5 37.5q-157 0 -324 -131l-117 207q113 86 240.5 130t247.5 44q220 0 343.5 -101.5t123.5 -281.5 q0 -61 -27.5 -119t-58.5 -97t-99 -90t-102.5 -72.5t-115.5 -69.5q-17 -10 -25 -15q-59 -34 -87 -51.5t-68 -45.5t-60.5 -52t-28.5 -49h703v-238h-1022z" />
<glyph unicode="3" horiz-adv-x="1150" d="M35 -115l119 213q86 -49 154.5 -70.5t164.5 -21.5q133 0 207 58.5t74 160.5q0 111 -127 187.5t-404 122.5l398 489h-496v238h885v-193l-348 -401q415 -128 415 -457q0 -217 -150.5 -337t-420.5 -120q-254 0 -471 131z" />
<glyph unicode="4" horiz-adv-x="1236" d="M41 0v209l539 1073l284 -80l-497 -964h331v262l310 116v-378h196v-238h-196v-225h-318v225h-649z" />
<glyph unicode="5" horiz-adv-x="1200" d="M31 -82l127 211q101 -70 191 -96.5t194 -26.5q130 0 202 61t72 173q0 104 -70 166.5t-194 68.5l-422 19l90 768h819v-238h-514l-45 -301l152 -10q238 -17 372 -141t134 -328q0 -233 -153 -361.5t-427 -128.5q-137 0 -279.5 42t-248.5 122z" />
<glyph unicode="6" horiz-adv-x="1245" d="M84 717q0 366 171 572t472 206q219 0 416 -115l-92 -231q-119 94 -285 94q-138 0 -230 -91t-124 -259q113 59 262 59q231 0 360 -125.5t129 -347.5q0 -235 -141 -367t-393 -132q-258 0 -401.5 194t-143.5 543zM397 670q7 -207 72 -323t172 -116q93 0 147 63t54 175 q0 122 -62 192t-168 70q-117 0 -215 -61z" />
<glyph unicode="7" horiz-adv-x="1095" d="M49 1024v238h1002v-195l-592 -1352l-295 97l543 1212h-658z" />
<glyph unicode="8" horiz-adv-x="1265" d="M80 414q0 122 53.5 214t155.5 146q-160 110 -160 316q0 191 133.5 298t370.5 107t370.5 -107t133.5 -298q0 -206 -160 -316q102 -54 155.5 -146t53.5 -214q0 -204 -146.5 -319t-406.5 -115t-406.5 115t-146.5 319zM401 442q0 -99 61 -155t171 -56q107 0 167 56t60 155 q0 102 -60 159.5t-167 57.5q-110 0 -171 -57.5t-61 -159.5zM449 1059q0 -86 49 -134t135 -48q85 0 134.5 48t49.5 134q0 87 -49.5 135.5t-134.5 48.5q-87 0 -135.5 -48.5t-48.5 -135.5z" />
<glyph unicode="9" horiz-adv-x="1243" d="M80 776q0 229 143 367.5t393 138.5q257 0 400 -197.5t143 -552.5q0 -366 -171 -572t-472 -206q-219 0 -416 115l93 231q119 -94 284 -94q138 0 230 91t124 259q-113 -59 -262 -59q-231 0 -360 127.5t-129 351.5zM401 786q0 -124 62 -196t168 -72q108 0 215 62 q-8 212 -72.5 332t-171.5 120q-93 0 -147 -65.5t-54 -180.5z" />
<glyph unicode=":" horiz-adv-x="589" d="M104 164q0 86 51 135t142 49q89 0 139.5 -49t50.5 -135t-50.5 -135t-139.5 -49q-91 0 -142 49t-51 135zM104 872q0 86 51 135.5t142 49.5q89 0 139.5 -49.5t50.5 -135.5t-50.5 -135t-139.5 -49q-91 0 -142 49t-51 135z" />
<glyph unicode=";" horiz-adv-x="591" d="M104 154q0 92 51 143t142 51q89 0 140.5 -69t51.5 -189q0 -144 -78 -247.5t-231 -135.5l-43 78q101 30 150 80.5t65 130.5q-53 -16 -100 -16q-71 0 -109.5 45.5t-38.5 128.5zM104 872q0 86 51 135.5t142 49.5q89 0 139.5 -49.5t50.5 -135.5t-50.5 -135t-139.5 -49 q-91 0 -142 49t-51 135z" />
<glyph unicode="&#x3c;" horiz-adv-x="1054" d="M70 408v219l868 360v-252l-594 -217l594 -217v-252z" />
<glyph unicode="=" horiz-adv-x="1110" d="M121 209v237h868v-237h-868zM121 586v237h868v-237h-868z" />
<glyph unicode="&#x3e;" horiz-adv-x="1054" d="M117 49v252l594 217l-594 217v252l868 -360v-219z" />
<glyph unicode="?" horiz-adv-x="1046" d="M53 1323q99 84 218.5 128t230.5 44q224 0 351.5 -105.5t127.5 -285.5q0 -51 -13.5 -98.5t-35.5 -85t-52 -72.5t-60.5 -63.5t-62.5 -56.5q-14 -11 -20 -17q-52 -46 -75.5 -69.5t-46.5 -62.5t-23 -77h-305q0 56 14.5 107t33 86t52.5 74.5t56.5 60t62.5 53.5q64 53 97.5 100 t33.5 104q0 69 -46.5 107.5t-135.5 38.5q-142 0 -283 -127zM248 164q0 86 50.5 135t141.5 49q89 0 140 -49t51 -135t-51 -135t-140 -49q-91 0 -141.5 49t-50.5 135z" />
<glyph unicode="@" horiz-adv-x="2244" d="M80 553q0 492 274.5 768t763.5 276q491 0 766 -254.5t275 -709.5q0 -245 -122.5 -381.5t-342.5 -136.5q-142 0 -244 51.5t-156 150.5q-39 -95 -130 -148.5t-199 -53.5q-161 0 -249.5 110t-88.5 307q0 217 126.5 339t352.5 122q198 0 438 -35v-405q0 -91 40 -143t110 -52 q71 0 111 73t40 202q0 341 -192 531t-535 190q-340 0 -531.5 -212.5t-191.5 -588.5t191.5 -588.5t531.5 -212.5q136 0 280.5 34.5t266.5 94.5l109 -225q-127 -68 -308 -108t-348 -40q-489 0 -763.5 276.5t-274.5 768.5zM934 528q0 -87 35.5 -135.5t97.5 -48.5q80 0 127 61 t47 166v177q-39 2 -104 2q-91 0 -147 -59t-56 -163z" />
<glyph unicode="A" horiz-adv-x="1404" d="M-6 0l532 1452q85 43 174 43q167 0 232 -180l479 -1315h-352l-105 313h-538l-105 -313h-317zM500 567h370l-184 594z" />
<glyph unicode="B" horiz-adv-x="1347" d="M154 0v1475q297 20 469 20q279 0 435 -108t156 -300q0 -209 -190 -317q123 -51 187.5 -142t64.5 -216q0 -205 -161.5 -318.5t-450.5 -113.5q-243 0 -510 20zM485 238q170 -5 181 -5q126 0 196 53.5t70 147.5t-70 146.5t-196 52.5h-181v-395zM485 887h140q119 0 182 46.5 t63 131.5q0 84 -63 130t-182 46q-87 0 -140 -2v-352z" />
<glyph unicode="C" horiz-adv-x="1320" d="M84 737q0 228 75.5 398.5t222 265t347.5 94.5q356 0 524 -295l-305 -121q-82 154 -217 154q-137 0 -221 -126t-84 -370t101 -369.5t270 -125.5q199 0 366 135l129 -227q-91 -80 -231.5 -125t-298.5 -45q-319 0 -498.5 205t-179.5 552z" />
<glyph unicode="D" horiz-adv-x="1466" d="M154 0v1475q195 20 436 20q375 0 585.5 -200t210.5 -558q0 -357 -210.5 -557t-585.5 -200q-87 0 -229.5 7t-206.5 13zM485 238q88 -5 103 -5q214 0 333 133.5t119 370.5t-119 370.5t-333 133.5q-33 0 -103 -4v-999z" />
<glyph unicode="E" d="M154 0v1475h944v-254h-613v-338h541v-254h-541v-375h635v-254h-966z" />
<glyph unicode="F" horiz-adv-x="1112" d="M154 0v1475h899v-254h-568v-412h461v-254h-461v-555h-331z" />
<glyph unicode="G" horiz-adv-x="1456" d="M86 737q0 228 78.5 399t229.5 265t358 94q356 0 524 -295l-305 -121q-85 154 -228 154q-140 0 -227.5 -126.5t-87.5 -369.5q0 -244 90 -369.5t236 -125.5q270 0 270 276v80h-268v254h600v-829q-79 -43 -154 -43q-70 0 -115 41.5t-51 109.5q-62 -82 -152.5 -116.5 t-221.5 -34.5q-272 0 -424 205t-152 552z" />
<glyph unicode="H" horiz-adv-x="1560" d="M154 0v1452q79 43 153 43q81 0 129.5 -48.5t48.5 -125.5v-447h594v578q79 43 154 43q81 0 129.5 -48.5t48.5 -125.5v-1321h-332v618h-594v-618h-331z" />
<glyph unicode="I" horiz-adv-x="634" d="M154 0v1452q79 43 153 43q81 0 129.5 -48.5t48.5 -125.5v-1321h-331z" />
<glyph unicode="J" horiz-adv-x="849" d="M27 35q128 -55 286 -55q187 0 291.5 98t104.5 274v969q0 77 -49 125.5t-130 48.5q-77 0 -153 -43v-1034q0 -83 -36.5 -129.5t-104.5 -46.5q-94 0 -168 39z" />
<glyph unicode="K" horiz-adv-x="1378" d="M154 0v1452q79 43 153 43q81 0 129.5 -48.5t48.5 -125.5v-1321h-331zM496 745l477 750l309 -53l-432 -666l551 -743q-63 -53 -176 -53q-104 0 -158.5 27t-99.5 89z" />
<glyph unicode="L" horiz-adv-x="1097" d="M154 0v1452q79 43 153 43q81 0 129.5 -48.5t48.5 -125.5v-1057h578v-264h-909z" />
<glyph unicode="M" horiz-adv-x="1925" d="M82 0l164 1452q33 18 79.5 30.5t82.5 12.5q188 0 235 -137l342 -1020l350 1110q70 47 156 47q91 0 135 -40t57 -146l164 -1309h-338l-92 956l-317 -956h-303l-332 969l-80 -969h-303z" />
<glyph unicode="N" horiz-adv-x="1564" d="M154 0v1452q56 43 135 43q60 0 105.5 -28t92.5 -91l621 -825l-12 924h315v-1475h-260l-694 918l12 -918h-315z" />
<glyph unicode="O" horiz-adv-x="1609" d="M84 737q0 358 191 558t532 200q340 0 530.5 -200t190.5 -558q0 -357 -190.5 -557t-530.5 -200q-341 0 -532 199.5t-191 557.5zM426 737q0 -233 100 -364t279 -131q178 0 277.5 130.5t99.5 364.5t-99.5 365t-277.5 131t-278.5 -131.5t-100.5 -364.5z" />
<glyph unicode="P" horiz-adv-x="1310" d="M154 0v1475q242 20 510 20q285 0 444.5 -124.5t159.5 -346.5q0 -227 -159.5 -354t-446.5 -127q-51 0 -177 4v-547h-331zM485 799q31 0 90.5 -1t86.5 -1q126 0 194 60t68 167q0 102 -68.5 159.5t-191.5 57.5q-43 0 -179 -4v-438z" />
<glyph unicode="Q" horiz-adv-x="1609" d="M84 737q0 358 191 558t532 200q340 0 530.5 -200t190.5 -558q0 -303 -139 -494.5t-394 -244.5l11 -27q34 -90 120.5 -138t204.5 -54l-143 -221q-177 17 -306 104.5t-192 233.5l-41 96q-269 44 -417 238t-148 507zM426 737q0 -233 100 -364t279 -131q178 0 277.5 130.5 t99.5 364.5t-99.5 365t-277.5 131t-278.5 -131.5t-100.5 -364.5z" />
<glyph unicode="R" horiz-adv-x="1384" d="M154 0v1475q232 20 489 20q294 0 459.5 -115.5t165.5 -322.5q0 -241 -230 -357q200 -107 228 -356l18 -166q7 -74 39 -155q-98 -43 -190 -43q-79 0 -124.5 48t-54.5 132l-20 170q-28 239 -242 239h-207v-569h-331zM485 825h156q141 0 212 54t71 155q0 98 -71.5 152.5 t-209.5 54.5q-40 0 -158 -4v-412z" />
<glyph unicode="S" d="M61 133l105 234q160 -125 418 -125q100 0 155.5 39t55.5 108q0 34 -15 62.5t-34.5 47t-58.5 38t-67.5 30.5t-80.5 29q-55 19 -86 31t-83.5 36t-83 46t-68.5 58.5t-59 76t-35.5 95t-14.5 120.5q0 210 134 323t375 113q125 0 249 -36.5t227 -106.5l-140 -226 q-70 48 -156 77.5t-173 29.5q-84 0 -132.5 -34t-48.5 -93q0 -22 8 -41.5t18.5 -34t33 -30t39 -25t51 -23.5t53 -21t60.5 -22q41 -15 66.5 -24.5t65 -26.5t65 -31.5t59.5 -37.5t55.5 -45.5t44.5 -53.5t36.5 -65t22 -77t8.5 -91q0 -227 -148.5 -352t-414.5 -125 q-146 0 -277 39.5t-229 113.5z" />
<glyph unicode="T" horiz-adv-x="1159" d="M43 1221v254h1075v-254h-373v-1221h-331v1221h-371z" />
<glyph unicode="U" horiz-adv-x="1490" d="M139 547v905q79 43 154 43q81 0 129.5 -48.5t48.5 -125.5v-750q0 -156 72.5 -242.5t201.5 -86.5q140 0 217.5 86.5t77.5 242.5v881q76 43 150 43q76 0 121 -48.5t45 -125.5v-774q0 -268 -161.5 -417.5t-449.5 -149.5q-286 0 -446 149.5t-160 417.5z" />
<glyph unicode="V" horiz-adv-x="1417" d="M10 1442q29 24 76 38.5t94 14.5q86 0 136.5 -32t84.5 -130l244 -690l96 -319l93 325l272 846l299 -53l-524 -1442h-340z" />
<glyph unicode="W" horiz-adv-x="2076" d="M14 1442q27 24 74.5 38.5t93.5 14.5q91 0 142.5 -31.5t78.5 -130.5l199 -741l55 -270l48 292l192 828q28 24 78.5 38.5t99.5 14.5q75 0 131.5 -48.5t75.5 -129.5l164 -756l39 -252l53 273l215 913l301 -53l-416 -1442h-354l-188 766l-62 330l-57 -328l-182 -768h-346z " />
<glyph unicode="X" horiz-adv-x="1353" d="M-4 0l485 758l-436 684q29 24 77.5 38.5t98.5 14.5q99 0 159 -26t99 -91l217 -360l287 477l324 -53l-435 -684l478 -725q-27 -24 -72.5 -38.5t-93.5 -14.5q-119 0 -178.5 25.5t-100.5 90.5l-254 406l-311 -502h-344z" />
<glyph unicode="Y" horiz-adv-x="1310" d="M12 1442q29 24 79.5 38.5t101.5 14.5q95 0 148.5 -25.5t86.5 -91.5l182 -360l76 -184l74 192l227 469l307 -53l-473 -869v-573h-332v571z" />
<glyph unicode="Z" horiz-adv-x="1232" d="M51 0v211l594 862l109 148h-652v254h1028q39 -64 39 -127q0 -38 -20.5 -78.5t-71.5 -114.5l-514 -749l-119 -152h715v-254h-1108z" />
<glyph unicode="[" horiz-adv-x="745" d="M141 -471v2048h537v-254h-205v-1540h205v-254h-537z" />
<glyph unicode="\" horiz-adv-x="843" d="M57 1534l209 63l518 -1779l-209 -64z" />
<glyph unicode="]" horiz-adv-x="745" d="M68 -217h204v1540h-204v254h536v-2048h-536v254z" />
<glyph unicode="^" horiz-adv-x="985" d="M70 723l295 752h253l297 -752h-266l-157 483l-158 -483h-264z" />
<glyph unicode="_" horiz-adv-x="1277" d="M90 -57h1098v-168h-1098v168z" />
<glyph unicode="`" horiz-adv-x="526" d="M-20 1372l153 254l385 -301l-86 -151z" />
<glyph unicode="a" horiz-adv-x="1103" d="M47 297q0 163 131.5 253.5t372.5 90.5q84 0 127 -2q-5 90 -45 135t-135 45q-138 0 -265 -82l-127 197q201 123 445 123q211 0 327.5 -102t116.5 -287v-645q-95 -43 -170 -43q-59 0 -95.5 43.5t-41.5 115.5q-112 -159 -309 -159q-155 0 -243.5 84.5t-88.5 232.5zM348 326 q0 -52 30 -82.5t89 -30.5q90 0 150.5 60t60.5 184q-43 2 -119 2q-101 0 -156 -35t-55 -98z" />
<glyph unicode="b" horiz-adv-x="1239" d="M121 0v1554q95 43 170 43q69 0 108 -40.5t39 -106.5v-543q119 150 328 150q182 0 289.5 -135t107.5 -371q0 -270 -151 -420.5t-420 -150.5q-226 0 -471 20zM438 217q47 -2 123 -2q131 0 206 88.5t75 247.5q0 121 -50 188.5t-143 67.5q-211 0 -211 -291v-299z" />
<glyph unicode="c" horiz-adv-x="1052" d="M74 520q0 165 67.5 288t182.5 186t260 63q42 0 84 -7t91.5 -26.5t90 -51t76.5 -84.5t55 -122l-231 -92q-45 133 -150 133q-97 0 -151 -76t-54 -211q0 -136 64.5 -212.5t177.5 -76.5q72 0 148 24t130 64l101 -221q-163 -118 -406 -118q-252 0 -394 142.5t-142 397.5z" />
<glyph unicode="d" horiz-adv-x="1236" d="M74 483q0 271 151.5 422.5t421.5 151.5q34 0 152 -4v501q95 43 170 43q69 0 108 -40.5t39 -106.5v-1427q-95 -43 -170 -43q-59 0 -95.5 44.5t-41.5 116.5q-117 -161 -338 -161q-182 0 -289.5 134t-107.5 369zM395 483q0 -121 51 -187.5t144 -66.5q209 0 209 289v301 q-47 2 -123 2q-130 0 -205.5 -89.5t-75.5 -248.5z" />
<glyph unicode="e" horiz-adv-x="1107" d="M72 494q0 265 145 414t404 149q194 0 302.5 -92t108.5 -254q0 -155 -135 -242.5t-373 -87.5q-45 0 -135 8q36 -172 223 -172q166 0 293 82l125 -199q-190 -120 -440 -120q-245 0 -381.5 135.5t-136.5 378.5zM383 567q71 -6 137 -6q98 0 151.5 35t53.5 100q0 53 -35.5 84 t-99.5 31q-86 0 -140.5 -64t-66.5 -180z" />
<glyph unicode="f" horiz-adv-x="843" d="M55 799v237h152v209q0 167 102 259.5t287 92.5q165 0 299 -55l-41 -235q-74 39 -174 39q-73 0 -114.5 -42t-41.5 -114v-154h293v-237h-293v-799h-317v799h-152z" />
<glyph unicode="g" horiz-adv-x="1236" d="M74 483q0 271 151.5 422.5t421.5 151.5q212 0 469 -21v-1097q0 -204 -127.5 -317.5t-357.5 -113.5q-270 0 -486 121l127 199q145 -82 306 -82q123 0 172 62t49 188v131q-117 -147 -328 -147q-182 0 -289.5 134t-107.5 369zM395 483q0 -121 51 -187.5t144 -66.5 q209 0 209 289v301q-47 2 -123 2q-130 0 -205.5 -89.5t-75.5 -248.5z" />
<glyph unicode="h" horiz-adv-x="1239" d="M121 0v1554q95 43 170 43q69 0 108 -40.5t39 -106.5v-547q117 154 326 154q172 0 267 -102t95 -287v-668h-317v612q0 91 -38 143t-109 52q-109 0 -166.5 -67.5t-57.5 -223.5v-516h-317z" />
<glyph unicode="i" horiz-adv-x="559" d="M100 1366q0 79 47 122.5t129 43.5t129.5 -43.5t47.5 -122.5q0 -81 -47 -125.5t-130 -44.5q-82 0 -129 44.5t-47 125.5zM121 0h317v1036h-317v-1036z" />
<glyph unicode="j" horiz-adv-x="559" d="M14 -264l142 -228q64 24 112.5 56t88 78t60.5 110.5t21 145.5v1138h-317v-1081q0 -179 -107 -219zM102 1366q0 79 47.5 122.5t129.5 43.5t129 -43.5t47 -122.5q0 -81 -47 -125.5t-129 -44.5q-83 0 -130 44.5t-47 125.5z" />
<glyph unicode="k" horiz-adv-x="1206" d="M121 0v1554q95 43 170 43q69 0 108 -40.5t39 -106.5v-1450h-317zM444 545l400 512l293 -47l-353 -443l445 -540q-86 -47 -201 -47q-83 0 -135.5 24t-91.5 76z" />
<glyph unicode="l" horiz-adv-x="643" d="M115 281v1273q95 43 170 43q69 0 108 -40.5t39 -106.5v-1143q0 -37 19.5 -56.5t54.5 -19.5q41 0 88 15l41 -201q-101 -65 -229 -65q-137 0 -214 78.5t-77 222.5z" />
<glyph unicode="m" horiz-adv-x="1763" d="M121 0v1014q95 43 170 43q59 0 95 -43t42 -115q105 158 295 158q187 0 270 -154q66 84 147 119t187 35q154 0 239 -102t85 -287v-668h-318v612q0 195 -110 195q-179 0 -179 -291v-516h-317v612q0 92 -27.5 143.5t-83.5 51.5q-178 0 -178 -291v-516h-317z" />
<glyph unicode="n" horiz-adv-x="1239" d="M121 0v1014q95 43 170 43q61 0 97.5 -46t39.5 -122q118 168 336 168q172 0 267 -102t95 -287v-668h-317v612q0 91 -38 143t-109 52q-109 0 -166.5 -67.5t-57.5 -223.5v-516h-317z" />
<glyph unicode="o" horiz-adv-x="1249" d="M72 518q0 254 145 396.5t406 142.5t407 -142.5t146 -396.5t-146 -396t-407 -142t-406 142t-145 396zM395 518q0 -135 61.5 -211t168.5 -76t168 76t61 211t-61 212t-168 77t-168.5 -77t-61.5 -212z" />
<glyph unicode="p" horiz-adv-x="1239" d="M121 -471v1485q95 43 170 43q60 0 96 -44.5t41 -119.5q117 164 338 164q182 0 289.5 -135t107.5 -371q0 -270 -151 -420.5t-420 -150.5q-36 0 -154 4v-455h-317zM438 217q47 -2 123 -2q131 0 206 88.5t75 247.5q0 121 -50 188.5t-143 67.5q-211 0 -211 -291v-299z" />
<glyph unicode="q" horiz-adv-x="1236" d="M74 483q0 271 151.5 422.5t421.5 151.5q212 0 469 -21v-1507h-317v598q-117 -147 -328 -147q-182 0 -289.5 134t-107.5 369zM395 483q0 -121 51 -187.5t144 -66.5q209 0 209 289v301q-47 2 -123 2q-130 0 -205.5 -89.5t-75.5 -248.5z" />
<glyph unicode="r" horiz-adv-x="868" d="M121 0v1014q95 43 170 43q64 0 100.5 -49.5t36.5 -130.5q103 180 287 180q75 0 157 -35l-92 -281q-56 37 -129 37q-104 0 -158.5 -80t-54.5 -264v-434h-317z" />
<glyph unicode="s" horiz-adv-x="1009" d="M57 106l84 199q75 -52 167.5 -76t174.5 -24q152 0 152 82q0 17 -11 31.5t-26.5 25t-45 22t-53 19t-63.5 18.5q-55 16 -96.5 31.5t-91 43t-81.5 60t-53.5 81.5t-21.5 108q0 155 114.5 242.5t311.5 87.5q231 0 406 -119l-115 -176q-145 74 -281 74q-56 0 -91.5 -18.5 t-35.5 -53.5q0 -40 43.5 -66t135.5 -55q45 -14 77 -25t72.5 -28.5t69 -35t58 -43.5t47 -54.5t29 -66t11.5 -81.5q0 -154 -118 -241.5t-328 -87.5q-281 0 -441 126z" />
<glyph unicode="t" horiz-adv-x="878" d="M45 799v237h162v234q95 43 170 43q63 0 100 -41t37 -107v-129h311v-237h-311v-414q0 -72 36 -113t103 -41q88 0 150 39l41 -235q-125 -55 -279 -55q-175 0 -271.5 92.5t-96.5 259.5v467h-152z" />
<glyph unicode="u" horiz-adv-x="1212" d="M111 369v645q95 43 170 43q69 0 108 -41t39 -107v-483q0 -92 38 -143.5t109 -51.5q100 0 151.5 66.5t51.5 220.5v496q95 43 170 43q69 0 108.5 -41t39.5 -107v-886q-95 -43 -170 -43q-60 0 -96.5 44.5t-41.5 118.5q-110 -163 -315 -163q-172 0 -267 102t-95 287z" />
<glyph unicode="v" horiz-adv-x="1122" d="M29 1010q85 47 192 47q138 0 180 -148l125 -430l47 -231l52 213l170 596l297 -47l-361 -1010h-340z" />
<glyph unicode="w" horiz-adv-x="1703" d="M25 1010q34 20 85 33.5t97 13.5q151 0 190 -148l107 -401l51 -264l61 278l125 488q24 20 62.5 33.5t75.5 13.5q120 0 161 -148l107 -403l47 -242l57 250l148 543l278 -47l-334 -1010h-319l-147 535l-27 141l-25 -131l-137 -545h-323z" />
<glyph unicode="x" horiz-adv-x="1105" d="M-2 0l371 528l-318 482q92 47 193 47q71 0 116.5 -23t81.5 -80l133 -200l195 303l289 -47l-322 -478l357 -505q-70 -47 -168 -47q-165 0 -230 100l-159 248l-213 -328h-326z" />
<glyph unicode="y" horiz-adv-x="1130" d="M35 1010q88 47 182 47q144 0 191 -148l106 -338l76 -323l76 323l137 486l299 -47l-402 -1121q-57 -158 -159 -262t-213 -119l-129 203q71 11 142 78.5t101 161.5l21 63q-74 26 -109 117z" />
<glyph unicode="z" horiz-adv-x="1026" d="M59 0v213l338 403l164 183h-469v237h821q41 -70 41 -121q0 -42 -18 -79.5t-64 -90.5l-342 -391l-114 -116h547v-238h-904z" />
<glyph unicode="{" horiz-adv-x="700" d="M59 424v262q65 0 102.5 32t37.5 89v401q0 81 21 145.5t60.5 110.5t88 77.5t112.5 55.5l156 -227q-49 -19 -79 -73t-30 -146v-371q0 -146 -129 -227q129 -78 129 -227v-371q0 -92 30 -146t79 -73l-156 -228q-64 24 -112.5 56t-88 78t-60.5 110.5t-21 145.5v403 q0 57 -37.5 90t-102.5 33z" />
<glyph unicode="|" horiz-adv-x="514" d="M141 -471v2048h232v-2048h-232z" />
<glyph unicode="}" horiz-adv-x="700" d="M63 -264q49 19 79 73t30 146v371q0 149 129 227q-129 81 -129 227v371q0 92 -30 146t-79 73l156 227q64 -24 112.5 -55.5t88.5 -77.5t61 -110.5t21 -145.5v-401q0 -57 37 -89t102 -32v-262q-64 0 -101.5 -33t-37.5 -90v-403q0 -107 -39 -186.5t-98.5 -125t-145.5 -78.5z " />
<glyph unicode="~" horiz-adv-x="1226" d="M94 446q35 94 116.5 156t170.5 62q86 0 182.5 -21.5t182.5 -43t147 -21.5q97 0 162 100l80 -109q-52 -104 -133 -160.5t-173 -56.5q-84 0 -176 23t-173 46t-140 23q-93 0 -162 -106z" />
<glyph unicode="&#xa2;" horiz-adv-x="1101" d="M92 520q0 237 132.5 380.5t340.5 154.5v129h88v-129q52 -6 100 -22.5t97.5 -48t89 -87.5t59.5 -131l-231 -92q-37 109 -115 129v-572h2q72 0 148.5 24t130.5 64l100 -221q-151 -111 -381 -118v-127h-88v129q-223 19 -348 160t-125 378zM414 520q0 -109 39.5 -182 t111.5 -98v563q-72 -17 -111.5 -91.5t-39.5 -191.5z" />
<glyph unicode="&#xa3;" horiz-adv-x="1114" d="M94 0v223h37q51 0 79 62.5t28 171.5v71h-138v220h138v167q0 173 112 270t312 97q207 0 350 -78l-29 -231q-44 25 -111 42t-129 17q-93 0 -140.5 -46t-47.5 -126v-112h324v-220h-324v-133q0 -87 -39 -157h492v-238h-914z" />
<glyph unicode="&#xa5;" horiz-adv-x="1232" d="M57 1231q28 22 76.5 36.5t97.5 14.5q87 0 140.5 -27t81.5 -84l190 -378l238 489l293 -51l-365 -684h184v-217h-217v-330h-317v330h-219v217h186z" />
<glyph unicode="&#xa8;" horiz-adv-x="980" d="M102 1366q0 79 47.5 122.5t129.5 43.5t129 -43.5t47 -122.5q0 -81 -47 -125.5t-129 -44.5q-83 0 -130 44.5t-47 125.5zM526 1366q0 79 47 122.5t129 43.5t129.5 -43.5t47.5 -122.5q0 -81 -47 -125.5t-130 -44.5q-82 0 -129 44.5t-47 125.5z" />
<glyph unicode="&#xa9;" horiz-adv-x="1857" d="M82 737q0 358 223.5 558t624.5 200q395 0 619.5 -200.5t224.5 -557.5t-224 -557t-620 -200q-401 0 -624.5 199.5t-223.5 557.5zM350 737q0 -259 153 -404t425 -145t426.5 145t154.5 404t-154.5 404t-426.5 145t-425 -145t-153 -404zM532 741q0 185 111.5 294.5 t278.5 109.5q32 0 64 -5t71 -20.5t70.5 -40t59.5 -67.5t42 -99l-189 -75q-29 96 -102 96q-63 0 -97 -50.5t-34 -142.5t43 -143t121 -51q54 0 110.5 16.5t96.5 44.5l79 -182q-120 -90 -311 -90q-195 0 -304.5 107t-109.5 298z" />
<glyph unicode="&#xab;" horiz-adv-x="1167" d="M63 512l330 506l228 -133l-213 -373l213 -373l-228 -133zM535 512l329 506l228 -133l-213 -373l213 -373l-228 -133z" />
<glyph unicode="&#xad;" horiz-adv-x="886" d="M115 393v264h655v-264h-655z" />
<glyph unicode="&#xae;" horiz-adv-x="1071" d="M80 1106q0 183 120.5 286t334.5 103t334 -103t120 -286t-120 -286t-334 -103t-334.5 103t-120.5 286zM197 1106q0 -141 90 -220t250 -79t250 79t90 220t-90 220t-250 79t-250 -79t-90 -220zM379 907v398q50 6 141 6q89 0 140 -33t51 -94q0 -62 -56 -97q53 -27 56 -88 l2 -28q3 -32 12 -51q-40 -19 -70 -19q-29 0 -45 17t-18 45l-2 32q-3 47 -53 47h-35v-135h-123zM502 1133h26q56 0 56 43q0 45 -64 45h-18v-88z" />
<glyph unicode="&#xb4;" horiz-adv-x="555" d="M8 1325l385 301l154 -254l-453 -198z" />
<glyph unicode="&#xb8;" horiz-adv-x="516" d="M29 -442l55 120q50 -36 123 -36q106 0 106 71q0 85 -217 113l131 207h191l-92 -129q163 -54 163 -195q0 -97 -69 -149t-193 -52q-104 0 -198 50z" />
<glyph unicode="&#xbb;" horiz-adv-x="1167" d="M76 139l213 373l-213 373l227 133l330 -506l-330 -506zM547 139l213 373l-213 373l227 133l330 -506l-330 -506z" />
<glyph unicode="&#xd3;" horiz-adv-x="1609" d="M84 737q0 358 191 558t532 200q340 0 530.5 -200t190.5 -558q0 -357 -190.5 -557t-530.5 -200q-341 0 -532 199.5t-191 557.5zM426 737q0 -233 100 -364t279 -131q178 0 277.5 130.5t99.5 364.5t-99.5 365t-277.5 131t-278.5 -131.5t-100.5 -364.5zM598 1763l385 301 l154 -254l-453 -198z" />
<glyph unicode="&#xf3;" horiz-adv-x="1249" d="M72 518q0 254 145 396.5t406 142.5t407 -142.5t146 -396.5t-146 -396t-407 -142t-406 142t-145 396zM395 518q0 -135 61.5 -211t168.5 -76t168 76t61 211t-61 212t-168 77t-168.5 -77t-61.5 -212zM420 1325l385 301l153 -254l-452 -198z" />
<glyph unicode="&#x104;" horiz-adv-x="1404" d="M-6 0l532 1452q85 43 174 43q167 0 232 -180l479 -1315q-217 -189 -217 -293q0 -65 76 -65q70 0 131 34l33 -116q-106 -52 -220 -52q-92 0 -145 47t-53 130q0 80 60 153.5t179 161.5h-196l-105 313h-538l-105 -313h-317zM500 567h370l-184 574z" />
<glyph unicode="&#x105;" horiz-adv-x="1103" d="M47 297q0 163 131.5 253.5t372.5 90.5q84 0 127 -2q-5 90 -45 135t-135 45q-138 0 -265 -82l-127 197q201 123 445 123q211 0 327.5 -102t116.5 -287v-645q-217 -201 -217 -316q0 -65 76 -65q67 0 131 34l33 -116q-106 -52 -219 -52q-94 0 -146.5 47t-52.5 130 q0 77 50 148t147 151q-47 10 -75.5 51.5t-33.5 103.5q-112 -159 -309 -159q-155 0 -243.5 84.5t-88.5 232.5zM348 326q0 -52 30 -82.5t89 -30.5q90 0 150.5 60t60.5 184q-43 2 -119 2q-101 0 -156 -35t-55 -98z" />
<glyph unicode="&#x106;" horiz-adv-x="1320" d="M84 737q0 228 75.5 398.5t222 265t347.5 94.5q356 0 524 -295l-305 -121q-82 154 -217 154q-137 0 -221 -126t-84 -370t101 -369.5t270 -125.5q199 0 366 135l129 -227q-91 -80 -231.5 -125t-298.5 -45q-319 0 -498.5 205t-179.5 552zM524 1763l385 301l154 -254 l-453 -198z" />
<glyph unicode="&#x107;" horiz-adv-x="1052" d="M74 520q0 165 67.5 288t182.5 186t260 63q42 0 84 -7t91.5 -26.5t90 -51t76.5 -84.5t55 -122l-231 -92q-45 133 -150 133q-97 0 -151 -76t-54 -211q0 -136 64.5 -212.5t177.5 -76.5q72 0 148 24t130 64l101 -221q-163 -118 -406 -118q-252 0 -394 142.5t-142 397.5z M377 1325l385 301l153 -254l-452 -198z" />
<glyph unicode="&#x118;" d="M154 0v1475h944v-254h-613v-338h541v-254h-541v-375h635v-254q-217 -189 -217 -293q0 -65 76 -65q70 0 131 34l33 -116q-106 -52 -219 -52q-93 0 -146 47t-53 130q0 80 60 153t180 162h-811z" />
<glyph unicode="&#x119;" horiz-adv-x="1107" d="M72 494q0 265 145 414t404 149q194 0 302.5 -92t108.5 -254q0 -155 -135 -242.5t-373 -87.5q-45 0 -135 8q36 -172 223 -172q166 0 293 82l125 -199l-10 -6q-402 -249 -402 -387q0 -65 76 -65q67 0 131 34l33 -116q-106 -52 -219 -52q-94 0 -146.5 47t-52.5 130 q0 145 219 297q-23 -2 -69 -2q-245 0 -381.5 135.5t-136.5 378.5zM383 567q71 -6 137 -6q98 0 151.5 35t53.5 100q0 53 -35.5 84t-99.5 31q-86 0 -140.5 -64t-66.5 -180z" />
<glyph unicode="&#x141;" horiz-adv-x="1120" d="M39 514v225l137 58v655q79 43 154 43q81 0 129.5 -48.5t48.5 -125.5v-408l328 144v-226l-328 -143v-424h577v-264h-909v569z" />
<glyph unicode="&#x142;" horiz-adv-x="751" d="M76 514v225l104 60v755q95 43 170 43q69 0 108.5 -40.5t39.5 -106.5v-498l184 105v-226l-184 -104v-420q0 -76 73 -76q41 0 88 15l41 -201q-101 -65 -229 -65q-137 0 -214 78.5t-77 222.5v292z" />
<glyph unicode="&#x143;" horiz-adv-x="1564" d="M154 0v1452q56 43 135 43q60 0 105.5 -28t92.5 -91l621 -825l-12 924h315v-1475h-260l-694 918l12 -918h-315zM578 1763l385 301l153 -254l-452 -198z" />
<glyph unicode="&#x144;" horiz-adv-x="1239" d="M121 0v1014q95 43 170 43q61 0 97.5 -46t39.5 -122q118 168 336 168q172 0 267 -102t95 -287v-668h-317v612q0 91 -38 143t-109 52q-109 0 -166.5 -67.5t-57.5 -223.5v-516h-317zM420 1325l385 301l153 -254l-452 -198z" />
<glyph unicode="&#x15a;" d="M61 133l105 234q160 -125 418 -125q100 0 155.5 39t55.5 108q0 34 -15 62.5t-34.5 47t-58.5 38t-67.5 30.5t-80.5 29q-55 19 -86 31t-83.5 36t-83 46t-68.5 58.5t-59 76t-35.5 95t-14.5 120.5q0 210 134 323t375 113q125 0 249 -36.5t227 -106.5l-140 -226 q-70 48 -156 77.5t-173 29.5q-84 0 -132.5 -34t-48.5 -93q0 -22 8 -41.5t18.5 -34t33 -30t39 -25t51 -23.5t53 -21t60.5 -22q41 -15 66.5 -24.5t65 -26.5t65 -31.5t59.5 -37.5t55.5 -45.5t44.5 -53.5t36.5 -65t22 -77t8.5 -91q0 -227 -148.5 -352t-414.5 -125 q-146 0 -277 39.5t-229 113.5zM391 1763l385 301l154 -254l-453 -198z" />
<glyph unicode="&#x15b;" horiz-adv-x="1009" d="M57 106l84 199q75 -52 167.5 -76t174.5 -24q152 0 152 82q0 17 -11 31.5t-26.5 25t-45 22t-53 19t-63.5 18.5q-55 16 -96.5 31.5t-91 43t-81.5 60t-53.5 81.5t-21.5 108q0 155 114.5 242.5t311.5 87.5q231 0 406 -119l-115 -176q-145 74 -281 74q-56 0 -91.5 -18.5 t-35.5 -53.5q0 -40 43.5 -66t135.5 -55q45 -14 77 -25t72.5 -28.5t69 -35t58 -43.5t47 -54.5t29 -66t11.5 -81.5q0 -154 -118 -241.5t-328 -87.5q-281 0 -441 126zM297 1325l385 301l154 -254l-453 -198z" />
<glyph unicode="&#x179;" horiz-adv-x="1232" d="M51 0v211l594 862l109 148h-652v254h1028q39 -64 39 -127q0 -38 -20.5 -78.5t-71.5 -114.5l-514 -749l-119 -152h715v-254h-1108zM401 1763l385 301l154 -254l-453 -198z" />
<glyph unicode="&#x17a;" horiz-adv-x="1026" d="M59 0v213l338 403l164 183h-469v237h821q41 -70 41 -121q0 -42 -18 -79.5t-64 -90.5l-342 -391l-114 -116h547v-238h-904zM307 1325l385 301l154 -254l-453 -198z" />
<glyph unicode="&#x17b;" horiz-adv-x="1232" d="M51 0v211l594 862l109 148h-652v254h1028q39 -64 39 -127q0 -38 -20.5 -78.5t-71.5 -114.5l-514 -749l-119 -152h715v-254h-1108zM430 1804q0 79 47 122.5t129 43.5t129 -43.5t47 -122.5q0 -81 -47 -125.5t-129 -44.5t-129 44.5t-47 125.5z" />
<glyph unicode="&#x17c;" horiz-adv-x="1026" d="M59 0v213l338 403l164 183h-469v237h821q41 -70 41 -121q0 -42 -18 -79.5t-64 -90.5l-342 -391l-114 -116h547v-238h-904zM336 1366q0 79 47 122.5t129 43.5t129 -43.5t47 -122.5q0 -81 -47 -125.5t-129 -44.5t-129 44.5t-47 125.5z" />
<glyph unicode="&#x2c6;" horiz-adv-x="782" d="M8 1325l381 281l2 4h2l2 -4l381 -281l-86 -151l-297 151l-299 -151z" />
<glyph unicode="&#x2da;" horiz-adv-x="571" d="M8 1393q0 118 73.5 183.5t203.5 65.5q131 0 203.5 -65.5t72.5 -183.5q0 -117 -73 -182.5t-203 -65.5q-129 0 -203 65.5t-74 182.5zM186 1393q0 -49 27.5 -78t73.5 -29t72 28.5t26 78.5q0 51 -26 79.5t-72 28.5t-73.5 -28.5t-27.5 -79.5z" />
<glyph unicode="&#x2dc;" horiz-adv-x="917" d="M68 1294q32 86 107.5 144.5t154.5 58.5q59 0 155 -38t138 -38q86 0 153 70l78 -100q-52 -98 -126 -150.5t-159 -52.5q-59 0 -147 39t-127 39q-81 0 -150 -72z" />
<glyph unicode="&#x400;" d="M154 0v1475h944v-254h-613v-338h541v-254h-541v-375h635v-254h-966zM299 1810l154 254l385 -301l-86 -151z" />
<glyph unicode="&#x401;" d="M154 0v1475h944v-254h-613v-338h541v-254h-541v-375h635v-254h-966zM244 1804q0 79 47 122.5t129 43.5t129 -43.5t47 -122.5q0 -81 -47 -125.5t-129 -44.5t-129 44.5t-47 125.5zM668 1804q0 79 47 122.5t129 43.5t129 -43.5t47 -122.5q0 -81 -47 -125.5t-129 -44.5 t-129 44.5t-47 125.5z" />
<glyph unicode="&#x402;" horiz-adv-x="1603" d="M43 1221v254h1075v-254h-411v-408q72 112 177 168.5t230 56.5q203 0 316.5 -140t113.5 -390q0 -249 -153 -388.5t-428 -139.5v262q117 0 183 70t66 196q0 127 -53.5 197.5t-148.5 70.5q-140 0 -221.5 -114t-81.5 -340v-322h-332v1221h-332z" />
<glyph unicode="&#x403;" horiz-adv-x="1054" d="M154 0v1475h868v-254h-537v-1221h-331zM328 1763l385 301l153 -254l-452 -198z" />
<glyph unicode="&#x404;" horiz-adv-x="1325" d="M84 737q0 347 171 552.5t472 205.5q355 0 526 -295l-307 -121q-79 154 -217 154q-115 0 -193.5 -90t-101.5 -266h506v-256h-508q24 -187 121 -283t242 -96q95 0 191.5 35t174.5 100l129 -227q-89 -79 -230 -124.5t-298 -45.5q-320 0 -499 205t-179 552z" />
<glyph unicode="&#x405;" d="M61 133l105 234q160 -125 418 -125q100 0 155.5 39t55.5 108q0 34 -15 62.5t-34.5 47t-58.5 38t-67.5 30.5t-80.5 29q-55 19 -86 31t-83.5 36t-83 46t-68.5 58.5t-59 76t-35.5 95t-14.5 120.5q0 210 134 323t375 113q125 0 249 -36.5t227 -106.5l-140 -226 q-70 48 -156 77.5t-173 29.5q-84 0 -132.5 -34t-48.5 -93q0 -22 8 -41.5t18.5 -34t33 -30t39 -25t51 -23.5t53 -21t60.5 -22q41 -15 66.5 -24.5t65 -26.5t65 -31.5t59.5 -37.5t55.5 -45.5t44.5 -53.5t36.5 -65t22 -77t8.5 -91q0 -227 -148.5 -352t-414.5 -125 q-146 0 -277 39.5t-229 113.5z" />
<glyph unicode="&#x406;" horiz-adv-x="634" d="M154 0v1452q79 43 153 43q81 0 129.5 -48.5t48.5 -125.5v-1321h-331z" />
<glyph unicode="&#x407;" horiz-adv-x="634" d="M-70 1804q0 79 47 122.5t129 43.5t129.5 -43.5t47.5 -122.5q0 -81 -47 -125.5t-130 -44.5q-82 0 -129 44.5t-47 125.5zM154 0v1452q79 43 153 43q81 0 129.5 -48.5t48.5 -125.5v-1321h-331zM354 1804q0 79 47 122.5t129 43.5t129.5 -43.5t47.5 -122.5q0 -81 -47 -125.5 t-130 -44.5q-82 0 -129 44.5t-47 125.5z" />
<glyph unicode="&#x408;" horiz-adv-x="849" d="M27 35q128 -55 286 -55q187 0 291.5 98t104.5 274v969q0 77 -49 125.5t-130 48.5q-77 0 -153 -43v-1034q0 -83 -36.5 -129.5t-104.5 -46.5q-94 0 -168 39z" />
<glyph unicode="&#x409;" horiz-adv-x="2215" d="M35 215q96 38 140.5 108.5t51.5 208.5l54 943h1118v-592q118 4 178 4q280 0 436 -125t156 -350q0 -205 -156 -318.5t-436 -113.5q-243 0 -510 20v1221h-502l-41 -746q-8 -140 -52 -238.5t-114 -156.5t-178 -100zM1399 238q170 -5 180 -5q116 0 181 53.5t65 147.5 t-64.5 146.5t-181.5 52.5q-62 0 -180 -4v-391z" />
<glyph unicode="&#x40a;" horiz-adv-x="2230" d="M154 0v1452q79 43 153 43q81 0 129.5 -48.5t48.5 -125.5v-447h594v578q79 43 154 43h2q81 0 129.5 -48.5t48.5 -125.5v-438q118 4 178 4q280 0 436 -125t156 -350q0 -205 -156 -318.5t-436 -113.5q-243 0 -510 20h-2v618h-594v-618h-331zM1413 238q170 -5 180 -5 q116 0 181 53.5t65 147.5t-64.5 146.5t-181.5 52.5q-62 0 -180 -4v-391z" />
<glyph unicode="&#x40b;" horiz-adv-x="1652" d="M43 1221v254h1075v-254h-411v-416q76 116 188 174.5t246 58.5q200 0 312 -129.5t112 -357.5v-551h-332v481q0 137 -53 216t-148 79q-152 0 -238.5 -114t-86.5 -340v-322h-332v1221h-332z" />
<glyph unicode="&#x40c;" horiz-adv-x="1378" d="M154 0v1452q79 43 153 43q81 0 129.5 -48.5t48.5 -125.5v-1321h-331zM496 745l477 750l309 -53l-432 -666l551 -743q-63 -53 -176 -53q-104 0 -158.5 27t-99.5 89zM520 1763l385 301l154 -254l-453 -198z" />
<glyph unicode="&#x40d;" horiz-adv-x="1560" d="M154 0v1452q79 43 153 43q81 0 129.5 -48.5t48.5 -125.5v-703l594 621v213q79 43 154 43q81 0 129.5 -48.5t48.5 -125.5v-1321h-332v819l-594 -620v-199h-331zM449 1810l153 254l385 -301l-86 -151z" />
<glyph unicode="&#x40e;" horiz-adv-x="1206" d="M23 1442q29 24 75 38.5t92 14.5q94 0 150 -32.5t96 -129.5l127 -305l74 -231l268 698l295 -53l-459 -1082q-66 -157 -185 -261t-249 -119l-139 219q84 15 156 71.5t122 151.5l39 74q-54 26 -90 106zM264 1939h223q0 -59 34.5 -93t92.5 -34q57 0 90 34t33 93h226 q0 -147 -93 -230t-256 -83q-166 0 -258 82.5t-92 230.5z" />
<glyph unicode="&#x40f;" horiz-adv-x="1480" d="M154 0v1452q79 43 153 43q81 0 129.5 -48.5t48.5 -125.5v-1067h512v1198q79 43 154 43q81 0 129.5 -48.5t48.5 -125.5v-1321h-422v-203q-79 -43 -155 -43q-79 0 -128 48.5t-49 125.5v72h-421z" />
<glyph unicode="&#x410;" horiz-adv-x="1404" d="M-6 0l532 1452q85 43 174 43q167 0 232 -180l479 -1315h-352l-105 313h-538l-105 -313h-317zM500 567h370l-184 594z" />
<glyph unicode="&#x411;" horiz-adv-x="1304" d="M154 0v1475h950v-254h-619v-338q118 4 179 4q280 0 435.5 -124.5t155.5 -350.5q0 -205 -155.5 -318.5t-435.5 -113.5q-243 0 -510 20zM485 238q170 -5 181 -5q116 0 180.5 53.5t64.5 147.5t-64 146.5t-181 52.5q-63 0 -181 -4v-391z" />
<glyph unicode="&#x412;" horiz-adv-x="1347" d="M154 0v1475q297 20 469 20q279 0 435 -108t156 -300q0 -209 -190 -317q123 -51 187.5 -142t64.5 -216q0 -205 -161.5 -318.5t-450.5 -113.5q-243 0 -510 20zM485 238q170 -5 181 -5q126 0 196 53.5t70 147.5t-70 146.5t-196 52.5h-181v-395zM485 887h140q119 0 182 46.5 t63 131.5q0 84 -63 130t-182 46q-87 0 -140 -2v-352z" />
<glyph unicode="&#x413;" horiz-adv-x="1054" d="M154 0v1475h868v-254h-537v-1221h-331z" />
<glyph unicode="&#x414;" horiz-adv-x="1640" d="M37 -72v305q107 41 160 159t65 345l39 738h1104v-1227h162v-451q-79 -43 -156 -43q-79 0 -127.5 48.5t-48.5 125.5v72h-883l-14 -203q-70 -43 -139 -43q-73 0 -117.5 48.5t-44.5 125.5zM438 254h635v967h-485l-27 -541q-14 -281 -123 -426z" />
<glyph unicode="&#x415;" d="M154 0v1475h944v-254h-613v-338h541v-254h-541v-375h635v-254h-966z" />
<glyph unicode="&#x416;" horiz-adv-x="1949" d="M12 0l439 770l-365 672q29 24 75 38.5t93 14.5q84 0 132 -29t87 -102l330 -621l-420 -743h-371zM813 0v1452q79 43 154 43q81 0 129.5 -48.5t48.5 -125.5v-1321h-332zM1155 745l377 750l319 -53l-342 -662l437 -747q-30 -24 -79.5 -38.5t-99.5 -14.5q-107 0 -164 32 t-102 113z" />
<glyph unicode="&#x417;" horiz-adv-x="1271" d="M20 190l121 203q85 -79 194 -115t220 -36q141 0 220 54t79 153q0 97 -73.5 151.5t-202.5 54.5h-193v226h143q113 0 175.5 46t62.5 130t-56.5 130t-158.5 46q-211 0 -365 -103l-88 213q110 74 248 113t268 39q234 0 365 -100.5t131 -282.5q0 -124 -70.5 -210t-195.5 -114 q169 -22 261.5 -118t92.5 -248q0 -209 -160.5 -325.5t-449.5 -116.5q-339 0 -568 210z" />
<glyph unicode="&#x418;" horiz-adv-x="1560" d="M154 0v1452q79 43 153 43q81 0 129.5 -48.5t48.5 -125.5v-703l594 621v213q79 43 154 43q81 0 129.5 -48.5t48.5 -125.5v-1321h-332v819l-594 -620v-199h-331z" />
<glyph unicode="&#x419;" horiz-adv-x="1560" d="M154 0v1452q79 43 153 43q81 0 129.5 -48.5t48.5 -125.5v-703l594 621v213q79 43 154 43q81 0 129.5 -48.5t48.5 -125.5v-1321h-332v819l-594 -620v-199h-331zM432 1939h223q0 -59 34.5 -93t92.5 -34q57 0 90 34t33 93h225q0 -147 -92.5 -230t-255.5 -83 q-166 0 -258 82.5t-92 230.5z" />
<glyph unicode="&#x41a;" horiz-adv-x="1378" d="M154 0v1452q79 43 153 43q81 0 129.5 -48.5t48.5 -125.5v-1321h-331zM496 745l477 750l309 -53l-432 -666l551 -743q-63 -53 -176 -53q-104 0 -158.5 27t-99.5 89z" />
<glyph unicode="&#x41b;" horiz-adv-x="1550" d="M35 215q96 38 140.5 108.5t51.5 208.5l54 943h1118v-1475h-332v1221h-502l-41 -746q-8 -140 -52 -238.5t-114 -156.5t-178 -100z" />
<glyph unicode="&#x41c;" horiz-adv-x="1925" d="M82 0l164 1452q33 18 79.5 30.5t82.5 12.5q188 0 235 -137l342 -1020l350 1110q70 47 156 47q91 0 135 -40t57 -146l164 -1309h-338l-92 956l-317 -956h-303l-332 969l-80 -969h-303z" />
<glyph unicode="&#x41d;" horiz-adv-x="1560" d="M154 0v1452q79 43 153 43q81 0 129.5 -48.5t48.5 -125.5v-447h594v578q79 43 154 43q81 0 129.5 -48.5t48.5 -125.5v-1321h-332v618h-594v-618h-331z" />
<glyph unicode="&#x41e;" horiz-adv-x="1609" d="M84 737q0 358 191 558t532 200q340 0 530.5 -200t190.5 -558q0 -357 -190.5 -557t-530.5 -200q-341 0 -532 199.5t-191 557.5zM426 737q0 -233 100 -364t279 -131q178 0 277.5 130.5t99.5 364.5t-99.5 365t-277.5 131t-278.5 -131.5t-100.5 -364.5z" />
<glyph unicode="&#x41f;" horiz-adv-x="1523" d="M154 0v1475h1216v-1475h-332v1221h-553v-1221h-331z" />
<glyph unicode="&#x420;" horiz-adv-x="1310" d="M154 0v1475q242 20 510 20q285 0 444.5 -124.5t159.5 -346.5q0 -227 -159.5 -354t-446.5 -127q-51 0 -177 4v-547h-331zM485 799q31 0 90.5 -1t86.5 -1q126 0 194 60t68 167q0 102 -68.5 159.5t-191.5 57.5q-43 0 -179 -4v-438z" />
<glyph unicode="&#x421;" horiz-adv-x="1320" d="M84 737q0 228 75.5 398.5t222 265t347.5 94.5q356 0 524 -295l-305 -121q-82 154 -217 154q-137 0 -221 -126t-84 -370t101 -369.5t270 -125.5q199 0 366 135l129 -227q-91 -80 -231.5 -125t-298.5 -45q-319 0 -498.5 205t-179.5 552z" />
<glyph unicode="&#x422;" horiz-adv-x="1159" d="M43 1221v254h1075v-254h-373v-1221h-331v1221h-371z" />
<glyph unicode="&#x423;" horiz-adv-x="1206" d="M23 1442q29 24 75 38.5t92 14.5q94 0 150 -32.5t96 -129.5l127 -305l74 -231l268 698l295 -53l-459 -1082q-66 -157 -185 -261t-249 -119l-139 219q84 15 156 71.5t122 151.5l39 74q-54 26 -90 106z" />
<glyph unicode="&#x424;" horiz-adv-x="1677" d="M68 737q0 271 159.5 428.5t446.5 169.5v117q79 43 153 43q77 0 125.5 -44.5t53.5 -115.5q286 -12 445 -169.5t159 -428.5t-159 -427.5t-445 -170.5v-139h-332v139q-287 12 -446.5 169.5t-159.5 428.5zM410 737q0 -149 69.5 -238.5t194.5 -103.5v684 q-125 -14 -194.5 -103.5t-69.5 -238.5zM1006 395q125 15 193.5 104.5t68.5 237.5t-68.5 237.5t-193.5 104.5v-684z" />
<glyph unicode="&#x425;" horiz-adv-x="1353" d="M-4 0l485 758l-436 684q29 24 77.5 38.5t98.5 14.5q99 0 159 -26t99 -91l217 -360l287 477l324 -53l-435 -684l478 -725q-27 -24 -72.5 -38.5t-93.5 -14.5q-119 0 -178.5 25.5t-100.5 90.5l-254 406l-311 -502h-344z" />
<glyph unicode="&#x426;" horiz-adv-x="1564" d="M154 0v1452q79 43 153 43q81 0 129.5 -48.5t48.5 -125.5v-1067h512v1198q79 43 154 43q81 0 129.5 -48.5t48.5 -125.5v-1073h164v-451q-79 -43 -156 -43q-79 0 -127.5 48.5t-48.5 125.5v72h-1007z" />
<glyph unicode="&#x427;" horiz-adv-x="1423" d="M100 924v528q79 43 154 43q81 0 129.5 -48.5t48.5 -125.5v-328q0 -138 48 -216.5t136 -78.5q148 0 235 114.5t87 340.5v322h332v-1475h-332v668q-75 -115 -184 -173.5t-240 -58.5q-196 0 -305 130t-109 358z" />
<glyph unicode="&#x428;" horiz-adv-x="2162" d="M154 0v1452q79 43 153 43q81 0 129.5 -48.5t48.5 -125.5v-1067h430v1198q79 43 154 43q81 0 129.5 -48.5t48.5 -125.5v-1067h434v1198q79 43 154 43q81 0 129.5 -48.5t48.5 -125.5v-1321h-1859z" />
<glyph unicode="&#x429;" horiz-adv-x="2248" d="M154 0v1452q79 43 153 43q81 0 129.5 -48.5t48.5 -125.5v-1067h430v1198q79 43 154 43q81 0 129.5 -48.5t48.5 -125.5v-1067h434v1198q79 43 154 43q81 0 129.5 -48.5t48.5 -125.5v-1073h162v-451q-79 -43 -156 -43q-79 0 -127.5 48.5t-48.5 125.5v72h-1689z" />
<glyph unicode="&#x42a;" horiz-adv-x="1490" d="M31 1221v254h643v-592q118 4 178 4q280 0 436 -125t156 -350q0 -205 -156 -318.5t-436 -113.5q-243 0 -510 20v1221h-311zM674 238q170 -5 180 -5q116 0 181 53.5t65 147.5t-64.5 146.5t-181.5 52.5q-62 0 -180 -4v-391z" />
<glyph unicode="&#x42b;" horiz-adv-x="1937" d="M154 0v1452q79 43 153 43q81 0 129.5 -48.5t48.5 -125.5v-438q118 4 179 4q280 0 435.5 -124.5t155.5 -350.5q0 -205 -155.5 -318.5t-435.5 -113.5q-243 0 -510 20zM485 238q170 -5 181 -5q116 0 180.5 53.5t64.5 147.5t-64 146.5t-181 52.5q-63 0 -181 -4v-391zM1456 0 v1452q79 43 154 43q81 0 129.5 -48.5t48.5 -125.5v-1321h-332z" />
<glyph unicode="&#x42c;" horiz-adv-x="1302" d="M154 0v1452q79 43 153 43q81 0 129.5 -48.5t48.5 -125.5v-438q118 4 179 4q280 0 435.5 -124.5t155.5 -350.5q0 -205 -155.5 -318.5t-435.5 -113.5q-243 0 -510 20zM485 238q170 -5 181 -5q116 0 180.5 53.5t64.5 147.5t-64 146.5t-181 52.5q-63 0 -181 -4v-391z" />
<glyph unicode="&#x42d;" horiz-adv-x="1325" d="M35 150l129 227q78 -65 174.5 -100t191.5 -35q145 0 242 96t121 283h-508v256h506q-23 176 -101.5 266t-193.5 90q-138 0 -217 -154l-307 121q171 295 526 295q301 0 472 -205.5t171 -552.5t-179 -552t-499 -205q-157 0 -298 45.5t-230 124.5z" />
<glyph unicode="&#x42e;" horiz-adv-x="2048" d="M154 0v1452q79 43 153 43q81 0 129.5 -48.5t48.5 -125.5v-444h183q32 294 198 456t437 162q311 0 485 -200t174 -558q0 -357 -174 -557t-485 -200q-277 0 -444 168t-195 473h-179v-621h-331zM987 737q0 -233 83.5 -364t232.5 -131q148 0 231.5 131t83.5 364t-83.5 364.5 t-231.5 131.5q-149 0 -232.5 -131.5t-83.5 -364.5z" />
<glyph unicode="&#x42f;" horiz-adv-x="1404" d="M-2 0l444 641q-148 53 -226.5 156t-78.5 247q0 213 166 332t463 119q259 0 485 -20v-1475h-331v600q-65 -8 -142 -8h-18l-404 -592h-358zM479 1028q0 -98 78.5 -152.5t220.5 -54.5q79 0 142 8v404q-49 2 -146 2q-140 0 -217.5 -54.5t-77.5 -152.5z" />
<glyph unicode="&#x430;" horiz-adv-x="1103" d="M47 297q0 163 131.5 253.5t372.5 90.5q84 0 127 -2q-5 90 -45 135t-135 45q-138 0 -265 -82l-127 197q201 123 445 123q211 0 327.5 -102t116.5 -287v-645q-95 -43 -170 -43q-59 0 -95.5 43.5t-41.5 115.5q-112 -159 -309 -159q-155 0 -243.5 84.5t-88.5 232.5zM348 326 q0 -52 30 -82.5t89 -30.5q90 0 150.5 60t60.5 184q-43 2 -119 2q-101 0 -156 -35t-55 -98z" />
<glyph unicode="&#x431;" horiz-adv-x="1269" d="M92 592q0 188 25 337.5t71 255t115 179.5t153 115t189 57l399 61q28 -31 48 -75.5t20 -79.5q0 -47 -45 -82t-117 -47l-274 -47q-63 -11 -107.5 -31.5t-83.5 -61t-64.5 -108.5t-39.5 -166q114 158 342 158q223 0 348 -142.5t125 -396.5t-146 -396t-407 -142t-406 161.5 t-145 450.5zM416 518q0 -135 61 -211t168 -76t168 76t61 211t-61 212t-168 77t-168 -77t-61 -212z" />
<glyph unicode="&#x432;" horiz-adv-x="1118" d="M121 0v1036q186 21 436 21q215 0 334 -82t119 -230q0 -141 -148 -213q91 -32 139 -91t48 -138q0 -152 -122.5 -237.5t-342.5 -85.5q-275 0 -463 20zM436 211q47 -2 152 -2q68 0 107.5 33t39.5 90q0 55 -39.5 87t-107.5 32h-152v-240zM436 604h125q65 0 102 30.5t37 82.5 q0 50 -37 80t-102 30h-125v-223z" />
<glyph unicode="&#x433;" horiz-adv-x="901" d="M121 0v1036h745v-237h-428v-799h-317z" />
<glyph unicode="&#x434;" horiz-adv-x="1325" d="M41 -66v287q91 40 139 119.5t58 228.5l30 467h846v-803h150v-436q-95 -43 -170 -43q-69 0 -108.5 50t-39.5 130v66h-602l-14 -203q-88 -43 -156 -43q-63 0 -98 50t-35 130zM416 233h381v568h-265l-18 -289q-12 -169 -98 -279z" />
<glyph unicode="&#x435;" horiz-adv-x="1107" d="M72 494q0 265 145 414t404 149q194 0 302.5 -92t108.5 -254q0 -155 -135 -242.5t-373 -87.5q-45 0 -135 8q36 -172 223 -172q166 0 293 82l125 -199q-190 -120 -440 -120q-245 0 -381.5 135.5t-136.5 378.5zM383 567q71 -6 137 -6q98 0 151.5 35t53.5 100q0 53 -35.5 84 t-99.5 31q-86 0 -140.5 -64t-66.5 -180z" />
<glyph unicode="&#x436;" horiz-adv-x="1691" d="M14 0l351 549l-302 461q77 47 173 47q72 0 117 -23.5t77 -77.5l254 -413l-336 -543h-334zM690 0v1014q95 43 170 43q69 0 108.5 -41t39.5 -107v-909h-318zM1014 545l317 512l283 -47l-277 -441l346 -542q-72 -47 -172 -47q-86 0 -139 24t-84 76z" />
<glyph unicode="&#x437;" horiz-adv-x="968" d="M25 131l110 182q109 -96 273 -96q81 0 126.5 29t45.5 80q0 52 -39 80t-109 28h-143v199h106q58 0 90.5 24t32.5 68t-34 69t-97 25q-127 0 -223 -61l-82 194q180 105 389 105q174 0 271.5 -73t97.5 -206q0 -80 -51.5 -140t-143.5 -85q121 -19 188.5 -87.5t67.5 -172.5 q0 -148 -122.5 -230.5t-340.5 -82.5q-235 0 -413 151z" />
<glyph unicode="&#x438;" horiz-adv-x="1226" d="M121 0v1014q95 43 170 43q69 0 108 -41t39 -107v-385l350 316v174q95 43 170 43q69 0 108.5 -41t39.5 -107v-909h-318v512l-350 -315v-197h-317z" />
<glyph unicode="&#x439;" horiz-adv-x="1226" d="M121 0v1014q95 43 170 43q69 0 108 -41t39 -107v-385l350 316v174q95 43 170 43q69 0 108.5 -41t39.5 -107v-909h-318v512l-350 -315v-197h-317zM266 1501h223q0 -59 34.5 -93t92.5 -34q57 0 90 34t33 93h226q0 -147 -93 -230t-256 -83q-166 0 -258 82.5t-92 230.5z" />
<glyph unicode="&#x43a;" d="M121 0v1014q95 43 170 43q69 0 108 -41t39 -107v-909h-317zM444 545l400 512l293 -47l-353 -443l445 -540q-86 -47 -205 -47q-80 0 -132 24t-91 76z" />
<glyph unicode="&#x43b;" horiz-adv-x="1196" d="M29 193q138 47 149 233l41 610h856v-1036h-317v801h-271l-26 -432q-10 -158 -84 -249t-207 -140z" />
<glyph unicode="&#x43c;" horiz-adv-x="1443" d="M74 0l114 1016q31 16 75.5 28.5t76.5 12.5q85 0 140 -25.5t75 -89.5l186 -594l193 668q73 41 151 41q83 0 125 -35.5t54 -128.5l114 -893h-315l-62 651l-194 -651h-234l-188 647l-66 -647h-245z" />
<glyph unicode="&#x43d;" horiz-adv-x="1226" d="M121 0v1014q95 43 170 43q69 0 108 -41t39 -107v-260h350v365q95 43 170 43q69 0 108.5 -41t39.5 -107v-909h-318v410h-350v-410h-317z" />
<glyph unicode="&#x43e;" horiz-adv-x="1249" d="M72 518q0 254 145 396.5t406 142.5t407 -142.5t146 -396.5t-146 -396t-407 -142t-406 142t-145 396zM395 518q0 -135 61.5 -211t168.5 -76t168 76t61 211t-61 212t-168 77t-168.5 -77t-61.5 -212z" />
<glyph unicode="&#x43f;" horiz-adv-x="1232" d="M121 0v1036h991v-1036h-317v799h-357v-799h-317z" />
<glyph unicode="&#x440;" horiz-adv-x="1239" d="M121 -471v1485q95 43 170 43q60 0 96 -44.5t41 -119.5q117 164 338 164q182 0 289.5 -135t107.5 -371q0 -270 -151 -420.5t-420 -150.5q-36 0 -154 4v-455h-317zM438 217q47 -2 123 -2q131 0 206 88.5t75 247.5q0 121 -50 188.5t-143 67.5q-211 0 -211 -291v-299z" />
<glyph unicode="&#x441;" horiz-adv-x="1052" d="M74 520q0 165 67.5 288t182.5 186t260 63q42 0 84 -7t91.5 -26.5t90 -51t76.5 -84.5t55 -122l-231 -92q-45 133 -150 133q-97 0 -151 -76t-54 -211q0 -136 64.5 -212.5t177.5 -76.5q72 0 148 24t130 64l101 -221q-163 -118 -406 -118q-252 0 -394 142.5t-142 397.5z" />
<glyph unicode="&#x442;" horiz-adv-x="950" d="M39 799v237h874v-237h-280v-799h-318v799h-276z" />
<glyph unicode="&#x443;" horiz-adv-x="1130" d="M35 1010q88 47 182 47q144 0 191 -148l106 -338l76 -323l76 323l137 486l299 -47l-402 -1121q-57 -158 -159 -262t-213 -119l-129 203q71 11 142 78.5t101 161.5l21 63q-74 26 -109 117z" />
<glyph unicode="&#x444;" horiz-adv-x="1751" d="M74 485q0 270 140.5 421t391.5 151q52 0 111 -15v512q95 43 170 43q69 0 108 -40.5t39 -106.5v-530q105 137 287 137q164 0 260 -135t96 -371q0 -270 -140.5 -420.5t-389.5 -150.5q-68 0 -113 2v-453h-317v584q-106 -133 -285 -133q-165 0 -261.5 134.5t-96.5 370.5z M395 485q0 -120 40.5 -187t113.5 -67q168 0 168 287v293q-52 10 -80 10q-113 0 -177.5 -88.5t-64.5 -247.5zM1034 217q33 -2 82 -2q113 0 176.5 88.5t63.5 247.5q0 121 -39.5 188.5t-112.5 67.5q-170 0 -170 -291v-299z" />
<glyph unicode="&#x445;" horiz-adv-x="1105" d="M-2 0l371 528l-318 482q92 47 193 47q71 0 116.5 -23t81.5 -80l133 -200l195 303l289 -47l-322 -478l357 -505q-70 -47 -168 -47q-165 0 -230 100l-159 248l-213 -328h-326z" />
<glyph unicode="&#x446;" horiz-adv-x="1300" d="M121 0v1014q95 43 170 43q69 0 108 -41t39 -107v-671h336v776q95 43 170 43q69 0 108.5 -41t39.5 -107v-676h147v-436q-95 -43 -170 -43q-69 0 -108 50t-39 130v66h-801z" />
<glyph unicode="&#x447;" horiz-adv-x="1148" d="M84 629v385q95 43 170 43q69 0 108 -41t39 -107v-225q0 -70 31 -111t86 -41q94 0 143.5 66.5t49.5 220.5v217h317v-1036h-317v424q-107 -143 -295 -143q-158 0 -245 91.5t-87 256.5z" />
<glyph unicode="&#x448;" horiz-adv-x="1724" d="M121 0v1014q95 43 170 43q69 0 108 -41t39 -107v-671h264v776q95 43 170 43q69 0 108.5 -41t39.5 -107v-671h266v776q95 43 170 43q69 0 108.5 -41t39.5 -107v-909h-1483z" />
<glyph unicode="&#x449;" horiz-adv-x="1812" d="M121 0v1014q95 43 170 43q69 0 108 -41t39 -107v-671h264v776q95 43 170 43q69 0 108.5 -41t39.5 -107v-671h266v776q95 43 170 43q69 0 108.5 -41t39.5 -107v-676h147v-436q-95 -43 -170 -43q-69 0 -108 50t-39 130v66h-1313z" />
<glyph unicode="&#x44a;" horiz-adv-x="1189" d="M41 801v235h518v-319q31 2 92 2q232 0 362 -98.5t130 -272.5q0 -173 -128.5 -270.5t-357.5 -97.5q-217 0 -415 20v801h-201zM559 197h98q79 0 124.5 40t45.5 111t-46.5 111.5t-129.5 40.5q-61 0 -92 -2v-301z" />
<glyph unicode="&#x44b;" horiz-adv-x="1583" d="M121 0v1014q95 43 170 43q69 0 108 -41t39 -107v-192q31 2 92 2q232 0 362 -98.5t130 -272.5q0 -173 -128 -270.5t-357 -97.5q-218 0 -416 20zM438 197h99q79 0 124.5 40t45.5 111t-47 111.5t-130 40.5q-61 0 -92 -2v-301zM1147 0v1014q95 43 170 43q69 0 108 -41 t39 -107v-909h-317z" />
<glyph unicode="&#x44c;" horiz-adv-x="1069" d="M121 0v1014q95 43 170 43q69 0 108 -41t39 -107v-192q31 2 92 2q232 0 362 -98.5t130 -272.5q0 -173 -128 -270.5t-357 -97.5q-218 0 -416 20zM438 197h99q79 0 124.5 40t45.5 111t-47 111.5t-130 40.5q-61 0 -92 -2v-301z" />
<glyph unicode="&#x44d;" horiz-adv-x="1052" d="M37 98l96 219q45 -40 115 -63t141 -23q101 0 168.5 51.5t89.5 145.5h-252v193h250q-22 90 -85.5 138t-162.5 48q-117 0 -229 -92l-96 209q169 133 366 133q154 0 276 -63t193.5 -186t71.5 -288q0 -255 -142.5 -397.5t-394.5 -142.5q-111 0 -218 29.5t-187 88.5z" />
<glyph unicode="&#x44e;" horiz-adv-x="1609" d="M121 0v1014q95 43 170 43q69 0 108 -41t39 -107v-266h129q29 197 151 305.5t318 108.5q235 0 367.5 -143t132.5 -396t-132.5 -395.5t-367.5 -142.5q-196 0 -318 108t-151 305h-129v-393h-317zM858 518q0 -135 46.5 -211t131.5 -76t131.5 76t46.5 211q0 136 -47 212.5 t-131 76.5t-131 -76.5t-47 -212.5z" />
<glyph unicode="&#x44f;" horiz-adv-x="1146" d="M23 0l268 432q-166 96 -166 287q0 159 126 248.5t353 89.5q172 0 422 -21v-1036h-313v360q-33 -2 -99 -2h-41l-217 -358h-333zM438 702q0 -65 46.5 -101t129.5 -36q66 0 99 2v275h-101q-81 0 -127.5 -37.5t-46.5 -102.5z" />
<glyph unicode="&#x450;" horiz-adv-x="1107" d="M72 494q0 265 145 414t404 149q194 0 302.5 -92t108.5 -254q0 -155 -135 -242.5t-373 -87.5q-45 0 -135 8q36 -172 223 -172q166 0 293 82l125 -199q-190 -120 -440 -120q-245 0 -381.5 135.5t-136.5 378.5zM266 1372l154 254l385 -301l-86 -151zM383 567q71 -6 137 -6 q98 0 151.5 35t53.5 100q0 53 -35.5 84t-99.5 31q-86 0 -140.5 -64t-66.5 -180z" />
<glyph unicode="&#x451;" horiz-adv-x="1107" d="M72 494q0 265 145 414t404 149q194 0 302.5 -92t108.5 -254q0 -155 -135 -242.5t-373 -87.5q-45 0 -135 8q36 -172 223 -172q166 0 293 82l125 -199q-190 -120 -440 -120q-245 0 -381.5 135.5t-136.5 378.5zM211 1366q0 79 47 122.5t129 43.5t129 -43.5t47 -122.5 q0 -81 -47 -125.5t-129 -44.5t-129 44.5t-47 125.5zM383 567q71 -6 137 -6q98 0 151.5 35t53.5 100q0 53 -35.5 84t-99.5 31q-86 0 -140.5 -64t-66.5 -180zM635 1366q0 79 47 122.5t129 43.5t129 -43.5t47 -122.5q0 -81 -47 -125.5t-129 -44.5t-129 44.5t-47 125.5z" />
<glyph unicode="&#x452;" horiz-adv-x="1239" d="M-2 1194v240h123v120q95 43 170 43q69 0 108 -40.5t39 -106.5v-16h330v-240h-330v-291q117 154 326 154q172 0 267 -102t95 -287v-770q0 -81 -21 -146t-61.5 -110.5t-89 -77.5t-112.5 -56l-142 228q49 19 79 73t30 146v657q0 91 -38 143t-109 52q-109 0 -166.5 -67.5 t-57.5 -223.5v-516h-317v1194h-123z" />
<glyph unicode="&#x453;" horiz-adv-x="901" d="M121 0v1036h745v-237h-428v-799h-317zM254 1325l385 301l154 -254l-453 -198z" />
<glyph unicode="&#x454;" horiz-adv-x="1052" d="M74 520q0 165 71 288t193 186t276 63q198 0 367 -133l-96 -209q-112 92 -230 92q-99 0 -162 -48t-85 -138h249v-193h-251q22 -94 89.5 -145.5t168.5 -51.5q71 0 141 23t115 63l96 -219q-80 -59 -187 -88.5t-219 -29.5q-252 0 -394 142.5t-142 397.5z" />
<glyph unicode="&#x455;" horiz-adv-x="1009" d="M57 106l84 199q75 -52 167.5 -76t174.5 -24q152 0 152 82q0 17 -11 31.5t-26.5 25t-45 22t-53 19t-63.5 18.5q-55 16 -96.5 31.5t-91 43t-81.5 60t-53.5 81.5t-21.5 108q0 155 114.5 242.5t311.5 87.5q231 0 406 -119l-115 -176q-145 74 -281 74q-56 0 -91.5 -18.5 t-35.5 -53.5q0 -40 43.5 -66t135.5 -55q45 -14 77 -25t72.5 -28.5t69 -35t58 -43.5t47 -54.5t29 -66t11.5 -81.5q0 -154 -118 -241.5t-328 -87.5q-281 0 -441 126z" />
<glyph unicode="&#x456;" horiz-adv-x="559" d="M100 1366q0 79 47 122.5t129 43.5t129.5 -43.5t47.5 -122.5q0 -81 -47 -125.5t-130 -44.5q-82 0 -129 44.5t-47 125.5zM121 0h317v1036h-317v-1036z" />
<glyph unicode="&#x457;" horiz-adv-x="559" d="M-106 1366q0 79 47 122.5t129 43.5t129 -43.5t47 -122.5q0 -81 -47 -125.5t-129 -44.5t-129 44.5t-47 125.5zM121 0v1036h317v-1036h-317zM317 1366q0 79 47.5 122.5t129.5 43.5t129 -43.5t47 -122.5q0 -81 -47 -125.5t-129 -44.5q-83 0 -130 44.5t-47 125.5z" />
<glyph unicode="&#x458;" horiz-adv-x="559" d="M14 -264l142 -228q64 24 112.5 56t88 78t60.5 110.5t21 145.5v1138h-317v-1081q0 -179 -107 -219zM102 1366q0 79 47.5 122.5t129.5 43.5t129 -43.5t47 -122.5q0 -81 -47 -125.5t-129 -44.5q-83 0 -130 44.5t-47 125.5z" />
<glyph unicode="&#x459;" horiz-adv-x="1701" d="M29 193q138 47 149 233l41 610h856v-319q31 2 92 2q232 0 362 -98.5t130 -272.5q0 -173 -128 -270.5t-357 -97.5q-218 0 -416 20v801h-271l-26 -432q-10 -158 -84 -249t-207 -140zM1075 197h99q79 0 124 40t45 111t-46.5 111.5t-129.5 40.5q-61 0 -92 -2v-301z" />
<glyph unicode="&#x45a;" horiz-adv-x="1732" d="M121 0v1014q95 43 170 43q69 0 108 -41t39 -107v-260h350v365q95 43 170 43q69 0 108.5 -41t39.5 -107v-192q31 2 92 2q232 0 362 -98.5t130 -272.5q0 -173 -128.5 -270.5t-357.5 -97.5q-218 0 -416 20v410h-350v-410h-317zM1106 197h98q79 0 124.5 40t45.5 111 t-46.5 111.5t-129.5 40.5q-61 0 -92 -2v-301z" />
<glyph unicode="&#x45b;" horiz-adv-x="1239" d="M-2 1194v240h123v120q95 43 170 43q69 0 108 -40.5t39 -106.5v-16h330v-240h-330v-291q117 154 326 154q172 0 267 -102t95 -287v-668h-317v612q0 91 -38 143t-109 52q-109 0 -166.5 -67.5t-57.5 -223.5v-516h-317v1194h-123z" />
<glyph unicode="&#x45c;" d="M121 0v1014q95 43 170 43q69 0 108 -41t39 -107v-909h-317zM424 1325l385 301l154 -254l-453 -198zM444 545l400 512l293 -47l-353 -443l445 -540q-86 -47 -205 -47q-80 0 -132 24t-91 76z" />
<glyph unicode="&#x45d;" horiz-adv-x="1226" d="M121 0v1014q95 43 170 43q69 0 108 -41t39 -107v-385l350 316v174q95 43 170 43q69 0 108.5 -41t39.5 -107v-909h-318v512l-350 -315v-197h-317zM283 1372l153 254l385 -301l-86 -151z" />
<glyph unicode="&#x45e;" horiz-adv-x="1130" d="M35 1010q88 47 182 47q144 0 191 -148l106 -338l76 -323l76 323l137 486l299 -47l-402 -1121q-57 -158 -159 -262t-213 -119l-129 203q71 11 142 78.5t101 161.5l21 63q-74 26 -109 117zM221 1501h223q0 -59 34 -93t93 -34q57 0 90 34t33 93h226q0 -147 -93 -230 t-256 -83q-166 0 -258 82.5t-92 230.5z" />
<glyph unicode="&#x45f;" horiz-adv-x="1212" d="M121 0v1014q95 43 170 43q69 0 108 -41t39 -107v-671h336v776q95 43 170 43q69 0 108.5 -41t39.5 -107v-909h-328v-203q-95 -43 -170 -43q-69 0 -108.5 50t-39.5 130v66h-325z" />
<glyph unicode="&#x490;" horiz-adv-x="1054" d="M154 0v1475h534v202q79 43 158 43t127.5 -50.5t48.5 -129.5v-319h-537v-1221h-331z" />
<glyph unicode="&#x491;" horiz-adv-x="892" d="M121 0v1036h428v203q95 43 170 43q69 0 108 -49.5t39 -130.5v-303h-428v-799h-317z" />
<glyph unicode="&#x2000;" horiz-adv-x="1032" />
<glyph unicode="&#x2001;" horiz-adv-x="2064" />
<glyph unicode="&#x2002;" horiz-adv-x="1032" />
<glyph unicode="&#x2003;" horiz-adv-x="2064" />
<glyph unicode="&#x2004;" horiz-adv-x="688" />
<glyph unicode="&#x2005;" horiz-adv-x="516" />
<glyph unicode="&#x2006;" horiz-adv-x="344" />
<glyph unicode="&#x2007;" horiz-adv-x="344" />
<glyph unicode="&#x2008;" horiz-adv-x="258" />
<glyph unicode="&#x2009;" horiz-adv-x="412" />
<glyph unicode="&#x200a;" horiz-adv-x="114" />
<glyph unicode="&#x2010;" horiz-adv-x="886" d="M115 393v264h655v-264h-655z" />
<glyph unicode="&#x2011;" horiz-adv-x="886" d="M115 393v264h655v-264h-655z" />
<glyph unicode="&#x2012;" horiz-adv-x="886" d="M115 393v264h655v-264h-655z" />
<glyph unicode="&#x2013;" horiz-adv-x="1259" d="M115 393v264h1028v-264h-1028z" />
<glyph unicode="&#x2014;" horiz-adv-x="1845" d="M115 393v264h1614v-264h-1614z" />
<glyph unicode="&#x2018;" horiz-adv-x="542" d="M78 1112q0 144 78 247.5t231 135.5l43 -78q-101 -30 -150 -80.5t-65 -130.5q56 17 100 17q71 0 109.5 -45.5t38.5 -128.5q0 -92 -51 -143.5t-142 -51.5q-89 0 -140.5 69t-51.5 189z" />
<glyph unicode="&#x2019;" horiz-adv-x="540" d="M84 1300q0 92 50.5 143.5t141.5 51.5q89 0 141 -69t52 -189q0 -144 -78 -247.5t-231 -135.5l-43 78q101 30 150 80.5t65 130.5q-56 -17 -101 -17q-70 0 -108.5 45.5t-38.5 128.5z" />
<glyph unicode="&#x201a;" horiz-adv-x="563" d="M90 154q0 92 51 143t142 51q89 0 140.5 -69t51.5 -189q0 -144 -78 -247.5t-231 -135.5l-43 78q101 30 150 80.5t65 130.5q-53 -16 -100 -16q-71 0 -109.5 45.5t-38.5 128.5z" />
<glyph unicode="&#x201c;" horiz-adv-x="997" d="M76 1112q0 144 78 247.5t231 135.5l43 -78q-101 -30 -150 -80.5t-65 -130.5q56 17 100 17q71 0 109.5 -45.5t38.5 -128.5q0 -92 -51 -143.5t-142 -51.5q-89 0 -140.5 69t-51.5 189zM530 1112q0 143 78 247t232 136l43 -78q-101 -30 -150 -80.5t-65 -130.5q56 17 100 17 q70 0 108.5 -45.5t38.5 -128.5q0 -92 -50.5 -143.5t-141.5 -51.5q-89 0 -141 69t-52 189z" />
<glyph unicode="&#x201d;" horiz-adv-x="995" d="M84 1300q0 92 50.5 143.5t141.5 51.5q89 0 141 -69t52 -189q0 -144 -78 -247.5t-231 -135.5l-43 78q101 30 150 80.5t65 130.5q-56 -17 -101 -17q-70 0 -108.5 45.5t-38.5 128.5zM539 1300q0 92 50.5 143.5t141.5 51.5q89 0 141 -69t52 -189q0 -143 -78 -247t-232 -136 l-43 78q101 30 150 80.5t65 130.5q-56 -17 -100 -17q-70 0 -108.5 45.5t-38.5 128.5z" />
<glyph unicode="&#x201e;" horiz-adv-x="1015" d="M90 154q0 92 51 143t142 51q89 0 140.5 -69t51.5 -189q0 -144 -78 -247.5t-231 -135.5l-43 78q101 30 150 80.5t65 130.5q-53 -16 -100 -16q-71 0 -109.5 45.5t-38.5 128.5zM545 154q0 92 50.5 143t141.5 51q89 0 141 -69t52 -189q0 -144 -78 -247.5t-231 -135.5l-43 78 q101 30 150 80.5t65 130.5q-53 -16 -101 -16q-70 0 -108.5 45.5t-38.5 128.5z" />
<glyph unicode="&#x2022;" horiz-adv-x="817" d="M139 604q0 119 71 185.5t198 66.5q129 0 199.5 -66.5t70.5 -185.5t-70.5 -184.5t-199.5 -65.5q-128 0 -198.5 66t-70.5 184z" />
<glyph unicode="&#x2026;" horiz-adv-x="1517" d="M88 164q0 86 51 135t142 49q89 0 139.5 -49t50.5 -135t-50.5 -135t-139.5 -49q-91 0 -142 49t-51 135zM567 164q0 86 51 135t142 49q89 0 139.5 -49t50.5 -135t-50.5 -135t-139.5 -49q-91 0 -142 49t-51 135zM1047 164q0 86 50.5 135t141.5 49q89 0 140 -49t51 -135 t-51 -135t-140 -49q-91 0 -141.5 49t-50.5 135z" />
<glyph unicode="&#x202f;" horiz-adv-x="412" />
<glyph unicode="&#x2039;" horiz-adv-x="696" d="M63 512l330 506l228 -133l-213 -373l213 -373l-228 -133z" />
<glyph unicode="&#x203a;" horiz-adv-x="696" d="M76 139l213 373l-213 373l227 133l330 -506l-330 -506z" />
<glyph unicode="&#x205f;" horiz-adv-x="516" />
<glyph unicode="&#x20ac;" horiz-adv-x="1261" d="M68 516v234h135q29 254 179 393t400 139q97 0 203 -25t191 -73l-121 -213q-113 61 -250 61q-112 0 -183.5 -71.5t-93.5 -204.5h385l-133 -240h-254q22 -137 94.5 -211t184.5 -74q74 0 148 20t120 50l103 -221q-78 -50 -184 -75t-210 -25q-250 0 -400.5 140t-178.5 396 h-135z" />
<glyph unicode="&#x2122;" horiz-adv-x="1669" d="M66 1323v152h557v-152h-179v-586h-200v586h-178zM651 737l82 721q35 27 84 27q43 0 70 -17t47 -61l190 -449l185 498q40 29 80 29q45 0 67 -23.5t29 -85.5l82 -639h-201l-47 404l-154 -404h-129l-164 383l-38 -383h-183z" />
<glyph unicode="&#x25fc;" horiz-adv-x="1054" d="M0 0v1055h1055v-1055h-1055z" />
</font>
</defs>
</svg>
