<?xml version="1.0" standalone="no"?>
<!DOCTYPE svg PUBLIC "-//W3C//DTD SVG 1.1//EN" "http://www.w3.org/Graphics/SVG/1.1/DTD/svg11.dtd" >
<svg xmlns="http://www.w3.org/2000/svg">
<metadata></metadata>
<defs>
<font id="bw_surco_demoblack" horiz-adv-x="1138" >
<font-face units-per-em="2048" ascent="1577" descent="-471" />
<missing-glyph horiz-adv-x="407" />
<glyph horiz-adv-x="0" />
<glyph horiz-adv-x="682" />
<glyph unicode="&#xd;" horiz-adv-x="407" />
<glyph unicode=" "  horiz-adv-x="407" />
<glyph unicode="&#x09;" horiz-adv-x="407" />
<glyph unicode="&#xa0;" horiz-adv-x="407" />
<glyph unicode="!" horiz-adv-x="653" d="M88 211q0 106 64 167.5t176 61.5q110 0 173.5 -61.5t63.5 -167.5q0 -108 -63 -169.5t-174 -61.5q-113 0 -176.5 61t-63.5 170zM119 1475l10 -908h397l11 908h-418z" />
<glyph unicode="&#x22;" horiz-adv-x="983" d="M76 1577h373l-46 -557h-288zM537 1577h372l-45 -557h-289z" />
<glyph unicode="#" horiz-adv-x="1548" d="M66 233l34 304h162l23 192h-168l35 303h167l27 242h391l-28 -242h221l24 242h392l-27 -242h164l-37 -303h-162l-22 -192h170l-37 -304h-166l-27 -233h-391l25 233h-218l-24 -233h-391l26 233h-163zM647 526h225l25 211h-225z" />
<glyph unicode="$" horiz-adv-x="1118" d="M63 123l95 233q89 -57 190.5 -84.5t181.5 -29.5v250q-178 63 -271 120.5t-127 121t-34 161.5q0 174 116 280t316 117v183h88v-183q108 -5 217 -40.5t191 -96.5l-127 -192q-146 67 -281 75v-215q240 -76 340.5 -172t100.5 -254q0 -183 -117 -292t-324 -123v-207h-88v205 q-122 5 -249 39.5t-218 103.5zM451 942q0 -71 79 -104v198q-36 -10 -57.5 -33.5t-21.5 -60.5zM618 244q91 19 91 104q0 45 -22 71t-69 48v-223z" />
<glyph unicode="%" horiz-adv-x="1554" d="M59 965q0 155 85.5 242t236.5 87q152 0 238 -87t86 -242q0 -156 -85.5 -242t-238.5 -86q-152 0 -237 86t-85 242zM250 111l842 1183l211 -129l-842 -1185zM324 965q0 -57 15.5 -88t43.5 -31q27 0 42 31.5t15 87.5q0 55 -15.5 86.5t-41.5 31.5q-28 0 -43.5 -31.5 t-15.5 -86.5zM852 305q0 156 85.5 244t236.5 88q152 0 237.5 -87.5t85.5 -244.5q0 -155 -85 -240t-238 -85q-152 0 -237 85t-85 240zM1116 305q0 -55 16 -86t44 -31q26 0 41.5 31t15.5 86q0 56 -15 87.5t-42 31.5q-28 0 -44 -31t-16 -88z" />
<glyph unicode="&#x26;" horiz-adv-x="1548" d="M59 379q0 217 215 448q-75 127 -75 248q0 188 147 304t404 116q115 0 252.5 -44t261.5 -130l-150 -277q-164 119 -309 119q-78 0 -121 -32t-43 -93q0 -122 385 -481q68 131 115 336l315 -68q-61 -275 -203 -475q230 -198 289 -248q-38 -50 -119.5 -86t-154.5 -36 q-76 0 -157.5 22.5t-129.5 67.5l-18 18q-190 -108 -437 -108q-220 0 -343.5 105t-123.5 294zM455 412q0 -64 39 -100t116 -36q68 0 133 19q-160 159 -247 252q-41 -61 -41 -135z" />
<glyph unicode="'" horiz-adv-x="522" d="M76 1577h373l-46 -557h-288z" />
<glyph unicode="(" horiz-adv-x="753" d="M66 553q0 -282 77.5 -556t233.5 -489l334 144q-103 178 -153 424.5t-50 484.5q0 237 49.5 475.5t153.5 417.5l-334 143q-156 -215 -233.5 -488.5t-77.5 -555.5z" />
<glyph unicode=")" horiz-adv-x="753" d="M43 -348l334 -144q156 215 233.5 489t77.5 556t-77.5 555.5t-233.5 488.5l-334 -143q104 -179 153.5 -417.5t49.5 -475.5q0 -238 -50 -484.5t-153 -424.5z" />
<glyph unicode="*" horiz-adv-x="808" d="M63 1231l68 225l180 -82l-22 203h233l-20 -193l172 78l76 -221l-189 -39l129 -137l-188 -139l-90 159l-93 -165l-192 137l125 135z" />
<glyph unicode="+" horiz-adv-x="1044" d="M61 365v303h256l-2 309h410v-309h258v-303h-260v-310h-404l-2 310h-256z" />
<glyph unicode="," horiz-adv-x="614" d="M68 199q0 114 63 177.5t176 63.5q112 0 176 -84.5t64 -232.5q0 -174 -99 -297.5t-288 -144.5l-49 90q123 27 184 82.5t82 148.5q-61 -22 -127 -22q-87 0 -134.5 57t-47.5 162z" />
<glyph unicode="-" horiz-adv-x="921" d="M100 362v340h721v-340h-721z" />
<glyph unicode="." horiz-adv-x="608" d="M66 211q0 106 63.5 167.5t175.5 61.5q110 0 174 -61.5t64 -167.5q0 -108 -63.5 -169.5t-174.5 -61.5q-113 0 -176 61t-63 170z" />
<glyph unicode="/" horiz-adv-x="876" d="M51 -166l514 1763l260 -79l-512 -1764z" />
<glyph unicode="0" horiz-adv-x="1331" d="M68 637q0 311 157 484t441 173q283 0 440.5 -173t157.5 -484t-157.5 -484t-440.5 -173q-284 0 -441 173t-157 484zM483 637q0 -158 48.5 -247t134.5 -89q85 0 132.5 89t47.5 247q0 160 -47.5 249t-132.5 89q-86 0 -134.5 -89t-48.5 -249z" />
<glyph unicode="1" horiz-adv-x="907" d="M-8 1032l465 242h334v-1274h-410v834l-227 -115z" />
<glyph unicode="2" horiz-adv-x="1218" d="M55 0v205q0 44 13.5 85t31 73t53 67.5t61.5 58t75.5 54.5t75 47.5t79.5 46.5q67 38 100.5 59t77 53.5t62 62.5t18.5 62q0 46 -40 73.5t-117 27.5q-138 0 -305 -121l-150 266q123 87 261 130.5t257 43.5q240 0 375 -107.5t135 -299.5q0 -48 -15 -93t-38.5 -81.5 t-61.5 -73.5t-73 -63.5t-85 -57t-86 -49.5t-87 -45q-136 -70 -171 -97q-16 -12 -26 -24h678v-303h-1098z" />
<glyph unicode="3" horiz-adv-x="1183" d="M18 -119l152 275q6 -3 31.5 -15t32 -14.5t28 -12t30 -11.5t28 -8.5t33 -8.5t33 -5t39 -4t42.5 -1q113 0 176.5 46t63.5 124q0 89 -120 156.5t-378 101.5l348 467h-446v303h944v-246l-293 -352q360 -124 360 -451q0 -223 -160.5 -347t-449.5 -124q-252 0 -494 127z" />
<glyph unicode="4" horiz-adv-x="1304" d="M39 0v272l524 1022l369 -102l-471 -889h221v203l399 147v-350h197v-303h-197v-225h-409v225h-633z" />
<glyph unicode="5" horiz-adv-x="1245" d="M12 -76l158 271q107 -70 197.5 -94.5t193.5 -24.5q107 0 167 46.5t60 133.5q0 77 -61.5 125.5t-169.5 54.5l-442 23l98 815h889v-303h-494l-37 -221l97 -11q253 -25 392.5 -150t139.5 -331q0 -239 -162 -371.5t-454 -132.5q-142 0 -301.5 45t-270.5 125z" />
<glyph unicode="6" horiz-adv-x="1290" d="M68 717q0 366 184.5 572t507.5 206q227 0 446 -121l-116 -295q-118 95 -275 95q-115 0 -196.5 -63.5t-118.5 -182.5q95 45 219 45q237 0 370.5 -130t133.5 -358q0 -238 -152.5 -371.5t-423.5 -133.5q-275 0 -427 193.5t-152 543.5zM473 645q9 -162 60 -253t133 -91 q64 0 102.5 45.5t38.5 124.5q0 104 -47 164.5t-127 60.5q-84 0 -160 -51z" />
<glyph unicode="7" horiz-adv-x="1130" d="M39 971v303h1055v-250l-568 -1309l-381 123l504 1133h-610z" />
<glyph unicode="8" horiz-adv-x="1306" d="M63 424q0 231 191 352q-141 110 -141 301q0 198 143 308t397 110t397.5 -110.5t143.5 -307.5q0 -191 -141 -301q190 -120 190 -352q0 -209 -156.5 -326.5t-433.5 -117.5t-433.5 117.5t-156.5 326.5zM479 463q0 -74 46 -118t128 -44q81 0 126.5 44t45.5 118 q0 78 -45.5 124t-126.5 46q-82 0 -128 -46t-46 -124zM524 1038q0 -63 34.5 -98t94.5 -35q59 0 94 35.5t35 97.5q0 63 -35 99.5t-94 36.5q-60 0 -94.5 -36.5t-34.5 -99.5z" />
<glyph unicode="9" horiz-adv-x="1290" d="M68 776q0 231 154 374.5t421 143.5q274 0 427 -200t153 -562q0 -366 -184.5 -572t-508.5 -206q-229 0 -446 121l117 295q117 -94 274 -94q115 0 197 63.5t119 182.5q-98 -46 -220 -46q-237 0 -370 133.5t-133 366.5zM483 791q0 -109 47 -173.5t127 -64.5q75 0 160 53 q-9 174 -59.5 271.5t-132.5 97.5q-65 0 -103.5 -49t-38.5 -135z" />
<glyph unicode=":" horiz-adv-x="645" d="M84 211q0 106 64 167.5t176 61.5q110 0 173.5 -61.5t63.5 -167.5q0 -108 -63 -169.5t-174 -61.5q-113 0 -176.5 61t-63.5 170zM84 840q0 106 64 167.5t176 61.5q110 0 173.5 -61.5t63.5 -167.5q0 -109 -63.5 -170.5t-173.5 -61.5q-112 0 -176 61.5t-64 170.5z" />
<glyph unicode=";" horiz-adv-x="647" d="M84 199q0 114 63.5 177.5t176.5 63.5q112 0 175.5 -84.5t63.5 -232.5q0 -174 -99 -297.5t-288 -144.5l-49 90q123 27 184 82.5t82 148.5q-61 -22 -127 -22q-87 0 -134.5 57t-47.5 162zM84 840q0 106 64 167.5t176 61.5q110 0 173.5 -61.5t63.5 -167.5 q0 -109 -63.5 -170.5t-173.5 -61.5q-112 0 -176 61.5t-64 170.5z" />
<glyph unicode="&#x3c;" horiz-adv-x="1079" d="M57 379v276l922 365v-322l-557 -180l557 -180v-322z" />
<glyph unicode="=" horiz-adv-x="1130" d="M104 150v303h922v-303h-922zM104 580v303h922v-303h-922z" />
<glyph unicode="&#x3e;" horiz-adv-x="1079" d="M100 16v322l557 180l-557 180v322l922 -365v-276z" />
<glyph unicode="?" horiz-adv-x="1112" d="M49 1321q108 86 238 130t241 44q245 0 385 -111.5t140 -296.5q0 -39 -9.5 -77t-21.5 -66.5t-36.5 -60.5t-41.5 -51.5t-50.5 -48t-48.5 -40.5t-50 -38q-64 -47 -94.5 -77t-30.5 -61h-398q0 55 15 104t34 82t55 70t58 54.5t62 48.5q41 32 59.5 48t36.5 41.5t18 49.5 q0 46 -37 72t-110 26q-118 0 -264 -119zM233 211q0 106 64 167.5t176 61.5q110 0 174 -61.5t64 -167.5q0 -108 -63.5 -169.5t-174.5 -61.5q-113 0 -176.5 61t-63.5 170z" />
<glyph unicode="@" horiz-adv-x="2306" d="M63 553q0 492 287 768t799 276q513 0 800 -249t287 -695q0 -253 -135 -395.5t-375 -142.5q-303 0 -423 186q-43 -87 -134 -136.5t-192 -49.5q-168 0 -261 110t-93 307q0 217 135.5 339t378.5 122q247 0 485 -41v-399q0 -59 27.5 -93t76.5 -34q50 0 77.5 60t27.5 167 q0 299 -180.5 466t-501.5 167q-319 0 -499.5 -194.5t-180.5 -538.5t180.5 -538.5t499.5 -194.5q139 0 290.5 33t282.5 92l138 -287q-133 -68 -331 -109t-380 -41q-512 0 -799 276t-287 769zM1018 526q0 -57 27 -88.5t71 -31.5q54 0 85.5 44.5t31.5 122.5v109h-53 q-72 0 -117 -41t-45 -115z" />
<glyph unicode="A" horiz-adv-x="1460" d="M-31 0l537 1440q110 55 223 55q205 0 293 -229l469 -1266h-451l-90 274h-487l-90 -274h-404zM571 598h271l-135 451z" />
<glyph unicode="B" horiz-adv-x="1404" d="M131 0v1475q293 20 526 20q297 0 464 -111.5t167 -308.5q0 -198 -168 -309q230 -113 230 -348q0 -209 -172 -323.5t-480 -114.5q-280 0 -567 20zM559 305q55 -2 141 -2q97 0 151 38t54 105q0 69 -54 106.5t-151 37.5h-141v-285zM559 913h100q91 0 138 34.5t47 96.5 q0 127 -185 127q-61 0 -100 -2v-256z" />
<glyph unicode="C" horiz-adv-x="1359" d="M66 737q0 219 77.5 389t231 269.5t362.5 99.5q394 0 574 -332l-393 -153q-34 75 -76.5 114t-102.5 39q-44 0 -83 -22t-73.5 -69t-54.5 -133t-20 -202t26.5 -201.5t73.5 -133t102 -69.5t121 -22q81 0 175 38t180 108l162 -289q-92 -87 -244 -137.5t-322 -50.5 q-224 0 -388 99.5t-246 269t-82 388.5z" />
<glyph unicode="D" horiz-adv-x="1509" d="M131 0v1475q61 7 211 13.5t268 6.5q395 0 615.5 -200t220.5 -558t-220.5 -557.5t-615.5 -199.5q-88 0 -254 7t-225 13zM559 305q18 -2 49 -2q188 0 290.5 114.5t102.5 319.5t-102.5 319.5t-290.5 114.5q-31 0 -49 -2v-864z" />
<glyph unicode="E" horiz-adv-x="1255" d="M131 0v1475h1026v-324h-598v-238h526v-323h-526v-266h621v-324h-1049z" />
<glyph unicode="F" horiz-adv-x="1161" d="M131 0v1475h975v-324h-547v-324h440v-321h-440v-506h-428z" />
<glyph unicode="G" horiz-adv-x="1503" d="M68 737q0 218 80 388.5t238.5 270t373.5 99.5q393 0 573 -332l-393 -153q-76 153 -192 153q-44 0 -84.5 -22t-76 -69t-56.5 -133.5t-21 -201.5q0 -116 22 -202t59 -133t80 -69t91 -22q55 0 93.5 10t70 36t47 76t16.5 126h-211v324h639v-848q-110 -55 -200 -55 q-78 0 -132 39.5t-73 105.5q-62 -81 -150 -113t-225 -32q-179 0 -309.5 99.5t-195 269t-64.5 388.5z" />
<glyph unicode="H" horiz-adv-x="1603" d="M131 0v1440q110 55 201 55q104 0 165.5 -59t61.5 -150v-379h490v533q110 55 200 55q104 0 166 -59t62 -150v-1286h-428v584h-490v-584h-428z" />
<glyph unicode="I" horiz-adv-x="686" d="M131 0v1440q110 55 201 55q104 0 165.5 -59t61.5 -150v-1286h-428z" />
<glyph unicode="J" horiz-adv-x="899" d="M18 43q144 -63 322 -63q207 0 323.5 102t116.5 285v919q0 91 -61.5 150t-165.5 59q-91 0 -201 -55v-996q0 -63 -28.5 -98t-83.5 -35q-93 0 -170 41z" />
<glyph unicode="K" horiz-adv-x="1452" d="M131 0v1440q110 55 201 55q104 0 165.5 -59t61.5 -150v-1286h-428zM569 745l387 750l392 -65l-347 -629l486 -756q-37 -29 -98.5 -47t-124.5 -18q-138 0 -206 32.5t-112 106.5z" />
<glyph unicode="L" horiz-adv-x="1165" d="M131 0v1440q110 55 201 55q104 0 165.5 -59t61.5 -150v-950h580v-336h-1008z" />
<glyph unicode="M" horiz-adv-x="1982" d="M63 0l164 1440q41 22 101 38.5t106 16.5q117 0 191.5 -37.5t103.5 -126.5l295 -891l297 994q87 61 201 61q113 0 166 -49t73 -184l164 -1262h-436l-70 793l-256 -793h-383l-270 805l-59 -805h-388z" />
<glyph unicode="N" horiz-adv-x="1607" d="M131 0v1440q75 55 176 55q77 0 134.5 -33t113.5 -108l528 -672l-12 793h406v-1475h-338l-615 780l13 -780h-406z" />
<glyph unicode="O" horiz-adv-x="1654" d="M66 737q0 358 201 558t562 200q358 0 559 -200t201 -558q0 -357 -201 -557t-559 -200q-361 0 -562 199.5t-201 557.5zM508 737q0 -199 85 -312.5t234 -113.5t233.5 113t84.5 313t-84.5 313t-233.5 113t-234 -113.5t-85 -312.5z" />
<glyph unicode="P" horiz-adv-x="1363" d="M131 0v1475q95 8 280 14t285 6q299 0 467 -128t168 -355q0 -234 -167.5 -365t-469.5 -131q-86 0 -135 2v-518h-428zM559 842q47 -2 133 -2q97 0 147 45.5t50 126.5q0 74 -51.5 116.5t-143.5 42.5q-82 0 -135 -2v-327z" />
<glyph unicode="Q" horiz-adv-x="1654" d="M66 737q0 358 201 558t562 200q358 0 559 -200t201 -558q0 -292 -136 -480.5t-386 -250.5q37 -91 129.5 -136.5t214.5 -45.5l-182 -279q-201 10 -348.5 106.5t-216.5 262.5l-35 84q-270 53 -416.5 244.5t-146.5 494.5zM508 737q0 -199 85 -312.5t234 -113.5t233.5 113 t84.5 313t-84.5 313t-233.5 113t-234 -113.5t-85 -312.5z" />
<glyph unicode="R" horiz-adv-x="1433" d="M131 0v1475q91 8 274 14t271 6q309 0 482 -118.5t173 -332.5q0 -236 -213 -354q172 -111 211 -350l19 -119q18 -117 45 -186q-135 -55 -244 -55q-193 0 -227 219l-21 125q-28 204 -188 204h-154v-528h-428zM559 852h113q217 0 217 162q0 157 -215 157q-70 0 -115 -2v-317 z" />
<glyph unicode="S" horiz-adv-x="1257" d="M45 145l131 293q169 -127 430 -127q73 0 114.5 24.5t41.5 67.5q0 26 -16 47t-43.5 36.5t-64.5 29t-79 27.5q-9 3 -14 4q-45 15 -68.5 23t-67.5 26t-69.5 32t-63 38t-60 48t-48.5 58.5t-40.5 71.5t-24 85.5t-9.5 102.5q0 224 144.5 343.5t406.5 119.5q131 0 264.5 -37.5 t243.5 -111.5l-178 -283q-151 100 -318 100q-61 0 -95 -19t-34 -52q0 -22 15 -40t48.5 -35t65.5 -29t88 -31q10 -3 15 -5q53 -18 86.5 -30.5t84.5 -36t83.5 -46t70.5 -58t59.5 -75t36.5 -93.5t15 -117q0 -246 -162 -381t-454 -135q-152 0 -290 43t-245 122z" />
<glyph unicode="T" horiz-adv-x="1206" d="M39 1151v324h1128v-324h-350v-1151h-428v1151h-350z" />
<glyph unicode="U" horiz-adv-x="1531" d="M117 553v887q110 55 200 55q104 0 166 -59t62 -150v-702q0 -129 58.5 -201t162.5 -72q117 0 181.5 72t64.5 201v856q110 55 196 55q96 0 152.5 -59t56.5 -150v-733q0 -271 -171.5 -422t-479.5 -151q-306 0 -477.5 151t-171.5 422z" />
<glyph unicode="V" horiz-adv-x="1472" d="M-12 1430q36 29 97 47t120 18q56 0 93.5 -7t74 -28.5t64.5 -62.5t52 -107l179 -481l114 -383l107 391l211 678l379 -65l-525 -1430h-430z" />
<glyph unicode="W" horiz-adv-x="2103" d="M-6 1430q35 29 95.5 47t117.5 18q47 0 79.5 -3.5t67.5 -15.5t58.5 -34t44.5 -60t35 -92l139 -540l65 -326l52 354l126 652q38 29 103.5 47t128.5 18q99 0 172 -63t90 -164l92 -572l41 -280l55 309l160 770l383 -65l-409 -1430h-449l-119 582l-75 436l-70 -436l-115 -582 h-436z" />
<glyph unicode="X" horiz-adv-x="1419" d="M-23 0l482 764l-422 666q36 29 99.5 47t125.5 18q133 0 209.5 -30t120.5 -109l145 -256l228 395l417 -65l-421 -666l471 -719q-35 -29 -94 -47t-119 -18q-158 0 -234 30.5t-123 108.5l-188 313l-256 -432h-441z" />
<glyph unicode="Y" horiz-adv-x="1343" d="M-8 1430q38 29 104 47t131 18q123 0 191.5 -31t101.5 -108l123 -283l70 -180l65 188l176 414l394 -65l-461 -871v-559h-428v553z" />
<glyph unicode="Z" horiz-adv-x="1290" d="M47 0v272l541 729l114 150h-604v324h1088q51 -82 51 -166q0 -50 -26.5 -100t-90.5 -138l-442 -600l-121 -147h662v-324h-1172z" />
<glyph unicode="[" horiz-adv-x="819" d="M117 -471v2048h639v-324h-211v-1400h211v-324h-639z" />
<glyph unicode="\" horiz-adv-x="876" d="M51 1518l260 79l514 -1763l-262 -80z" />
<glyph unicode="]" horiz-adv-x="819" d="M63 -147h211v1400h-211v324h639v-2048h-639v324z" />
<glyph unicode="^" horiz-adv-x="1036" d="M57 723l297 752h328l297 -752h-332l-129 424l-129 -424h-332z" />
<glyph unicode="_" horiz-adv-x="1345" d="M84 -18h1178v-207h-1178v207z" />
<glyph unicode="`" horiz-adv-x="561" d="M-45 1362l192 317l420 -340l-106 -188z" />
<glyph unicode="a" d="M37 303q0 171 142 266t403 95h57q-8 54 -38.5 79t-104.5 25q-121 0 -250 -80l-162 252q225 129 483 129q229 0 356.5 -105t127.5 -296v-633q-131 -55 -226 -55q-61 0 -103.5 39t-57.5 104q-57 -81 -127.5 -112t-157.5 -31q-158 0 -250 87t-92 236zM422 344q0 -30 18 -50 t56 -20q145 0 145 166h-47q-82 0 -127 -25.5t-45 -70.5z" />
<glyph unicode="b" horiz-adv-x="1265" d="M98 0v1542q131 55 226 55q86 0 135 -49.5t49 -124.5v-477q108 123 305 123q176 0 285.5 -133.5t109.5 -364.5q0 -281 -158.5 -436t-441.5 -155q-243 0 -510 20zM508 279h57q105 0 166.5 77t61.5 215q0 85 -36.5 132t-103.5 47q-82 0 -113.5 -55t-31.5 -214v-202z" />
<glyph unicode="c" horiz-adv-x="1075" d="M55 526q0 125 42.5 228.5t116 171.5t170.5 105.5t206 37.5q44 0 87.5 -6.5t99 -28.5t100.5 -56.5t84.5 -96t58.5 -142.5l-291 -118q-11 59 -41 94t-76 35q-67 0 -104 -59t-37 -165q0 -105 52.5 -165t142.5 -60q65 0 139.5 23t126.5 57l125 -281q-86 -60 -201 -90 t-227 -30q-269 0 -421.5 144.5t-152.5 401.5z" />
<glyph unicode="d" horiz-adv-x="1263" d="M55 477q0 281 158.5 436.5t441.5 155.5q62 0 101 -2v475q131 55 225 55q86 0 135 -49.5t49 -124.5v-1388q-131 -55 -225 -55q-63 0 -105.5 40.5t-56.5 108.5q-64 -85 -145 -117t-182 -32q-177 0 -286.5 133t-109.5 364zM471 477q0 -85 36 -131.5t103 -46.5 q55 0 85.5 21.5t45.5 80t15 166.5v203h-58q-105 0 -166 -77.5t-61 -215.5z" />
<glyph unicode="e" d="M55 506q0 264 153.5 413.5t426.5 149.5q211 0 327.5 -94.5t116.5 -261.5q0 -158 -144.5 -248t-399.5 -90q-43 0 -66 2q39 -94 178 -94q152 0 271 77l161 -251q-212 -129 -463 -129q-264 0 -412.5 138.5t-148.5 387.5zM457 598q25 -2 71 -2q75 0 115.5 25t40.5 69 q0 30 -22.5 49t-63.5 19q-54 0 -90.5 -42.5t-50.5 -117.5z" />
<glyph unicode="f" horiz-adv-x="892" d="M55 745v304h146v182q0 173 113.5 269.5t318.5 96.5q185 0 332 -63l-52 -299q-74 41 -174 41q-59 0 -94 -30.5t-35 -82.5v-114h260v-304h-260v-745h-409v745h-146z" />
<glyph unicode="g" horiz-adv-x="1263" d="M55 477q0 281 158.5 436.5t441.5 155.5q243 0 510 -20v-1098q0 -211 -137.5 -327t-386.5 -116q-277 0 -524 130l162 251q151 -77 290 -77q60 0 98 13t57 42t25.5 63.5t6.5 89.5v82q-107 -122 -305 -122q-177 0 -286.5 133t-109.5 364zM471 477q0 -85 36 -131.5t103 -46.5 q55 0 85.5 21.5t45.5 80t15 166.5v203h-58q-105 0 -166 -77.5t-61 -215.5z" />
<glyph unicode="h" horiz-adv-x="1269" d="M98 0v1542q131 55 226 55q86 0 135 -49.5t49 -124.5v-489q110 135 293 135q180 0 279.5 -104.5t99.5 -296.5v-668h-410v600q0 70 -27 110t-79 40q-83 0 -119.5 -56.5t-36.5 -212.5v-481h-410z" />
<glyph unicode="i" horiz-adv-x="606" d="M80 1393q0 99 59 154t162 55q102 0 160.5 -55t58.5 -154q0 -101 -58.5 -157t-160.5 -56q-103 0 -162 56t-59 157zM98 0h410v1049h-410v-1049z" />
<glyph unicode="j" horiz-adv-x="606" d="M-6 -201l180 -291q76 28 132 61.5t104 83.5t73 121.5t25 162.5v1112h-410v-1045q0 -91 -28.5 -141.5t-75.5 -63.5zM82 1393q0 99 59 154t162 55q102 0 160.5 -55t58.5 -154q0 -101 -58.5 -157t-160.5 -56q-103 0 -162 56t-59 157z" />
<glyph unicode="k" horiz-adv-x="1288" d="M98 0v1542q131 55 226 55q86 0 135 -49.5t49 -124.5v-1423h-410zM514 551l330 518l373 -57l-285 -420l393 -555q-111 -57 -256 -57q-108 0 -171.5 28t-102.5 90z" />
<glyph unicode="l" horiz-adv-x="712" d="M90 354v1188q131 55 225 55q86 0 135.5 -49.5t49.5 -124.5v-1040q0 -40 22 -61t62 -21q55 0 90 14l51 -258q-122 -77 -274 -77q-171 0 -266 97.5t-95 276.5z" />
<glyph unicode="m" horiz-adv-x="1775" d="M98 0v1014q131 55 226 55q64 0 105.5 -40t57.5 -109q100 149 273 149q185 0 272 -135q65 77 142 106t174 29q160 0 249 -105t89 -296v-668h-410v600q0 150 -70 150q-36 0 -58.5 -21.5t-36 -82t-13.5 -165.5v-481h-410v600q0 150 -72 150q-36 0 -58.5 -21.5t-36 -82 t-13.5 -165.5v-481h-410z" />
<glyph unicode="n" horiz-adv-x="1269" d="M98 0v1014q131 55 226 55q66 0 109.5 -44t55.5 -116q113 160 312 160q180 0 279.5 -104.5t99.5 -296.5v-668h-410v600q0 70 -27 110t-79 40q-83 0 -119.5 -56.5t-36.5 -212.5v-481h-410z" />
<glyph unicode="o" horiz-adv-x="1284" d="M55 524q0 257 154 401t432 144t433 -144t155 -401t-155 -400.5t-433 -143.5t-432 143.5t-154 400.5zM473 524q0 -104 46 -163.5t124 -59.5t124 59.5t46 163.5q0 105 -46 165.5t-124 60.5t-124 -60.5t-46 -165.5z" />
<glyph unicode="p" horiz-adv-x="1265" d="M98 -471v1485q131 55 226 55q63 0 105 -40t56 -109q64 85 145.5 117t182.5 32q176 0 285.5 -133.5t109.5 -364.5q0 -281 -158.5 -436t-441.5 -155q-61 0 -100 2v-453h-410zM508 279h57q105 0 166.5 77t61.5 215q0 85 -36.5 132t-103.5 47q-82 0 -113.5 -55t-31.5 -214 v-202z" />
<glyph unicode="q" horiz-adv-x="1263" d="M55 477q0 281 158.5 436.5t441.5 155.5q243 0 510 -20v-1520h-409v573q-107 -122 -305 -122q-177 0 -286.5 133t-109.5 364zM471 477q0 -85 36 -131.5t103 -46.5q55 0 85.5 21.5t45.5 80t15 166.5v203h-58q-105 0 -166 -77.5t-61 -215.5z" />
<glyph unicode="r" horiz-adv-x="894" d="M98 0v1014q131 55 226 55q67 0 110 -44.5t55 -117.5q95 162 254 162q86 0 168 -37l-118 -356q-59 39 -127 39q-54 0 -87 -25t-52 -95.5t-19 -195.5v-399h-410z" />
<glyph unicode="s" horiz-adv-x="1052" d="M43 123l104 252q83 -57 183 -84t172 -27q51 0 74.5 8t23.5 33q0 32 -151 73q-17 5 -25 7q-53 14 -96 29.5t-91.5 43t-81.5 61t-55 83t-22 109.5q0 168 123.5 263t335.5 95q262 0 448 -139l-141 -215q-149 76 -285 76q-84 0 -84 -33q0 -32 135 -70q66 -18 114.5 -35.5 t103 -47.5t89 -65t57.5 -87.5t23 -116.5q0 -166 -126.5 -261t-350.5 -95q-300 0 -477 143z" />
<glyph unicode="t" horiz-adv-x="940" d="M41 745v304h160v221q131 55 225 55q79 0 124.5 -48.5t45.5 -123.5v-104h283v-304h-283v-333q0 -51 30.5 -81t82.5 -30q87 0 149 41l51 -299q-138 -63 -311 -63q-196 0 -304 96t-108 270v399h-145z" />
<glyph unicode="u" horiz-adv-x="1243" d="M88 381v633q131 55 225 55q87 0 136 -48.5t49 -123.5v-446q0 -71 26.5 -110.5t79.5 -39.5q73 0 104 55.5t31 210.5v447q131 55 226 55q86 0 135 -48.5t49 -123.5v-862q-131 -55 -225 -55q-64 0 -107 42t-57 113q-107 -155 -293 -155q-180 0 -279.5 105.5t-99.5 295.5z " />
<glyph unicode="v" horiz-adv-x="1155" d="M14 1012q44 24 115 40.5t137 16.5q187 0 226 -182l67 -328l37 -229l37 198l121 541l385 -57l-342 -1012h-439z" />
<glyph unicode="w" horiz-adv-x="1751" d="M10 1012q43 24 110 40.5t128 16.5q200 0 239 -182l60 -275l47 -305l65 324l78 379q30 25 78 42t94 17q72 0 127.5 -42t75.5 -140l57 -287l43 -270l60 280l110 459l355 -57l-334 -1012h-406l-106 455l-17 112l-16 -98l-98 -469h-408z" />
<glyph unicode="x" horiz-adv-x="1161" d="M-23 0l369 539l-301 473q48 23 117.5 40t130.5 17q91 0 150.5 -28t97.5 -91l73 -121l140 240l372 -57l-307 -469l348 -506q-94 -57 -217 -57q-223 0 -288 118l-103 185l-166 -283h-416z" />
<glyph unicode="y" horiz-adv-x="1163" d="M23 1012q112 57 237 57q202 0 240 -182l41 -201l73 -354l70 354l80 383l385 -57l-377 -1092q-62 -178 -181.5 -292.5t-238.5 -119.5l-164 261q44 1 97.5 30t100 86t58.5 123l2 12q-95 36 -133 148z" />
<glyph unicode="z" horiz-adv-x="1071" d="M55 0v276l248 256l217 213h-434v304h864q54 -91 54 -160q0 -59 -20 -105.5t-81 -105.5l-268 -258l-119 -117h500v-303h-961z" />
<glyph unicode="{" horiz-adv-x="759" d="M55 389v332q57 0 91 26.5t34 71.5v350q0 91 25 162.5t73 121.5t104 83t132 61l199 -290q-47 -13 -77 -63.5t-30 -141.5v-314q0 -149 -131 -233q131 -87 131 -236v-315q0 -91 30 -141.5t77 -63.5l-199 -291q-76 28 -132 61.5t-104 83.5t-73 121.5t-25 162.5v352 q0 46 -34 73t-91 27z" />
<glyph unicode="|" horiz-adv-x="522" d="M117 -471v2048h289v-2048h-289z" />
<glyph unicode="}" horiz-adv-x="759" d="M47 -201q47 13 77 63.5t30 141.5v315q0 149 131 236q-131 84 -131 233v314q0 91 -30 141.5t-77 63.5l199 290q76 -28 132 -61t104 -83t73 -121.5t25 -162.5v-350q0 -45 34 -71.5t91 -26.5v-332q-57 0 -91 -27t-34 -73v-352q0 -91 -25 -162.5t-73 -121.5t-104 -83.5 t-132 -61.5z" />
<glyph unicode="~" horiz-adv-x="1224" d="M68 434q32 110 122.5 183t190.5 73q88 0 187.5 -23t186 -46t144.5 -23q101 0 164 107l94 -134q-56 -125 -145.5 -189.5t-196.5 -64.5q-68 0 -141 15.5t-125 34t-112 34t-105 15.5q-97 0 -164 -113z" />
<glyph unicode="&#xa2;" horiz-adv-x="1134" d="M76 526q0 122 40.5 224t110.5 170t162.5 106.5t198.5 42.5v127h88v-131q43 -5 83 -16.5t85.5 -36t81.5 -59.5t67 -90t47 -124l-290 -118q-16 91 -74 118v-438h10q65 0 139.5 23t126.5 57l125 -281q-81 -56 -188 -86.5t-213 -33.5v-127h-88v129q-242 17 -377 159.5 t-135 384.5zM492 524q0 -76 24.5 -131t71.5 -78v426q-47 -13 -71.5 -70t-24.5 -147z" />
<glyph unicode="&#xa3;" horiz-adv-x="1155" d="M88 0v285h37q47 0 74 57t32 160h-137v276h137v137q0 181 124.5 280t346.5 99q102 0 202.5 -23t168.5 -63l-39 -293q-35 23 -103.5 41.5t-123.5 18.5q-83 0 -124.5 -34t-41.5 -93v-70h289v-276h-289v-41q0 -91 -37 -158h455v-303h-971z" />
<glyph unicode="&#xa5;" horiz-adv-x="1294" d="M51 1231q36 27 101 45t127 18q214 0 276 -133l127 -276l182 409l377 -63l-352 -682h162v-275h-199v-274h-410v274h-200v275h161z" />
<glyph unicode="&#xa8;" horiz-adv-x="1114" d="M94 1393q0 99 59 154t162 55q102 0 161 -55t59 -154q0 -100 -59 -156.5t-161 -56.5q-103 0 -162 56t-59 157zM580 1393q0 99 59 154t162 55q102 0 160.5 -55t58.5 -154q0 -101 -58.5 -157t-160.5 -56q-103 0 -162 56t-59 157z" />
<glyph unicode="&#xa9;" horiz-adv-x="1894" d="M66 737q0 358 232.5 558t649.5 200q413 0 647 -200.5t234 -557.5t-234 -557t-647 -200q-418 0 -650 199.5t-232 557.5zM403 737q0 -234 143.5 -364.5t399.5 -130.5q255 0 400 130.5t145 364.5t-145 365t-400 131t-399 -131t-144 -365zM526 743q0 186 120 297t290 111 q34 0 67 -5t76.5 -21.5t78.5 -44t65.5 -77t44.5 -114.5l-236 -96q-16 94 -76 94q-40 0 -61 -37.5t-21 -106.5q0 -68 34.5 -105.5t95.5 -37.5q48 0 102.5 15t91.5 38l100 -227q-63 -46 -152.5 -69t-176.5 -23q-209 0 -326 108.5t-117 300.5z" />
<glyph unicode="&#xab;" horiz-adv-x="1282" d="M47 512l340 537l297 -175l-207 -362l207 -362l-297 -175zM584 512l340 537l297 -175l-207 -362l207 -362l-297 -175z" />
<glyph unicode="&#xad;" horiz-adv-x="921" d="M100 362v340h721v-340h-721z" />
<glyph unicode="&#xae;" horiz-adv-x="1081" d="M63 1106q0 183 127.5 286t350.5 103t350 -103t127 -286t-127 -286t-350 -103t-350.5 103t-127.5 286zM199 1106q0 -133 90.5 -208t251.5 -75t251.5 75t90.5 208t-90.5 208t-251.5 75t-251.5 -75t-90.5 -208zM375 907v398q46 6 151 6q94 0 147.5 -34.5t53.5 -98.5 q0 -58 -51 -97q45 -28 51 -84l2 -16q5 -36 14 -57q-51 -23 -81 -23q-35 0 -54 20t-22 52l-2 20q-1 18 -13 27.5t-28 9.5h-23v-123h-145zM520 1135h17q24 0 33.5 9t9.5 30q0 18 -12.5 25t-41.5 7h-6v-71z" />
<glyph unicode="&#xb4;" horiz-adv-x="602" d="M-6 1339l420 340l192 -317l-506 -211z" />
<glyph unicode="&#xb8;" horiz-adv-x="522" d="M20 -444l66 143q51 -33 115 -33q92 0 92 53q0 31 -51.5 58t-155.5 37l139 223h228l-95 -129q146 -55 146 -191q0 -102 -73.5 -155.5t-205.5 -53.5q-103 0 -205 48z" />
<glyph unicode="&#xbb;" horiz-adv-x="1282" d="M61 150l207 362l-207 362l297 175l340 -537l-340 -537zM598 150l207 362l-207 362l297 175l340 -537l-340 -537z" />
<glyph unicode="&#xd3;" horiz-adv-x="1654" d="M66 737q0 358 201 558t562 200q358 0 559 -200t201 -558q0 -357 -201 -557t-559 -200q-361 0 -562 199.5t-201 557.5zM508 737q0 -199 85 -312.5t234 -113.5t233.5 113t84.5 313t-84.5 313t-233.5 113t-234 -113.5t-85 -312.5zM575 1765l420 340l193 -317l-506 -211z" />
<glyph unicode="&#xf3;" horiz-adv-x="1284" d="M55 524q0 257 154 401t432 144t433 -144t155 -401t-155 -400.5t-433 -143.5t-432 143.5t-154 400.5zM393 1339l420 340l193 -317l-506 -211zM473 524q0 -104 46 -163.5t124 -59.5t124 59.5t46 163.5q0 105 -46 165.5t-124 60.5t-124 -60.5t-46 -165.5z" />
<glyph unicode="&#x104;" horiz-adv-x="1460" d="M-31 0l537 1440q110 55 223 55q205 0 293 -229l469 -1266q-217 -176 -217 -270q0 -64 78 -64q60 0 125 33l36 -137q-110 -54 -233 -54q-102 0 -160.5 52.5t-58.5 144.5q0 83 60 151.5t175 143.5h-256l-90 274h-487l-90 -274h-404zM571 598h271l-135 451z" />
<glyph unicode="&#x105;" d="M37 303q0 171 142 266t403 95h57q-8 54 -38.5 79t-104.5 25q-121 0 -250 -80l-162 252q225 129 483 129q229 0 356.5 -105t127.5 -296v-633q-114 -101 -165.5 -179t-51.5 -126q0 -64 77 -64q54 0 125 33l37 -137q-110 -54 -233 -54q-103 0 -161 52.5t-58 144.5 q0 77 45 143t129 134q-50 9 -83.5 46.5t-47.5 94.5q-57 -81 -127.5 -112t-157.5 -31q-158 0 -250 87t-92 236zM422 344q0 -30 18 -50t56 -20q145 0 145 166h-47q-82 0 -127 -25.5t-45 -70.5z" />
<glyph unicode="&#x106;" horiz-adv-x="1359" d="M66 737q0 219 77.5 389t231 269.5t362.5 99.5q394 0 574 -332l-393 -153q-34 75 -76.5 114t-102.5 39q-44 0 -83 -22t-73.5 -69t-54.5 -133t-20 -202t26.5 -201.5t73.5 -133t102 -69.5t121 -22q81 0 175 38t180 108l162 -289q-92 -87 -244 -137.5t-322 -50.5 q-224 0 -388 99.5t-246 269t-82 388.5zM487 1765l420 340l193 -317l-506 -211z" />
<glyph unicode="&#x107;" horiz-adv-x="1075" d="M55 526q0 125 42.5 228.5t116 171.5t170.5 105.5t206 37.5q44 0 87.5 -6.5t99 -28.5t100.5 -56.5t84.5 -96t58.5 -142.5l-291 -118q-11 59 -41 94t-76 35q-67 0 -104 -59t-37 -165q0 -105 52.5 -165t142.5 -60q65 0 139.5 23t126.5 57l125 -281q-86 -60 -201 -90 t-227 -30q-269 0 -421.5 144.5t-152.5 401.5zM340 1339l420 340l192 -317l-506 -211z" />
<glyph unicode="&#x118;" horiz-adv-x="1255" d="M131 0v1475h1026v-324h-598v-238h526v-323h-526v-266h621v-324q-217 -176 -217 -270q0 -64 77 -64q60 0 125 33l37 -137q-110 -54 -233 -54q-102 0 -160.5 52.5t-58.5 144.5q0 83 60 151.5t175 143.5h-854z" />
<glyph unicode="&#x119;" d="M55 506q0 264 153.5 413.5t426.5 149.5q211 0 327.5 -94.5t116.5 -261.5q0 -158 -144.5 -248t-399.5 -90q-43 0 -66 2q39 -94 178 -94q152 0 271 77l161 -251l-39 -23q-399 -234 -399 -356q0 -64 78 -64q54 0 125 33l37 -137q-110 -54 -234 -54q-103 0 -161 52.5 t-58 144.5q0 141 197 275h-9q-264 0 -412.5 138.5t-148.5 387.5zM457 598q25 -2 71 -2q75 0 115.5 25t40.5 69q0 30 -22.5 49t-63.5 19q-54 0 -90.5 -42.5t-50.5 -117.5z" />
<glyph unicode="&#x141;" horiz-adv-x="1187" d="M29 498v278l125 43v621q110 55 200 55q104 0 166 -59t62 -150v-346l342 129v-276l-342 -129v-328h579v-336h-1007v541z" />
<glyph unicode="&#x142;" horiz-adv-x="825" d="M63 498v278l93 43v723q131 55 225 55q86 0 135 -49.5t49 -124.5v-444l193 90v-276l-193 -93v-317q0 -40 22 -61t62 -21q55 0 90 14l52 -258q-122 -77 -275 -77q-171 0 -265.5 97.5t-94.5 276.5v187z" />
<glyph unicode="&#x143;" horiz-adv-x="1607" d="M131 0v1440q75 55 176 55q77 0 134.5 -33t113.5 -108l528 -672l-12 793h406v-1475h-338l-615 780l13 -780h-406zM555 1765l420 340l192 -317l-505 -211z" />
<glyph unicode="&#x144;" horiz-adv-x="1269" d="M98 0v1014q131 55 226 55q66 0 109.5 -44t55.5 -116q113 160 312 160q180 0 279.5 -104.5t99.5 -296.5v-668h-410v600q0 70 -27 110t-79 40q-83 0 -119.5 -56.5t-36.5 -212.5v-481h-410zM391 1339l420 340l193 -317l-506 -211z" />
<glyph unicode="&#x15a;" horiz-adv-x="1257" d="M45 145l131 293q169 -127 430 -127q73 0 114.5 24.5t41.5 67.5q0 26 -16 47t-43.5 36.5t-64.5 29t-79 27.5q-9 3 -14 4q-45 15 -68.5 23t-67.5 26t-69.5 32t-63 38t-60 48t-48.5 58.5t-40.5 71.5t-24 85.5t-9.5 102.5q0 224 144.5 343.5t406.5 119.5q131 0 264.5 -37.5 t243.5 -111.5l-178 -283q-151 100 -318 100q-61 0 -95 -19t-34 -52q0 -22 15 -40t48.5 -35t65.5 -29t88 -31q10 -3 15 -5q53 -18 86.5 -30.5t84.5 -36t83.5 -46t70.5 -58t59.5 -75t36.5 -93.5t15 -117q0 -246 -162 -381t-454 -135q-152 0 -290 43t-245 122zM371 1765 l420 340l192 -317l-506 -211z" />
<glyph unicode="&#x15b;" horiz-adv-x="1052" d="M43 123l104 252q83 -57 183 -84t172 -27q51 0 74.5 8t23.5 33q0 32 -151 73q-17 5 -25 7q-53 14 -96 29.5t-91.5 43t-81.5 61t-55 83t-22 109.5q0 168 123.5 263t335.5 95q262 0 448 -139l-141 -215q-149 76 -285 76q-84 0 -84 -33q0 -32 135 -70q66 -18 114.5 -35.5 t103 -47.5t89 -65t57.5 -87.5t23 -116.5q0 -166 -126.5 -261t-350.5 -95q-300 0 -477 143zM270 1339l420 340l193 -317l-506 -211z" />
<glyph unicode="&#x179;" horiz-adv-x="1290" d="M47 0v272l541 729l114 150h-604v324h1088q51 -82 51 -166q0 -50 -26.5 -100t-90.5 -138l-442 -600l-121 -147h662v-324h-1172zM385 1765l420 340l192 -317l-505 -211z" />
<glyph unicode="&#x17a;" horiz-adv-x="1071" d="M55 0v276l248 256l217 213h-434v304h864q54 -91 54 -160q0 -59 -20 -105.5t-81 -105.5l-268 -258l-119 -117h500v-303h-961zM287 1339l420 340l192 -317l-506 -211z" />
<glyph unicode="&#x17b;" horiz-adv-x="1290" d="M47 0v272l541 729l114 150h-604v324h1088q51 -82 51 -166q0 -50 -26.5 -100t-90.5 -138l-442 -600l-121 -147h662v-324h-1172zM416 1819q0 99 59 154t162 55q102 0 160.5 -55t58.5 -154q0 -101 -58.5 -157t-160.5 -56q-103 0 -162 56t-59 157z" />
<glyph unicode="&#x17c;" horiz-adv-x="1071" d="M55 0v276l248 256l217 213h-434v304h864q54 -91 54 -160q0 -59 -20 -105.5t-81 -105.5l-268 -258l-119 -117h500v-303h-961zM317 1393q0 99 59 154t163 55q102 0 160.5 -55t58.5 -154q0 -101 -58.5 -157t-160.5 -56q-103 0 -162.5 56t-59.5 157z" />
<glyph unicode="&#x2c6;" horiz-adv-x="827" d="M-6 1339l420 320l420 -320l-107 -188l-313 160l-314 -160z" />
<glyph unicode="&#x2da;" horiz-adv-x="579" d="M-10 1405q0 124 80 194t219 70q140 0 219.5 -70t79.5 -194t-79.5 -193t-219.5 -69q-139 0 -219 69t-80 193zM207 1405q0 -43 23 -67.5t61 -24.5t61 24.5t23 67.5t-23 68.5t-61 25.5t-61 -25.5t-23 -68.5z" />
<glyph unicode="&#x2dc;" horiz-adv-x="966" d="M68 1288q29 100 111 171t169 71q64 0 166 -39t143 -39q42 0 83 19.5t71 52.5l94 -123q-57 -119 -137.5 -181.5t-175.5 -62.5q-63 0 -155 40t-130 40q-78 0 -145 -74z" />
<glyph unicode="&#x400;" horiz-adv-x="1255" d="M131 0v1475h1026v-324h-598v-238h526v-323h-526v-266h621v-324h-1049zM299 1788l193 317l419 -340l-106 -188z" />
<glyph unicode="&#x401;" horiz-adv-x="1255" d="M131 0v1475h1026v-324h-598v-238h526v-323h-526v-266h621v-324h-1049zM199 1819q0 99 59 154t162 55q102 0 160.5 -55t58.5 -154q0 -101 -58.5 -157t-160.5 -56q-103 0 -162 56t-59 157zM684 1819q0 99 59 154t162 55q102 0 160.5 -55t58.5 -154q0 -101 -58.5 -157 t-160.5 -56q-103 0 -162 56t-59 157z" />
<glyph unicode="&#x402;" horiz-adv-x="1642" d="M41 1151v324h1128v-324h-391v-277q141 201 377 201q209 0 325.5 -144.5t116.5 -404.5q0 -258 -163.5 -402t-458.5 -144v331q91 0 142.5 56.5t51.5 158.5q0 103 -41 160t-114 57q-236 0 -236 -434v-309h-428v1151h-309z" />
<glyph unicode="&#x403;" horiz-adv-x="1107" d="M131 0v1475h952v-324h-524v-1151h-428zM303 1765l420 340l192 -317l-505 -211z" />
<glyph unicode="&#x404;" horiz-adv-x="1366" d="M66 737q0 163 45 301.5t129 240t211.5 159t283.5 57.5q394 0 576 -332l-396 -153q-67 153 -176 153q-75 0 -133.5 -61t-83.5 -193h469v-323h-469q29 -144 111.5 -209.5t195.5 -65.5q82 0 176.5 38t178.5 108l162 -289q-90 -87 -242.5 -137.5t-321.5 -50.5t-305.5 57 t-226 158.5t-137 240t-47.5 301.5z" />
<glyph unicode="&#x405;" horiz-adv-x="1257" d="M45 145l131 293q169 -127 430 -127q73 0 114.5 24.5t41.5 67.5q0 26 -16 47t-43.5 36.5t-64.5 29t-79 27.5q-9 3 -14 4q-45 15 -68.5 23t-67.5 26t-69.5 32t-63 38t-60 48t-48.5 58.5t-40.5 71.5t-24 85.5t-9.5 102.5q0 224 144.5 343.5t406.5 119.5q131 0 264.5 -37.5 t243.5 -111.5l-178 -283q-151 100 -318 100q-61 0 -95 -19t-34 -52q0 -22 15 -40t48.5 -35t65.5 -29t88 -31q10 -3 15 -5q53 -18 86.5 -30.5t84.5 -36t83.5 -46t70.5 -58t59.5 -75t36.5 -93.5t15 -117q0 -246 -162 -381t-454 -135q-152 0 -290 43t-245 122z" />
<glyph unicode="&#x406;" horiz-adv-x="686" d="M131 0v1440q110 55 201 55q104 0 165.5 -59t61.5 -150v-1286h-428z" />
<glyph unicode="&#x407;" horiz-adv-x="686" d="M-117 1819q0 99 59 154t162 55q102 0 161 -55t59 -154q0 -100 -59 -156.5t-161 -56.5q-103 0 -162 56t-59 157zM131 0v1440q110 55 201 55q104 0 165.5 -59t61.5 -150v-1286h-428zM369 1819q0 99 59 154t162 55q102 0 160.5 -55t58.5 -154q0 -101 -58.5 -157t-160.5 -56 q-103 0 -162 56t-59 157z" />
<glyph unicode="&#x408;" horiz-adv-x="899" d="M18 43q144 -63 322 -63q207 0 323.5 102t116.5 285v919q0 91 -61.5 150t-165.5 59q-91 0 -201 -55v-996q0 -63 -28.5 -98t-83.5 -35q-93 0 -170 41z" />
<glyph unicode="&#x409;" horiz-adv-x="2295" d="M14 283q108 37 153 106t54 219l53 867h1217v-564q47 2 139 2q299 0 465 -129.5t166 -365.5q0 -209 -166 -323.5t-465 -114.5q-280 0 -567 20v1151h-426l-35 -610q-7 -123 -35.5 -215t-81.5 -157t-120.5 -109t-163.5 -80zM1491 305q55 -2 141 -2q88 0 136.5 37.5 t48.5 105.5q0 69 -48.5 106.5t-136.5 37.5q-94 0 -141 -2v-283z" />
<glyph unicode="&#x40a;" horiz-adv-x="2281" d="M131 0v1440q110 55 201 55q104 0 165.5 -59t61.5 -150v-379h490v533q110 55 200 55q104 0 166 -59t62 -150v-375q47 2 139 2q299 0 465 -129.5t166 -365.5q0 -209 -166 -323.5t-465 -114.5q-280 0 -567 20v584h-490v-584h-428zM1477 305q55 -2 141 -2q88 0 136 37.5 t48 105.5q0 69 -48 106.5t-136 37.5q-94 0 -141 -2v-283z" />
<glyph unicode="&#x40b;" horiz-adv-x="1693" d="M41 1151v324h1128v-324h-391v-285q148 209 402 209q206 0 322 -133.5t116 -366.5v-575h-428v494q0 115 -42 182t-118 67q-252 0 -252 -434v-309h-428v1151h-309z" />
<glyph unicode="&#x40c;" horiz-adv-x="1452" d="M131 0v1440q110 55 201 55q104 0 165.5 -59t61.5 -150v-1286h-428zM518 1765l420 340l192 -317l-505 -211zM569 745l387 750l392 -65l-347 -629l486 -756q-37 -29 -98.5 -47t-124.5 -18q-138 0 -206 32.5t-112 106.5z" />
<glyph unicode="&#x40d;" horiz-adv-x="1603" d="M131 0v1440q110 55 201 55q104 0 165.5 -59t61.5 -150v-547l490 484v217q110 55 200 55q104 0 166 -59t62 -150v-1286h-428v686l-490 -481v-205h-428zM442 1788l193 317l420 -340l-107 -188z" />
<glyph unicode="&#x40e;" horiz-adv-x="1236" d="M10 1430q37 29 96.5 47t118.5 18q63 0 106 -7t85.5 -27.5t73 -62.5t51.5 -108l41 -129l75 -248l211 582l377 -65l-434 -1039q-73 -175 -209.5 -290.5t-271.5 -120.5l-178 278q77 8 152.5 65t131.5 156l17 29q-59 40 -101 131zM248 1952h282q0 -51 27.5 -82t71.5 -31 q43 0 69.5 31t26.5 82h285q0 -161 -101 -252.5t-280 -91.5q-180 0 -280.5 91t-100.5 253z" />
<glyph unicode="&#x40f;" horiz-adv-x="1533" d="M131 0v1440q110 55 201 55q104 0 165.5 -59t61.5 -150v-962h420v1116q110 55 201 55q104 0 165.5 -59t61.5 -150v-1286h-424v-190q-112 -56 -205 -56q-101 0 -162 59t-61 150v37h-424z" />
<glyph unicode="&#x410;" horiz-adv-x="1460" d="M-31 0l537 1440q110 55 223 55q205 0 293 -229l469 -1266h-451l-90 274h-487l-90 -274h-404zM571 598h271l-135 451z" />
<glyph unicode="&#x411;" horiz-adv-x="1363" d="M131 0v1475h1051v-324h-623v-240q47 2 139 2q299 0 465 -129.5t166 -365.5q0 -209 -166 -323.5t-465 -114.5q-280 0 -567 20zM559 305q55 -2 141 -2q88 0 136.5 37.5t48.5 105.5q0 69 -48.5 106.5t-136.5 37.5q-94 0 -141 -2v-283z" />
<glyph unicode="&#x412;" horiz-adv-x="1404" d="M131 0v1475q293 20 526 20q297 0 464 -111.5t167 -308.5q0 -198 -168 -309q230 -113 230 -348q0 -209 -172 -323.5t-480 -114.5q-280 0 -567 20zM559 305q55 -2 141 -2q97 0 151 38t54 105q0 69 -54 106.5t-151 37.5h-141v-285zM559 913h100q91 0 138 34.5t47 96.5 q0 127 -185 127q-61 0 -100 -2v-256z" />
<glyph unicode="&#x413;" horiz-adv-x="1107" d="M131 0v1475h952v-324h-524v-1151h-428z" />
<glyph unicode="&#x414;" horiz-adv-x="1744" d="M16 -37v332q122 32 177 144.5t67 351.5l37 684h1202v-1162h201v-503q-112 -56 -205 -56q-101 0 -162 59t-61 150v37h-854l-17 -190q-98 -56 -182 -56q-92 0 -147.5 59t-55.5 150zM539 324h532v827h-407l-21 -428q-11 -259 -104 -399z" />
<glyph unicode="&#x415;" horiz-adv-x="1255" d="M131 0v1475h1026v-324h-598v-238h526v-323h-526v-266h621v-324h-1049z" />
<glyph unicode="&#x416;" horiz-adv-x="2043" d="M14 0l361 793l-285 637q37 29 96.5 47t118.5 18q107 0 167 -36t95 -124l238 -594l-318 -741h-473zM815 0v1440q110 55 201 55q104 0 165.5 -59t61.5 -150v-1286h-428zM1251 745l279 750l407 -65l-258 -617l363 -768q-40 -29 -102.5 -47t-124.5 -18q-145 0 -217 38.5 t-113 141.5z" />
<glyph unicode="&#x417;" horiz-adv-x="1308" d="M2 188l150 256q84 -69 189 -101t208 -32q123 0 191.5 40t68.5 114q0 72 -61.5 114t-165.5 42h-201v280h147q91 0 142 33.5t51 97.5q0 63 -46 97t-128 34q-200 0 -352 -86l-109 271q123 74 268 110.5t281 36.5q250 0 389 -101t139 -288q0 -124 -68.5 -210t-191.5 -110 q167 -25 257.5 -116t90.5 -236q0 -215 -173 -334.5t-486 -119.5q-344 0 -590 208z" />
<glyph unicode="&#x418;" horiz-adv-x="1603" d="M131 0v1440q110 55 201 55q104 0 165.5 -59t61.5 -150v-547l490 484v217q110 55 200 55q104 0 166 -59t62 -150v-1286h-428v686l-490 -481v-205h-428z" />
<glyph unicode="&#x419;" horiz-adv-x="1603" d="M131 0v1440q110 55 201 55q104 0 165.5 -59t61.5 -150v-547l490 484v217q110 55 200 55q104 0 166 -59t62 -150v-1286h-428v686l-490 -481v-205h-428zM424 1952h283q0 -51 27 -82t71 -31q43 0 69.5 31t26.5 82h285q0 -161 -101 -252.5t-280 -91.5q-180 0 -280.5 91 t-100.5 253z" />
<glyph unicode="&#x41a;" horiz-adv-x="1452" d="M131 0v1440q110 55 201 55q104 0 165.5 -59t61.5 -150v-1286h-428zM569 745l387 750l392 -65l-347 -629l486 -756q-37 -29 -98.5 -47t-124.5 -18q-138 0 -206 32.5t-112 106.5z" />
<glyph unicode="&#x41b;" horiz-adv-x="1622" d="M14 283q108 37 153 106t54 219l53 867h1217v-1475h-428v1151h-426l-35 -610q-7 -123 -35.5 -215t-81.5 -157t-120.5 -109t-163.5 -80z" />
<glyph unicode="&#x41c;" horiz-adv-x="1982" d="M63 0l164 1440q41 22 101 38.5t106 16.5q117 0 191.5 -37.5t103.5 -126.5l295 -891l297 994q87 61 201 61q113 0 166 -49t73 -184l164 -1262h-436l-70 793l-256 -793h-383l-270 805l-59 -805h-388z" />
<glyph unicode="&#x41d;" horiz-adv-x="1603" d="M131 0v1440q110 55 201 55q104 0 165.5 -59t61.5 -150v-379h490v533q110 55 200 55q104 0 166 -59t62 -150v-1286h-428v584h-490v-584h-428z" />
<glyph unicode="&#x41e;" horiz-adv-x="1654" d="M66 737q0 358 201 558t562 200q358 0 559 -200t201 -558q0 -357 -201 -557t-559 -200q-361 0 -562 199.5t-201 557.5zM508 737q0 -199 85 -312.5t234 -113.5t233.5 113t84.5 313t-84.5 313t-233.5 113t-234 -113.5t-85 -312.5z" />
<glyph unicode="&#x41f;" horiz-adv-x="1579" d="M131 0v1475h1317v-1475h-428v1151h-461v-1151h-428z" />
<glyph unicode="&#x420;" horiz-adv-x="1363" d="M131 0v1475q95 8 280 14t285 6q299 0 467 -128t168 -355q0 -234 -167.5 -365t-469.5 -131q-86 0 -135 2v-518h-428zM559 842q47 -2 133 -2q97 0 147 45.5t50 126.5q0 74 -51.5 116.5t-143.5 42.5q-82 0 -135 -2v-327z" />
<glyph unicode="&#x421;" horiz-adv-x="1359" d="M66 737q0 219 77.5 389t231 269.5t362.5 99.5q394 0 574 -332l-393 -153q-34 75 -76.5 114t-102.5 39q-44 0 -83 -22t-73.5 -69t-54.5 -133t-20 -202t26.5 -201.5t73.5 -133t102 -69.5t121 -22q81 0 175 38t180 108l162 -289q-92 -87 -244 -137.5t-322 -50.5 q-224 0 -388 99.5t-246 269t-82 388.5z" />
<glyph unicode="&#x422;" horiz-adv-x="1206" d="M39 1151v324h1128v-324h-350v-1151h-428v1151h-350z" />
<glyph unicode="&#x423;" horiz-adv-x="1236" d="M10 1430q37 29 96.5 47t118.5 18q63 0 106 -7t85.5 -27.5t73 -62.5t51.5 -108l41 -129l75 -248l211 582l377 -65l-434 -1039q-73 -175 -209.5 -290.5t-271.5 -120.5l-178 278q77 8 152.5 65t131.5 156l17 29q-59 40 -101 131z" />
<glyph unicode="&#x424;" horiz-adv-x="1759" d="M51 737q0 267 162.5 422.5t454.5 167.5v113q110 55 200 55q92 0 151 -46.5t73 -121.5q293 -12 455.5 -167.5t162.5 -422.5t-161 -421.5t-453 -168.5v-147h-428v147q-292 12 -454.5 167.5t-162.5 422.5zM494 737q0 -108 46 -176.5t128 -85.5v524q-82 -17 -128 -85.5 t-46 -176.5zM1096 475q82 17 127 85.5t45 176.5t-45 176.5t-127 85.5v-524z" />
<glyph unicode="&#x425;" horiz-adv-x="1419" d="M-23 0l482 764l-422 666q36 29 99.5 47t125.5 18q133 0 209.5 -30t120.5 -109l145 -256l228 395l417 -65l-421 -666l471 -719q-35 -29 -94 -47t-119 -18q-158 0 -234 30.5t-123 108.5l-188 313l-256 -432h-441z" />
<glyph unicode="&#x426;" horiz-adv-x="1650" d="M131 0v1440q110 55 201 55q104 0 165.5 -59t61.5 -150v-962h420v1116q110 55 201 55q104 0 165.5 -59t61.5 -150v-973h201v-503q-112 -56 -205 -56q-101 0 -162 59t-61 150v37h-1049z" />
<glyph unicode="&#x427;" horiz-adv-x="1466" d="M90 899v541q110 55 201 55q104 0 165.5 -59t61.5 -150v-305q0 -116 36.5 -183t104.5 -67q248 0 248 434v310h428v-1475h-428v604q-145 -205 -389 -205q-202 0 -315 133.5t-113 366.5z" />
<glyph unicode="&#x428;" horiz-adv-x="2220" d="M131 0v1440q110 55 201 55q104 0 165.5 -59t61.5 -150v-962h338v1116q110 55 201 55q104 0 165.5 -59t61.5 -150v-962h340v1116q110 55 201 55q104 0 165.5 -59t61.5 -150v-1286h-1962z" />
<glyph unicode="&#x429;" horiz-adv-x="2336" d="M131 0v1440q110 55 201 55q104 0 165.5 -59t61.5 -150v-962h338v1116q110 55 201 55q104 0 165.5 -59t61.5 -150v-962h340v1116q110 55 201 55q104 0 165.5 -59t61.5 -150v-973h201v-503q-112 -56 -205 -56q-101 0 -162 59t-61 150v37h-1735z" />
<glyph unicode="&#x42a;" horiz-adv-x="1585" d="M29 1151v324h751v-564q47 2 140 2q298 0 464 -129.5t166 -365.5q0 -209 -165.5 -323.5t-464.5 -114.5q-281 0 -568 20v1151h-323zM780 305q55 -2 142 -2q88 0 136 37.5t48 105.5q0 69 -48 106.5t-136 37.5q-95 0 -142 -2v-283z" />
<glyph unicode="&#x42b;" horiz-adv-x="2050" d="M131 0v1440q110 55 201 55q104 0 165.5 -59t61.5 -150v-375q47 2 139 2q299 0 465 -129.5t166 -365.5q0 -209 -166 -323.5t-465 -114.5q-280 0 -567 20zM559 305q55 -2 141 -2q88 0 136.5 37.5t48.5 105.5q0 69 -48.5 106.5t-136.5 37.5q-94 0 -141 -2v-283zM1495 0v1440 q110 55 201 55q104 0 165.5 -59t61.5 -150v-1286h-428z" />
<glyph unicode="&#x42c;" horiz-adv-x="1363" d="M131 0v1440q110 55 201 55q104 0 165.5 -59t61.5 -150v-375q47 2 139 2q299 0 465 -129.5t166 -365.5q0 -209 -166 -323.5t-465 -114.5q-280 0 -567 20zM559 305q55 -2 141 -2q88 0 136.5 37.5t48.5 105.5q0 69 -48.5 106.5t-136.5 37.5q-94 0 -141 -2v-283z" />
<glyph unicode="&#x42d;" horiz-adv-x="1366" d="M20 168l162 289q84 -70 178.5 -108t176.5 -38q113 0 195.5 65.5t111.5 209.5h-469v323h469q-25 132 -83.5 193t-133.5 61q-109 0 -176 -153l-396 153q182 332 576 332q156 0 283.5 -57.5t211.5 -159t129 -240t45 -301.5t-47.5 -301.5t-137 -240t-226 -158.5t-305.5 -57 t-321.5 50.5t-242.5 137.5z" />
<glyph unicode="&#x42e;" horiz-adv-x="2115" d="M131 0v1440q110 55 201 55q104 0 165.5 -59t61.5 -150v-375h125q41 279 214.5 431.5t449.5 152.5q330 0 515 -200t185 -558t-185 -557.5t-515 -199.5q-281 0 -456 159.5t-212 448.5h-121v-588h-428zM1094 737q0 -200 67 -313t187 -113t188 113t68 313t-68 313t-188 113 t-187 -113t-67 -313z" />
<glyph unicode="&#x42f;" horiz-adv-x="1452" d="M-8 0l397 647q-127 57 -193.5 155.5t-66.5 231.5q0 217 171.5 339t479.5 122q292 0 541 -20v-1475h-428v578q-58 -7 -96 -7h-11l-342 -571h-452zM571 1012q0 -73 59 -114.5t167 -41.5q30 0 96 4v305h-100q-106 0 -164 -40t-58 -113z" />
<glyph unicode="&#x430;" d="M37 303q0 171 142 266t403 95h57q-8 54 -38.5 79t-104.5 25q-121 0 -250 -80l-162 252q225 129 483 129q229 0 356.5 -105t127.5 -296v-633q-131 -55 -226 -55q-61 0 -103.5 39t-57.5 104q-57 -81 -127.5 -112t-157.5 -31q-158 0 -250 87t-92 236zM422 344q0 -30 18 -50 t56 -20q145 0 145 166h-47q-82 0 -127 -25.5t-45 -70.5z" />
<glyph unicode="&#x431;" horiz-adv-x="1298" d="M70 612q0 428 161.5 662t452.5 272l391 51q36 -41 62 -98t26 -104q0 -59 -55.5 -102.5t-140.5 -55.5l-242 -37q-120 -19 -185 -72t-94 -188q111 129 320 129q224 0 350.5 -144.5t126.5 -400.5q0 -257 -155 -400.5t-433 -143.5t-431.5 166t-153.5 466zM487 524 q0 -104 46 -163.5t124 -59.5t124 59.5t46 163.5q0 105 -46 165.5t-124 60.5t-124 -60.5t-46 -165.5z" />
<glyph unicode="&#x432;" horiz-adv-x="1148" d="M98 0v1049q173 20 469 20q233 0 362.5 -86.5t129.5 -243.5q0 -129 -133 -202q170 -69 170 -218q0 -160 -133.5 -249.5t-372.5 -89.5q-274 0 -492 20zM506 270h90q43 0 69.5 24t26.5 64q0 36 -26.5 58t-69.5 22h-90v-168zM506 625h67q41 0 66 21.5t25 55.5t-25 56t-66 22 h-67v-155z" />
<glyph unicode="&#x433;" horiz-adv-x="937" d="M98 0v1049h811v-304h-401v-745h-410z" />
<glyph unicode="&#x434;" horiz-adv-x="1411" d="M37 -27v308q100 43 148.5 115t58.5 222l30 431h916v-750h184v-489q-134 -56 -225 -56q-87 0 -135.5 61.5t-48.5 157.5v27h-543l-16 -190q-123 -56 -205 -56q-77 0 -120.5 61.5t-43.5 157.5zM512 297h268v455h-172l-12 -201q-9 -148 -84 -254z" />
<glyph unicode="&#x435;" d="M55 506q0 264 153.5 413.5t426.5 149.5q211 0 327.5 -94.5t116.5 -261.5q0 -158 -144.5 -248t-399.5 -90q-43 0 -66 2q39 -94 178 -94q152 0 271 77l161 -251q-212 -129 -463 -129q-264 0 -412.5 138.5t-148.5 387.5zM457 598q25 -2 71 -2q75 0 115.5 25t40.5 69 q0 30 -22.5 49t-63.5 19q-54 0 -90.5 -42.5t-50.5 -117.5z" />
<glyph unicode="&#x436;" horiz-adv-x="1796" d="M6 0l291 565l-242 447q94 57 219 57q91 0 146 -28t84 -91l186 -401l-264 -549h-420zM696 0v1014q131 55 226 55q86 0 135 -48.5t49 -123.5v-897h-410zM1112 551l250 518l356 -57l-209 -410l287 -565q-94 -57 -217 -57q-113 0 -176.5 27.5t-91.5 90.5z" />
<glyph unicode="&#x437;" horiz-adv-x="999" d="M6 133l137 229q107 -79 258 -79q64 0 99 16.5t35 46.5q0 31 -27.5 48.5t-73.5 17.5h-151v247h112q78 0 78 54q0 55 -98 55q-118 0 -203 -47l-104 248q199 100 421 100q189 0 294.5 -74t105.5 -211q0 -79 -52 -139t-145 -86q123 -22 190.5 -89t67.5 -167 q0 -152 -135 -237.5t-373 -85.5q-243 0 -436 153z" />
<glyph unicode="&#x438;" horiz-adv-x="1247" d="M98 0v1014q131 55 226 55q86 0 135 -48.5t49 -123.5v-268l231 205v180q131 55 226 55q86 0 135 -48.5t49 -123.5v-897h-410v422l-231 -207v-215h-410z" />
<glyph unicode="&#x439;" horiz-adv-x="1247" d="M98 0v1014q131 55 226 55q86 0 135 -48.5t49 -123.5v-268l231 205v180q131 55 226 55q86 0 135 -48.5t49 -123.5v-897h-410v422l-231 -207v-215h-410zM246 1526h282q0 -51 27.5 -82t71.5 -31q43 0 69.5 31t26.5 82h285q0 -161 -101 -252.5t-280 -91.5q-180 0 -280.5 91 t-100.5 253z" />
<glyph unicode="&#x43a;" horiz-adv-x="1288" d="M98 0v1014q131 55 226 55q86 0 135 -48.5t49 -123.5v-897h-410zM514 551l330 518l373 -57l-285 -420l393 -555q-111 -57 -262 -57q-104 0 -166.5 28t-101.5 90z" />
<glyph unicode="&#x43b;" horiz-adv-x="1232" d="M18 250q134 42 148 225l41 574h928v-1049h-410v752h-174l-23 -344q-6 -92 -32 -163t-71.5 -121t-99.5 -83.5t-126 -60.5z" />
<glyph unicode="&#x43c;" horiz-adv-x="1488" d="M53 0l115 1018q39 20 95.5 35.5t96.5 15.5q54 0 94 -5.5t77.5 -20t63 -43t38.5 -70.5l137 -463l139 551q96 51 197 51q104 0 152.5 -42t68.5 -161l115 -866h-406l-47 553l-147 -553h-287l-139 543l-51 -543h-312z" />
<glyph unicode="&#x43d;" horiz-adv-x="1247" d="M98 0v1014q131 55 226 55q86 0 135 -48.5t49 -123.5v-213h231v330q131 55 226 55q86 0 135 -48.5t49 -123.5v-897h-410v379h-231v-379h-410z" />
<glyph unicode="&#x43e;" horiz-adv-x="1284" d="M55 524q0 257 154 401t432 144t433 -144t155 -401t-155 -400.5t-433 -143.5t-432 143.5t-154 400.5zM473 524q0 -104 46 -163.5t124 -59.5t124 59.5t46 163.5q0 105 -46 165.5t-124 60.5t-124 -60.5t-46 -165.5z" />
<glyph unicode="&#x43f;" horiz-adv-x="1261" d="M98 0v1049h1065v-1049h-409v745h-246v-745h-410z" />
<glyph unicode="&#x440;" horiz-adv-x="1265" d="M98 -471v1485q131 55 226 55q63 0 105 -40t56 -109q64 85 145.5 117t182.5 32q176 0 285.5 -133.5t109.5 -364.5q0 -281 -158.5 -436t-441.5 -155q-61 0 -100 2v-453h-410zM508 279h57q105 0 166.5 77t61.5 215q0 85 -36.5 132t-103.5 47q-82 0 -113.5 -55t-31.5 -214 v-202z" />
<glyph unicode="&#x441;" horiz-adv-x="1075" d="M55 526q0 125 42.5 228.5t116 171.5t170.5 105.5t206 37.5q44 0 87.5 -6.5t99 -28.5t100.5 -56.5t84.5 -96t58.5 -142.5l-291 -118q-11 59 -41 94t-76 35q-67 0 -104 -59t-37 -165q0 -105 52.5 -165t142.5 -60q65 0 139.5 23t126.5 57l125 -281q-86 -60 -201 -90 t-227 -30q-269 0 -421.5 144.5t-152.5 401.5z" />
<glyph unicode="&#x442;" horiz-adv-x="995" d="M33 745v304h930v-304h-261v-745h-409v745h-260z" />
<glyph unicode="&#x443;" horiz-adv-x="1163" d="M23 1012q112 57 237 57q202 0 240 -182l41 -201l73 -354l70 354l80 383l385 -57l-377 -1092q-62 -178 -181.5 -292.5t-238.5 -119.5l-164 261q44 1 97.5 30t100 86t58.5 123l2 12q-95 36 -133 148z" />
<glyph unicode="&#x444;" horiz-adv-x="1761" d="M57 479q0 279 148 434.5t411 155.5q20 0 60 -4v477q131 55 225 55q86 0 135 -49.5t49 -124.5v-462q93 108 265 108q159 0 256.5 -133.5t97.5 -364.5q0 -280 -148 -435.5t-411 -155.5h-60v-451h-409v557q-94 -106 -262 -106q-161 0 -259 133.5t-98 365.5zM473 479 q0 -84 26 -131t72 -47q63 0 84 52.5t21 213.5v205h-14q-88 0 -138.5 -77t-50.5 -216zM1085 279h17q88 0 137 76.5t49 215.5q0 85 -25.5 132t-72.5 47q-43 0 -65 -23t-31 -79t-9 -167v-202z" />
<glyph unicode="&#x445;" horiz-adv-x="1161" d="M-23 0l369 539l-301 473q48 23 117.5 40t130.5 17q91 0 150.5 -28t97.5 -91l73 -121l140 240l372 -57l-307 -469l348 -506q-94 -57 -217 -57q-223 0 -288 118l-103 185l-166 -283h-416z" />
<glyph unicode="&#x446;" horiz-adv-x="1361" d="M98 0v1014q131 55 226 55q86 0 135 -48.5t49 -123.5v-594h225v711q131 55 225 55q87 0 136 -48.5t49 -123.5v-598h182v-489q-134 -56 -225 -56q-87 0 -136 61.5t-49 157.5v27h-817z" />
<glyph unicode="&#x447;" horiz-adv-x="1189" d="M72 612v402q131 55 225 55q86 0 135 -48.5t49 -123.5v-217q0 -48 20 -77.5t56 -29.5q67 0 96 55.5t29 211.5v209h410v-1049h-410v375q-100 -123 -262 -123q-165 0 -256.5 95.5t-91.5 264.5z" />
<glyph unicode="&#x448;" horiz-adv-x="1755" d="M98 0v1014q131 55 226 55q86 0 135 -48.5t49 -123.5v-594h164v711q131 55 225 55q86 0 135 -48.5t49 -123.5v-594h166v711q131 55 226 55q86 0 135 -48.5t49 -123.5v-897h-1559z" />
<glyph unicode="&#x449;" horiz-adv-x="1875" d="M98 0v1014q131 55 226 55q86 0 135 -48.5t49 -123.5v-594h164v711q131 55 225 55q86 0 135 -48.5t49 -123.5v-594h166v711q131 55 226 55q86 0 135 -48.5t49 -123.5v-598h182v-489q-134 -56 -225 -56q-87 0 -135.5 61.5t-48.5 157.5v27h-1332z" />
<glyph unicode="&#x44a;" horiz-adv-x="1247" d="M35 752v297h614v-289h37q251 0 389.5 -103.5t138.5 -287.5q0 -183 -137.5 -286t-384.5 -103q-192 0 -450 20h-2v752h-205zM649 254h43q55 0 86 30.5t31 84.5q0 53 -33 84.5t-90 31.5h-37v-231z" />
<glyph unicode="&#x44b;" horiz-adv-x="1681" d="M98 0v1014q131 55 226 55q86 0 135 -48.5t49 -123.5v-137h35q251 0 389.5 -103.5t138.5 -287.5q0 -183 -137.5 -286t-384.5 -103q-193 0 -451 20zM508 254h41q55 0 86 30.5t31 84.5q0 53 -33 84.5t-90 31.5h-35v-231zM1174 0v1014q131 55 225 55q86 0 135 -48.5 t49 -123.5v-897h-409z" />
<glyph unicode="&#x44c;" horiz-adv-x="1105" d="M98 0v1014q131 55 226 55q86 0 135 -48.5t49 -123.5v-137h35q251 0 389.5 -103.5t138.5 -287.5q0 -183 -137.5 -286t-384.5 -103q-193 0 -451 20zM508 254h41q55 0 86 30.5t31 84.5q0 53 -33 84.5t-90 31.5h-35v-231z" />
<glyph unicode="&#x44d;" horiz-adv-x="1077" d="M20 100l119 277q41 -35 106.5 -55.5t129.5 -20.5q147 0 205 107h-203v239h205q-55 103 -195 103q-97 0 -205 -78l-129 262q186 135 389 135q119 0 224.5 -37.5t184.5 -105.5t125 -171.5t46 -228.5q0 -257 -152 -401.5t-421 -144.5q-112 0 -228 30t-201 90z" />
<glyph unicode="&#x44e;" horiz-adv-x="1665" d="M98 0v1014q131 55 226 55q86 0 135 -48.5t49 -123.5v-219h80q37 187 163.5 289t323.5 102q251 0 393 -144.5t142 -400.5t-142 -400t-393 -144q-194 0 -319.5 97.5t-165.5 278.5h-82v-356h-410zM956 524q0 -105 31 -164t88 -59t88 59t31 164q0 106 -31 166t-88 60t-88 -60 t-31 -166z" />
<glyph unicode="&#x44f;" horiz-adv-x="1189" d="M16 0l232 442q-129 101 -129 275q0 165 135.5 258.5t378.5 93.5q201 0 459 -20v-1049h-404v332h-41q-33 0 -49 2l-162 -334h-420zM522 694q0 -50 32.5 -78t92.5 -28h41v211h-45q-56 0 -88.5 -28.5t-32.5 -76.5z" />
<glyph unicode="&#x450;" d="M55 506q0 264 153.5 413.5t426.5 149.5q211 0 327.5 -94.5t116.5 -261.5q0 -158 -144.5 -248t-399.5 -90q-43 0 -66 2q39 -94 178 -94q152 0 271 77l161 -251q-212 -129 -463 -129q-264 0 -412.5 138.5t-148.5 387.5zM252 1362l192 317l420 -340l-106 -188zM457 598 q25 -2 71 -2q75 0 115.5 25t40.5 69q0 30 -22.5 49t-63.5 19q-54 0 -90.5 -42.5t-50.5 -117.5z" />
<glyph unicode="&#x451;" d="M55 506q0 264 153.5 413.5t426.5 149.5q211 0 327.5 -94.5t116.5 -261.5q0 -158 -144.5 -248t-399.5 -90q-43 0 -66 2q39 -94 178 -94q152 0 271 77l161 -251q-212 -129 -463 -129q-264 0 -412.5 138.5t-148.5 387.5zM152 1393q0 99 59 154t162 55q102 0 160.5 -55 t58.5 -154q0 -101 -58.5 -157t-160.5 -56q-103 0 -162 56t-59 157zM457 598q25 -2 71 -2q75 0 115.5 25t40.5 69q0 30 -22.5 49t-63.5 19q-54 0 -90.5 -42.5t-50.5 -117.5zM637 1393q0 99 59 154t162 55q102 0 160.5 -55t58.5 -154q0 -101 -58.5 -157t-160.5 -56 q-103 0 -162 56t-59 157z" />
<glyph unicode="&#x452;" horiz-adv-x="1269" d="M-12 1167v306h110v69q131 55 226 55q71 0 117.5 -34t60.5 -90h323v-306h-317v-233q110 135 293 135q180 0 279.5 -104.5t99.5 -296.5v-731q0 -91 -25.5 -163t-74 -121.5t-104.5 -83t-132 -61.5l-180 291q47 13 76.5 63.5t29.5 141.5v596q0 70 -27 110t-79 40 q-83 0 -119.5 -56.5t-36.5 -212.5v-481h-410v1167h-110z" />
<glyph unicode="&#x453;" horiz-adv-x="937" d="M98 0v1049h811v-304h-401v-745h-410zM219 1339l420 340l192 -317l-505 -211z" />
<glyph unicode="&#x454;" horiz-adv-x="1077" d="M55 526q0 125 46 228.5t125 171.5t184.5 105.5t224.5 37.5q203 0 389 -135l-129 -262q-108 78 -205 78q-139 0 -194 -103h204v-239h-202q58 -107 204 -107q64 0 129.5 20.5t106.5 55.5l119 -277q-85 -60 -200.5 -90t-227.5 -30q-269 0 -421.5 144.5t-152.5 401.5z" />
<glyph unicode="&#x455;" horiz-adv-x="1052" d="M43 123l104 252q83 -57 183 -84t172 -27q51 0 74.5 8t23.5 33q0 32 -151 73q-17 5 -25 7q-53 14 -96 29.5t-91.5 43t-81.5 61t-55 83t-22 109.5q0 168 123.5 263t335.5 95q262 0 448 -139l-141 -215q-149 76 -285 76q-84 0 -84 -33q0 -32 135 -70q66 -18 114.5 -35.5 t103 -47.5t89 -65t57.5 -87.5t23 -116.5q0 -166 -126.5 -261t-350.5 -95q-300 0 -477 143z" />
<glyph unicode="&#x456;" horiz-adv-x="606" d="M80 1393q0 99 59 154t162 55q102 0 160.5 -55t58.5 -154q0 -101 -58.5 -157t-160.5 -56q-103 0 -162 56t-59 157zM98 0h410v1049h-410v-1049z" />
<glyph unicode="&#x457;" horiz-adv-x="606" d="M-158 1393q0 99 59 154t162 55q102 0 161 -55t59 -154q0 -100 -59 -156.5t-161 -56.5q-103 0 -162 56t-59 157zM98 0v1049h410v-1049h-410zM328 1393q0 99 59 154t162 55q102 0 160.5 -55t58.5 -154q0 -101 -58.5 -157t-160.5 -56q-103 0 -162 56t-59 157z" />
<glyph unicode="&#x458;" horiz-adv-x="606" d="M-6 -201l180 -291q76 28 132 61.5t104 83.5t73 121.5t25 162.5v1112h-410v-1045q0 -91 -28.5 -141.5t-75.5 -63.5zM82 1393q0 99 59 154t162 55q102 0 160.5 -55t58.5 -154q0 -101 -58.5 -157t-160.5 -56q-103 0 -162 56t-59 157z" />
<glyph unicode="&#x459;" horiz-adv-x="1728" d="M18 250q134 42 148 225l41 574h928v-289h34q251 0 390 -103.5t139 -287.5q0 -183 -137.5 -286t-384.5 -103q-193 0 -451 20v752h-174l-23 -344q-6 -92 -32 -163t-71.5 -121t-99.5 -83.5t-126 -60.5zM1135 254h41q55 0 85.5 30.5t30.5 84.5q0 53 -33 84.5t-90 31.5h-34 v-231z" />
<glyph unicode="&#x45a;" horiz-adv-x="1742" d="M98 0v1014q131 55 226 55q86 0 135 -48.5t49 -123.5v-213h231v330q131 55 226 55q86 0 135 -48.5t49 -123.5v-137h35q251 0 389.5 -103.5t138.5 -287.5q0 -183 -137.5 -286t-384.5 -103q-193 0 -451 20v379h-231v-379h-410zM1149 254h41q55 0 86 30.5t31 84.5 q0 53 -33 84.5t-90 31.5h-35v-231z" />
<glyph unicode="&#x45b;" horiz-adv-x="1269" d="M-12 1167v306h110v69q131 55 226 55q71 0 117.5 -34t60.5 -90h323v-306h-317v-233q110 135 293 135q180 0 279.5 -104.5t99.5 -296.5v-668h-410v600q0 70 -27 110t-79 40q-83 0 -119.5 -56.5t-36.5 -212.5v-481h-410v1167h-110z" />
<glyph unicode="&#x45c;" horiz-adv-x="1288" d="M98 0v1014q131 55 226 55q86 0 135 -48.5t49 -123.5v-897h-410zM422 1339l420 340l192 -317l-506 -211zM514 551l330 518l373 -57l-285 -420l393 -555q-111 -57 -262 -57q-104 0 -166.5 28t-101.5 90z" />
<glyph unicode="&#x45d;" horiz-adv-x="1247" d="M98 0v1014q131 55 226 55q86 0 135 -48.5t49 -123.5v-268l231 205v180q131 55 226 55q86 0 135 -48.5t49 -123.5v-897h-410v422l-231 -207v-215h-410zM264 1362l193 317l420 -340l-107 -188z" />
<glyph unicode="&#x45e;" horiz-adv-x="1163" d="M23 1012q112 57 237 57q202 0 240 -182l41 -201l73 -354l70 354l80 383l385 -57l-377 -1092q-62 -178 -181.5 -292.5t-238.5 -119.5l-164 261q44 1 97.5 30t100 86t58.5 123l2 12q-95 36 -133 148zM209 1526h283q0 -51 27 -82t71 -31q43 0 69.5 31t26.5 82h285 q0 -161 -101 -252.5t-280 -91.5q-180 0 -280.5 91t-100.5 253z" />
<glyph unicode="&#x45f;" horiz-adv-x="1241" d="M98 0v1014q131 55 226 55q86 0 135 -48.5t49 -123.5v-594h225v711q131 55 225 55q87 0 136 -48.5t49 -123.5v-897h-320v-190q-134 -56 -225 -56q-87 0 -135.5 61.5t-48.5 157.5v27h-316z" />
<glyph unicode="&#x490;" horiz-adv-x="1107" d="M131 0v1475h520v190q110 55 207 55q101 0 163 -62.5t62 -156.5v-350h-524v-1151h-428z" />
<glyph unicode="&#x491;" horiz-adv-x="931" d="M98 0v1049h402v190q131 55 225 55q87 0 135.5 -61t48.5 -158v-330h-401v-745h-410z" />
<glyph unicode="&#x2000;" horiz-adv-x="1052" />
<glyph unicode="&#x2001;" horiz-adv-x="2105" />
<glyph unicode="&#x2002;" horiz-adv-x="1052" />
<glyph unicode="&#x2003;" horiz-adv-x="2105" />
<glyph unicode="&#x2004;" horiz-adv-x="701" />
<glyph unicode="&#x2005;" horiz-adv-x="526" />
<glyph unicode="&#x2006;" horiz-adv-x="350" />
<glyph unicode="&#x2007;" horiz-adv-x="350" />
<glyph unicode="&#x2008;" horiz-adv-x="263" />
<glyph unicode="&#x2009;" horiz-adv-x="421" />
<glyph unicode="&#x200a;" horiz-adv-x="116" />
<glyph unicode="&#x2010;" horiz-adv-x="921" d="M100 362v340h721v-340h-721z" />
<glyph unicode="&#x2011;" horiz-adv-x="921" d="M100 362v340h721v-340h-721z" />
<glyph unicode="&#x2012;" horiz-adv-x="921" d="M100 362v340h721v-340h-721z" />
<glyph unicode="&#x2013;" horiz-adv-x="1300" d="M100 362v340h1100v-340h-1100z" />
<glyph unicode="&#x2014;" horiz-adv-x="1886" d="M100 362v340h1686v-340h-1686z" />
<glyph unicode="&#x2018;" horiz-adv-x="600" d="M59 1053q0 174 99 297.5t288 144.5l50 -90q-123 -27 -184.5 -82.5t-82.5 -148.5q61 22 127 22q88 0 135.5 -57.5t47.5 -161.5q0 -114 -63.5 -178t-176.5 -64q-112 0 -176 85t-64 233z" />
<glyph unicode="&#x2019;" horiz-adv-x="600" d="M66 1253q0 114 63 178t176 64q112 0 176 -84.5t64 -232.5q0 -113 -40.5 -206t-130 -158t-216.5 -79l-49 90q123 27 184 83t82 149q-64 -23 -127 -23q-87 0 -134.5 57t-47.5 162z" />
<glyph unicode="&#x201a;" horiz-adv-x="614" d="M68 199q0 114 63 177.5t176 63.5q112 0 176 -84.5t64 -232.5q0 -174 -99 -297.5t-288 -144.5l-49 90q123 27 184 82.5t82 148.5q-61 -22 -127 -22q-87 0 -134.5 57t-47.5 162z" />
<glyph unicode="&#x201c;" horiz-adv-x="1144" d="M59 1053q0 174 99 297.5t288 144.5l50 -90q-123 -27 -184.5 -82.5t-82.5 -148.5q61 22 127 22q88 0 135.5 -57.5t47.5 -161.5q0 -114 -63.5 -178t-176.5 -64q-112 0 -176 85t-64 233zM604 1053q0 174 99 297.5t288 144.5l49 -90q-123 -27 -184 -82.5t-82 -148.5 q61 22 127 22q87 0 134.5 -57t47.5 -162q0 -114 -63 -178t-176 -64q-112 0 -176 85t-64 233z" />
<glyph unicode="&#x201d;" horiz-adv-x="1144" d="M66 1253q0 114 63 178t176 64q112 0 176 -84.5t64 -232.5q0 -113 -40.5 -206t-130 -158t-216.5 -79l-49 90q123 27 184 83t82 149q-64 -23 -127 -23q-87 0 -134.5 57t-47.5 162zM610 1253q0 114 63.5 178t176.5 64q112 0 176 -84.5t64 -232.5q0 -174 -99.5 -298 t-288.5 -145l-49 90q123 27 184.5 83t82.5 149q-64 -23 -127 -23q-88 0 -135.5 57.5t-47.5 161.5z" />
<glyph unicode="&#x201e;" horiz-adv-x="1159" d="M68 199q0 114 63 177.5t176 63.5q112 0 176 -84.5t64 -232.5q0 -174 -99 -297.5t-288 -144.5l-49 90q123 27 184 82.5t82 148.5q-61 -22 -127 -22q-87 0 -134.5 57t-47.5 162zM612 199q0 114 63.5 177.5t176.5 63.5q112 0 176 -84.5t64 -232.5q0 -174 -99 -297.5 t-288 -144.5l-50 90q123 27 184.5 82.5t82.5 148.5q-61 -22 -127 -22q-88 0 -135.5 57.5t-47.5 161.5z" />
<glyph unicode="&#x2022;" horiz-adv-x="858" d="M115 604q0 139 82 217t231 78q150 0 232.5 -78t82.5 -217t-82.5 -216t-232.5 -77q-149 0 -231 77.5t-82 215.5z" />
<glyph unicode="&#x2026;" horiz-adv-x="1671" d="M66 211q0 106 63.5 167.5t175.5 61.5q110 0 174 -61.5t64 -167.5q0 -108 -63.5 -169.5t-174.5 -61.5q-113 0 -176 61t-63 170zM598 211q0 106 64 167.5t176 61.5q110 0 173.5 -61.5t63.5 -167.5q0 -108 -63 -169.5t-174 -61.5q-113 0 -176.5 61t-63.5 170zM1128 211 q0 106 64 167.5t176 61.5q110 0 174 -61.5t64 -167.5q0 -108 -63.5 -169.5t-174.5 -61.5q-113 0 -176.5 61t-63.5 170z" />
<glyph unicode="&#x202f;" horiz-adv-x="421" />
<glyph unicode="&#x2039;" horiz-adv-x="745" d="M47 512l340 537l297 -175l-207 -362l207 -362l-297 -175z" />
<glyph unicode="&#x203a;" horiz-adv-x="745" d="M61 150l207 362l-207 362l297 175l340 -537l-340 -537z" />
<glyph unicode="&#x205f;" horiz-adv-x="526" />
<glyph unicode="&#x20ac;" horiz-adv-x="1288" d="M59 492v296h146q37 243 194 374.5t412 131.5q95 0 209 -26t203 -78l-152 -268q-103 53 -227 53q-79 0 -134 -45.5t-81 -132.5h348l-170 -305h-180q25 -93 80.5 -142t136.5 -49q67 0 134.5 15.5t106.5 37.5l129 -280q-81 -46 -192.5 -70t-210.5 -24q-254 0 -411.5 133.5 t-194.5 378.5h-146z" />
<glyph unicode="&#x2122;" horiz-adv-x="1697" d="M61 1288v187h584v-187h-168v-551h-248v551h-168zM651 737l82 715q47 33 103 33q53 0 85 -19t56 -71l174 -385l166 438q43 37 98 37q53 0 79 -27t36 -104l82 -617h-246l-39 334l-129 -334h-151l-142 310l-31 -310h-223z" />
<glyph unicode="&#x25fc;" horiz-adv-x="1064" d="M0 0v1065h1065v-1065h-1065z" />
</font>
</defs>
</svg>
