<?xml version="1.0" standalone="no"?>
<!DOCTYPE svg PUBLIC "-//W3C//DTD SVG 1.1//EN" "http://www.w3.org/Graphics/SVG/1.1/DTD/svg11.dtd" >
<svg xmlns="http://www.w3.org/2000/svg">
<metadata></metadata>
<defs>
<font id="bw_surco_demobold_italic" horiz-adv-x="1140" >
<font-face units-per-em="2048" ascent="1577" descent="-471" />
<missing-glyph horiz-adv-x="397" />
<glyph horiz-adv-x="0" />
<glyph horiz-adv-x="682" />
<glyph unicode="&#xd;" horiz-adv-x="397" />
<glyph unicode=" "  horiz-adv-x="397" />
<glyph unicode="&#x09;" horiz-adv-x="397" />
<glyph unicode="&#xa0;" horiz-adv-x="397" />
<glyph unicode="!" horiz-adv-x="575" d="M49 141q0 95 53.5 151t149.5 56q82 0 128 -44t46 -118q0 -96 -54 -151t-149 -55q-84 0 -129 42.5t-45 118.5zM131 502h307l144 973h-324z" />
<glyph unicode="&#x22;" horiz-adv-x="835" d="M190 1085l39 492h291l-104 -492h-226zM571 1085l39 492h291l-104 -492h-226z" />
<glyph unicode="#" horiz-adv-x="1357" d="M31 268l63 238h156l61 256h-164l62 237h160l63 263h307l-63 -263h223l62 263h303l-64 -263h156l-64 -237h-149l-62 -256h160l-65 -238h-152l-66 -268h-303l64 268h-225l-64 -268h-303l66 268h-162zM545 498h231l66 270h-230z" />
<glyph unicode="$" horiz-adv-x="980" d="M6 111l92 176q69 -48 153.5 -72.5t158.5 -26.5l49 338q-178 78 -248 153t-70 195q0 179 116.5 289t307.5 119l27 193h80l-27 -195q191 -13 326 -123l-115 -151q-124 63 -240 69l-43 -303q180 -83 253 -161t73 -193q0 -192 -120.5 -309.5t-317.5 -128.5l-29 -205h-80 l29 207q-102 5 -203.5 38t-171.5 91zM406 926q0 -45 21 -74.5t69 -54.5l39 276q-62 -10 -95.5 -50t-33.5 -97zM492 195q145 28 145 172q0 48 -23 76t-79 55z" />
<glyph unicode="%" horiz-adv-x="1372" d="M123 897q0 164 83 274.5t230 110.5q119 0 183.5 -69.5t64.5 -194.5q0 -168 -81.5 -277.5t-229.5 -109.5q-119 0 -184.5 69.5t-65.5 196.5zM162 86l923 1196l156 -104l-928 -1198zM324 901q0 -102 57 -102q32 0 55.5 35.5t34 82.5t10.5 95q0 100 -57 100q-44 0 -72 -66.5 t-28 -144.5zM717 246q0 164 83 274.5t230 110.5q119 0 183.5 -69.5t64.5 -194.5q0 -168 -81.5 -277.5t-229.5 -109.5q-119 0 -184.5 69.5t-65.5 196.5zM920 248q0 -101 57 -101q33 0 56.5 35.5t33.5 82t10 95.5q0 99 -57 99q-44 0 -72 -66t-28 -145z" />
<glyph unicode="&#x26;" horiz-adv-x="1357" d="M41 291q0 271 274 545q-43 113 -43 211q0 211 142 329.5t370 118.5q107 0 221 -46t212 -132l-140 -207q-128 123 -260 123q-91 0 -149 -53.5t-58 -141.5q0 -169 295 -540q92 156 160 393l240 -72q-96 -299 -252 -502q142 -163 227 -256q-33 -33 -97 -57t-116 -24 q-64 0 -125.5 21.5t-95.5 64.5l-29 34q-186 -120 -416 -120q-172 0 -266 81.5t-94 229.5zM340 332q0 -57 38.5 -88t108.5 -31q108 0 199 51q-155 198 -235 322q-111 -131 -111 -254z" />
<glyph unicode="'" horiz-adv-x="452" d="M190 1085l39 492h291l-104 -492h-226z" />
<glyph unicode="(" horiz-adv-x="655" d="M53 229q0 -403 144 -721l286 130q-86 251 -86 577q0 332 90.5 683t249.5 605l-239 94q-209 -281 -327 -644.5t-118 -723.5z" />
<glyph unicode=")" horiz-adv-x="655" d="M-74 -397l240 -95q209 280 326.5 644.5t117.5 724.5q0 404 -143 720l-287 -129q86 -251 86 -577q0 -332 -90.5 -683t-249.5 -605z" />
<glyph unicode="*" horiz-adv-x="735" d="M174 1266l82 182l152 -78l10 207h188l-49 -203l180 78l33 -180l-188 -43l98 -152l-170 -112l-64 165l-114 -167l-135 110l147 150z" />
<glyph unicode="+" horiz-adv-x="937" d="M51 397l33 238h244l43 315h317l-45 -315h240l-31 -238h-244l-45 -315h-313l43 315h-242z" />
<glyph unicode="," horiz-adv-x="534" d="M2 -211q208 58 260 213q-61 -22 -102 -22q-63 0 -96 38.5t-33 110.5q0 101 55.5 160t149.5 59q81 0 124 -57t43 -158q0 -162 -97.5 -273t-262.5 -155z" />
<glyph unicode="-" horiz-adv-x="823" d="M86 393l39 264h612l-39 -264h-612z" />
<glyph unicode="." horiz-adv-x="530" d="M31 141q0 95 53.5 151t148.5 56q82 0 128.5 -44t46.5 -118q0 -96 -54 -151t-149 -55q-84 0 -129 42.5t-45 118.5z" />
<glyph unicode="/" horiz-adv-x="782" d="M-39 -168l705 1765l198 -77l-704 -1766z" />
<glyph unicode="0" horiz-adv-x="1187" d="M84 487q0 129 24.5 247t74.5 218t120.5 173.5t169.5 115t215 41.5q216 0 331.5 -131.5t115.5 -368.5q0 -130 -24.5 -248.5t-75 -219.5t-121.5 -175.5t-169.5 -116.5t-214.5 -42q-216 0 -331 132t-115 375zM406 475q0 -118 37.5 -181t109.5 -63q62 0 113.5 52t83 134 t48.5 177t17 188q0 119 -38 184.5t-107 65.5q-66 0 -118.5 -54t-83 -139t-46.5 -179t-16 -185z" />
<glyph unicode="1" horiz-adv-x="782" d="M78 1042l426 220h260l-182 -1262h-318l125 911l-219 -112z" />
<glyph unicode="2" horiz-adv-x="1077" d="M-10 0l24 170q8 60 37 116.5t65 99t93 89t101.5 76.5t109.5 70q141 87 189 127q102 85 102 170q0 114 -133 114q-139 0 -308 -135l-98 217q115 84 239 126t228 42q188 0 291.5 -90.5t103.5 -249.5q0 -70 -24.5 -132.5t-53.5 -104.5t-95 -94.5t-106.5 -79t-128.5 -81.5 q-11 -7 -16 -10q-10 -6 -35.5 -21.5t-35.5 -21.5t-32 -20t-32 -21t-28 -19t-27 -20t-22.5 -19t-21 -20t-15.5 -19.5t-13 -20.5h623l-37 -238h-944z" />
<glyph unicode="3" horiz-adv-x="1058" d="M-57 -109l141 203q126 -88 295 -88q113 0 181.5 67t68.5 171q0 103 -100.5 174.5t-323.5 120.5l422 485h-447l35 238h819l-26 -193l-371 -405q156 -62 234.5 -169t78.5 -235q0 -234 -161 -370t-422 -136q-123 0 -222 32.5t-202 104.5z" />
<glyph unicode="4" d="M-31 0l29 209l629 1073l278 -80l-588 -964h279l41 249l315 129l-53 -378h174l-33 -238h-174l-32 -225h-318l33 225h-580z" />
<glyph unicode="5" horiz-adv-x="1105" d="M-55 -78l147 201q83 -68 159.5 -92.5t164.5 -24.5q129 0 205.5 80t76.5 201q0 85 -49.5 134.5t-140.5 53.5l-397 19l198 768h758l-37 -238h-455l-83 -303l120 -8q193 -13 297.5 -116t104.5 -275q0 -259 -162 -413.5t-430 -154.5q-130 0 -258 43.5t-219 124.5z" />
<glyph unicode="6" horiz-adv-x="1142" d="M92 528q0 154 27.5 295t84.5 264t139 213.5t197.5 142.5t252.5 52q199 0 381 -121l-117 -211q-92 80 -232 80q-79 0 -143.5 -28.5t-111 -81t-78 -117.5t-52.5 -146q118 82 269 82q176 0 269 -102.5t93 -286.5q0 -266 -150.5 -424.5t-406.5 -158.5q-206 0 -314 142.5 t-108 405.5zM399 518q0 -142 32 -214.5t106 -72.5q68 0 117.5 49t71.5 118.5t22 146.5q0 90 -38 138t-108 48q-96 0 -196 -72q-7 -82 -7 -141z" />
<glyph unicode="7" horiz-adv-x="1009" d="M43 -188l641 1212h-569l37 238h919l-27 -195l-712 -1352z" />
<glyph unicode="8" horiz-adv-x="1165" d="M55 352q0 148 65 257.5t183 170.5q-110 90 -110 256q0 213 141 336t371 123q203 0 314 -92t111 -258q0 -125 -51 -221t-143 -154q147 -101 147 -297q0 -231 -154 -362t-409 -131q-221 0 -343 98.5t-122 273.5zM381 395q0 -78 43.5 -121t120.5 -43q102 0 162.5 75.5 t60.5 178.5q0 84 -42.5 129t-117.5 45q-70 0 -123 -39t-78.5 -98.5t-25.5 -126.5zM506 1026q0 -149 125 -149q83 0 131.5 66.5t48.5 152.5q0 72 -32.5 109.5t-92.5 37.5q-79 0 -129.5 -62.5t-50.5 -154.5z" />
<glyph unicode="9" d="M0 -125l115 211q88 -80 245 -80q146 0 238 102t135 273q-124 -84 -270 -84q-173 0 -267 104t-94 287q0 269 151 431.5t409 162.5q204 0 311.5 -144.5t107.5 -410.5q0 -155 -27 -297t-84 -265.5t-138.5 -214.5t-197 -143.5t-253.5 -52.5q-202 0 -381 121zM426 709 q0 -92 37.5 -141.5t107.5 -49.5q94 0 197 72q6 77 6 149q0 293 -135 293q-69 0 -119 -50.5t-72 -122t-22 -150.5z" />
<glyph unicode=":" horiz-adv-x="561" d="M43 141q0 95 53.5 151t149.5 56q82 0 128 -44t46 -118q0 -96 -54 -151t-149 -55q-84 0 -129 42.5t-45 118.5zM143 850q0 95 53.5 151t149.5 56q82 0 128 -44t46 -118q0 -96 -54 -151.5t-149 -55.5q-84 0 -129 43t-45 119z" />
<glyph unicode=";" horiz-adv-x="565" d="M12 -211q208 58 260 213q-61 -22 -102 -22q-63 0 -96 38.5t-33 110.5q0 101 55.5 160t149.5 59q81 0 124.5 -57t43.5 -158q0 -162 -98 -273t-263 -155zM143 850q0 95 53.5 151t149.5 56q82 0 128 -44t46 -118q0 -96 -54 -151.5t-149 -55.5q-84 0 -129 43t-45 119z" />
<glyph unicode="&#x3c;" horiz-adv-x="966" d="M47 408l12 90l17 129l852 360l-35 -252l-557 -219l493 -215l-36 -252z" />
<glyph unicode="=" horiz-adv-x="1026" d="M70 209l32 237h801l-33 -237h-800zM121 586l33 237h800l-32 -237h-801z" />
<glyph unicode="&#x3e;" horiz-adv-x="968" d="M39 49l37 252l559 217l-500 217l37 252l750 -360l-19 -148h-4l-8 -71z" />
<glyph unicode="?" horiz-adv-x="978" d="M162 1327q102 84 217 126t211 42q195 0 302 -91t107 -249q0 -76 -18.5 -140.5t-57.5 -118.5t-81 -95.5t-105 -91.5q-80 -64 -122.5 -113t-49.5 -102l-301 16q9 66 32 123.5t59.5 105t68.5 79.5t78 71q73 61 112 115.5t39 117.5q0 111 -116 111q-118 0 -281 -133zM178 141 q0 95 53.5 151t149.5 56q82 0 128 -44t46 -118q0 -96 -54 -151t-149 -55q-84 0 -129 42.5t-45 118.5z" />
<glyph unicode="@" horiz-adv-x="2058" d="M66 342q0 221 48.5 415t142.5 347.5t226.5 264t305.5 169.5t374 59q403 0 623.5 -206t220.5 -580q0 -208 -54 -362t-169 -244t-281 -90q-131 0 -219 52.5t-125 149.5q-49 -96 -137.5 -149t-183.5 -53q-123 0 -189.5 85.5t-66.5 239.5q0 252 138 402.5t376 150.5 q179 0 383 -32l-58 -416q-4 -27 -4 -49q0 -70 25 -107t71 -37q48 0 86.5 43t60 111t33 143t11.5 148q0 269 -143.5 416t-405.5 147q-180 0 -329 -78.5t-248 -215t-153 -319.5t-54 -393q0 -291 139.5 -449.5t398.5 -158.5q128 0 266.5 36t258.5 97l84 -227 q-122 -67 -295.5 -105.5t-325.5 -38.5q-398 0 -614.5 218.5t-216.5 615.5zM868 473q0 -121 84 -121q70 0 121.5 63.5t65.5 166.5l24 174h-76q-92 0 -155.5 -81.5t-63.5 -201.5z" />
<glyph unicode="A" horiz-adv-x="1304" d="M-78 0l686 1456q82 39 170 39q171 0 209 -188l250 -1307h-344l-51 313h-473l-129 -313h-318zM475 567h326l-92 570z" />
<glyph unicode="B" horiz-adv-x="1251" d="M66 0l206 1475h2q293 20 461 20q229 0 353 -86t124 -244q0 -132 -60 -230.5t-169 -160.5q193 -91 193 -303q0 -152 -86 -264.5t-232 -169.5t-332 -57q-222 0 -460 20zM430 236q79 -3 139 -3q117 0 186.5 64t69.5 162q0 82 -47 128t-131 46h-162zM522 887h94 q115 0 178.5 57.5t63.5 157.5q0 66 -43 102.5t-129 36.5q-70 0 -115 -2z" />
<glyph unicode="C" horiz-adv-x="1212" d="M96 582q0 145 28.5 279.5t87 249.5t140 201t194 134.5t242.5 48.5q341 0 455 -303l-315 -105q-47 146 -162 146q-62 0 -116.5 -40t-92.5 -106t-65.5 -150t-40.5 -173t-13 -174q0 -169 64.5 -258.5t169.5 -89.5q183 0 364 141l105 -238q-97 -77 -231.5 -121t-272.5 -44 q-260 0 -400.5 161t-140.5 441z" />
<glyph unicode="D" horiz-adv-x="1349" d="M66 0l206 1475q180 20 398 20q310 0 477.5 -160.5t167.5 -453.5q0 -264 -98.5 -467t-288.5 -318.5t-445 -115.5q-86 0 -224 7t-193 13zM430 238q62 -5 80 -5q89 0 165 34.5t130.5 95t93 142t57.5 174.5t19 193q0 176 -82 272.5t-236 96.5q-28 0 -86 -4z" />
<glyph unicode="E" horiz-adv-x="1118" d="M66 0l206 1475h883l-39 -254h-547l-49 -338h486l-39 -254h-482l-53 -375h574l-39 -254h-901z" />
<glyph unicode="F" horiz-adv-x="1034" d="M66 0l206 1475h840l-41 -254h-502l-59 -412h414l-39 -254h-410l-78 -555h-331z" />
<glyph unicode="G" horiz-adv-x="1349" d="M94 547q0 153 29 293t88.5 259.5t143.5 207.5t200.5 138t253.5 50q341 0 455 -303l-316 -105q-53 146 -172 146q-82 0 -149.5 -64.5t-107.5 -165t-61.5 -212t-21.5 -216.5q0 -333 207 -333q106 0 182.5 84t102.5 272h-221l34 254h553l-92 -666q-4 -32 -4 -59 q0 -61 16 -94q-116 -53 -204 -53q-136 0 -136 139q0 9 3 33l8 63q-136 -235 -353 -235q-214 0 -326 151t-112 416z" />
<glyph unicode="H" horiz-adv-x="1431" d="M61 0l209 1446q93 49 170 49q67 0 103.5 -35t36.5 -100q0 -17 -2 -33l-64 -453h506l82 572q93 49 168 49q67 0 104 -35t37 -100q0 -17 -2 -33l-188 -1327h-328l90 618h-506l-86 -618h-330z" />
<glyph unicode="I" horiz-adv-x="600" d="M61 0l209 1446q93 49 168 49q68 0 105 -35.5t37 -99.5q0 -17 -2 -33l-189 -1327h-328z" />
<glyph unicode="J" horiz-adv-x="794" d="M-47 33q103 -53 254 -53q178 0 294.5 101.5t141.5 278.5l137 967q2 16 2 29q0 65 -37.5 102t-103.5 37q-74 0 -174 -49l-145 -1036q-12 -83 -52 -125.5t-104 -42.5q-75 0 -123 30z" />
<glyph unicode="K" horiz-adv-x="1273" d="M61 0l209 1446q93 49 168 49q68 0 105 -35.5t37 -99.5q0 -17 -2 -33l-189 -1327h-328zM502 745l512 750l295 -53l-457 -641l375 -762q-37 -26 -90 -42.5t-107 -16.5q-100 0 -150.5 26.5t-76.5 83.5z" />
<glyph unicode="L" horiz-adv-x="1017" d="M61 0l209 1446q93 49 168 49q68 0 105 -35.5t37 -99.5q0 -17 -2 -33l-152 -1063h528l-36 -264h-857z" />
<glyph unicode="M" horiz-adv-x="1769" d="M4 0l346 1456q32 17 78 28t82 11q189 0 213 -145l162 -1012l446 1116q75 41 154 41q95 0 136 -44q38 -41 38 -137v-14l-31 -1300h-338l56 938l-394 -938h-299l-153 920l-195 -920h-301z" />
<glyph unicode="N" horiz-adv-x="1437" d="M66 0l206 1446q67 49 152 49q108 0 166 -111l416 -796l112 887h316l-205 -1475h-258l-475 891l-117 -891h-313z" />
<glyph unicode="O" horiz-adv-x="1478" d="M96 578q0 194 51.5 360.5t147 290.5t242 195t327.5 71q277 0 428.5 -157.5t151.5 -444.5q0 -192 -51.5 -358t-147.5 -289.5t-242 -194.5t-325 -71q-278 0 -430 156.5t-152 441.5zM440 592q0 -167 69.5 -258.5t197.5 -91.5q78 0 144.5 38t111.5 101t77 146.5t47 174 t15 183.5q0 167 -67 257.5t-195 90.5q-97 0 -175.5 -57t-126.5 -150.5t-73 -205t-25 -228.5z" />
<glyph unicode="P" horiz-adv-x="1214" d="M66 0l206 1475q222 20 494 20q232 0 358.5 -98t126.5 -281q0 -260 -179 -416.5t-466 -156.5q-84 0 -133 2l-76 -545h-331zM510 799q45 -2 129 -2q124 0 192 77.5t68 200.5q0 77 -48 121.5t-136 44.5q-34 0 -144 -4z" />
<glyph unicode="Q" horiz-adv-x="1478" d="M96 578q0 194 51.5 360.5t147 290.5t242 195t327.5 71q277 0 428.5 -157.5t151.5 -444.5q0 -223 -67.5 -409t-201.5 -314.5t-319 -171.5l6 -35q16 -88 91 -133t188 -51l-172 -221q-161 17 -270 110t-150 238l-25 88q-206 40 -317 191t-111 393zM440 592 q0 -167 69.5 -258.5t197.5 -91.5q78 0 144.5 38t111.5 101t77 146.5t47 174t15 183.5q0 167 -67 257.5t-195 90.5q-97 0 -175.5 -57t-126.5 -150.5t-73 -205t-25 -228.5z" />
<glyph unicode="R" horiz-adv-x="1284" d="M66 0l206 1475q212 20 476 20q242 0 372.5 -92.5t130.5 -261.5q0 -144 -68 -254t-190 -176q174 -86 174 -287q0 -37 -4 -70l-22 -168q-6 -42 -6 -59q0 -57 18 -94q-122 -53 -213 -53q-66 0 -101.5 36.5t-35.5 102.5q0 17 2 33l22 170q4 25 4 47q0 92 -53 146t-139 54 h-162l-80 -569h-331zM514 825h100q135 0 210 70.5t75 185.5q0 160 -192 160q-17 0 -62 -1t-74 -1z" />
<glyph unicode="S" horiz-adv-x="1116" d="M6 139l113 223q56 -57 149 -88.5t199 -31.5q115 0 172 48t57 126q0 36 -13.5 64t-43 50t-57 35.5t-72.5 32.5q-55 22 -95 42t-89.5 56.5t-80.5 78.5t-53 106.5t-22 142.5q0 220 139.5 345.5t382.5 125.5q245 0 430 -147l-164 -215q-48 45 -118 72.5t-142 27.5 q-82 0 -134 -43.5t-52 -108.5q0 -60 48 -98t145 -78q55 -23 95 -43t89 -56t79.5 -77t52 -103.5t21.5 -136.5q0 -234 -161.5 -371.5t-423.5 -137.5q-138 0 -254.5 41.5t-196.5 117.5z" />
<glyph unicode="T" horiz-adv-x="1064" d="M135 1221l39 254h985l-37 -254h-327l-172 -1221h-332l172 1221h-328z" />
<glyph unicode="U" horiz-adv-x="1366" d="M119 446q0 60 8 109l133 891q90 49 172 49q65 0 100 -36t35 -103q0 -13 -2 -29l-104 -764q-8 -70 -8 -90q0 -113 49.5 -172t142.5 -59q123 0 197 88.5t98 249.5l127 866q79 49 160 49q60 0 93.5 -35.5t33.5 -99.5q0 -17 -2 -33l-107 -788q-37 -268 -200 -413.5 t-429 -145.5q-238 0 -367.5 122.5t-129.5 343.5z" />
<glyph unicode="V" horiz-adv-x="1316" d="M135 1448q31 22 77.5 34.5t88.5 12.5q91 0 142 -36.5t69 -133.5l106 -575l52 -377l141 379l322 743l299 -53l-672 -1442h-340z" />
<glyph unicode="W" horiz-adv-x="1900" d="M141 1448q30 22 77 34.5t87 12.5q97 0 148 -35t59 -135l66 -733l8 -295l82 317l270 834q32 22 80 34.5t92 12.5q81 0 134 -53t56 -133l27 -748l2 -266l86 287l295 913l297 -53l-575 -1442h-349l-51 766l-2 371l-104 -369l-258 -768h-332z" />
<glyph unicode="X" horiz-adv-x="1261" d="M-78 0l549 758l-299 690q31 22 79.5 34.5t92.5 12.5q105 0 159 -28t83 -97l141 -332l301 457l320 -53l-490 -684l334 -731q-71 -47 -168 -47q-84 0 -138 14.5t-81.5 40.5t-46.5 69l-164 388l-334 -492h-338z" />
<glyph unicode="Y" horiz-adv-x="1214" d="M141 1448q32 22 83 34.5t98 12.5q95 0 148 -30.5t75 -94.5l96 -287l51 -206l109 219l221 399l309 -53l-543 -840l-86 -602h-331l84 592z" />
<glyph unicode="Z" horiz-adv-x="1136" d="M-23 0l29 211l627 815l162 195h-605l39 254h945q20 -55 20 -105q0 -57 -29.5 -115.5t-89.5 -138.5l-530 -715l-133 -147h620l-39 -254h-1016z" />
<glyph unicode="[" horiz-adv-x="706" d="M-12 -471l286 2048h521l-39 -254h-187l-215 -1540h193l-39 -254h-520z" />
<glyph unicode="\" horiz-adv-x="780" d="M195 1567l215 30l219 -1812l-213 -31z" />
<glyph unicode="]" horiz-adv-x="706" d="M-80 -471l39 254h186l215 1540h-192l39 254h520l-287 -2048h-520z" />
<glyph unicode="^" horiz-adv-x="915" d="M96 723l373 752h254l160 -752h-256l-68 463l-194 -463h-269z" />
<glyph unicode="_" horiz-adv-x="1173" d="M-25 -225l27 168h1012l-27 -168h-1012z" />
<glyph unicode="`" horiz-adv-x="526" d="M141 1372l119 254l395 -301l-63 -151z" />
<glyph unicode="a" d="M49 340q0 204 72.5 364.5t217.5 256.5t341 96q191 0 424 -21l-125 -850q-4 -32 -4 -59q0 -63 20 -94q-116 -53 -204 -53q-54 0 -88.5 37.5t-34.5 103.5q0 16 2 43l2 26q-66 -111 -144.5 -160.5t-179.5 -49.5q-55 0 -107 22.5t-95.5 65t-70 113t-26.5 159.5zM381 424 q0 -195 119 -195q169 0 231 424l25 166q-37 2 -99 2q-67 0 -121 -33t-87 -89.5t-50.5 -126.5t-17.5 -148z" />
<glyph unicode="b" horiz-adv-x="1138" d="M35 0l223 1552q110 45 186 45q55 0 84 -29t29 -83q0 -11 -2 -27l-86 -606q66 108 143 156.5t176 48.5q55 0 107.5 -22.5t96.5 -65t71 -113.5t27 -160q0 -203 -73 -364t-218 -256.5t-340 -95.5q-199 0 -424 20zM381 217q37 -2 98 -2q90 0 155 58t94.5 146t29.5 193 q0 195 -119 195q-79 0 -142.5 -100.5t-93.5 -323.5z" />
<glyph unicode="c" horiz-adv-x="960" d="M59 420q0 177 66.5 322t189 230t277.5 85q51 0 101.5 -14t101.5 -45t87 -93t46 -147l-238 -76q-8 63 -32 94t-70 31q-52 0 -93.5 -35t-66 -91.5t-37 -120.5t-12.5 -128q0 -97 45.5 -149t128.5 -52q63 0 131 27t115 68l73 -234q-80 -57 -180 -84.5t-198 -27.5 q-210 0 -322.5 115.5t-112.5 324.5z" />
<glyph unicode="d" horiz-adv-x="1142" d="M47 340q0 204 72.5 364.5t217.5 256.5t341 96q68 0 115 -2l71 497q113 45 191 45q55 0 84.5 -29t29.5 -83q0 -11 -2 -27l-186 -1272q-4 -32 -4 -59q0 -63 20 -94q-116 -53 -204 -53q-54 0 -88.5 37.5t-34.5 103.5q0 23 2 43l4 37q-67 -117 -147.5 -169t-182.5 -52 q-55 0 -107 22.5t-95.5 65t-70 113t-26.5 159.5zM379 424q0 -195 119 -195q78 0 140 100t95 324l25 166q-37 2 -103 2q-67 0 -121 -33t-87 -89.5t-50.5 -126.5t-17.5 -148z" />
<glyph unicode="e" horiz-adv-x="1015" d="M57 401q0 186 67 333.5t199 235t308 87.5q167 0 257.5 -79t90.5 -218q0 -100 -40 -175t-111 -118.5t-159.5 -64.5t-195.5 -21q-69 0 -121 8q2 -87 40 -129.5t126 -42.5q149 0 283 84l94 -205q-181 -116 -414 -116q-205 0 -314.5 109.5t-109.5 311.5zM369 561q66 -4 94 -4 q90 0 150.5 43.5t60.5 120.5q0 41 -24 65.5t-70 24.5q-81 0 -134.5 -68t-76.5 -182z" />
<glyph unicode="f" horiz-adv-x="778" d="M-12 -266q46 18 73.5 66t40.5 147l121 852h-139l37 237h135l31 219q23 165 126 253.5t269 88.5q160 0 281 -59l-66 -227q-62 35 -133 35q-68 0 -114.5 -45t-57.5 -119l-21 -146h254l-37 -237h-249l-123 -891q-22 -159 -109 -252t-223 -145z" />
<glyph unicode="g" horiz-adv-x="1142" d="M2 -375l170 209q126 -88 260 -88q103 0 146.5 56.5t62.5 183.5l27 194q-65 -105 -142 -152.5t-176 -47.5q-55 0 -107 22.5t-95.5 65t-70 113t-26.5 159.5q0 204 72.5 364.5t217.5 256.5t341 96q190 0 426 -21l-154 -1089q-29 -205 -169 -322t-359 -117q-247 0 -424 117z M383 424q0 -195 119 -195q78 0 139.5 100t91.5 324l23 166q-35 2 -97 2q-67 0 -121 -33t-87 -89.5t-50.5 -126.5t-17.5 -148z" />
<glyph unicode="h" horiz-adv-x="1142" d="M35 0l223 1552q110 45 186 45q55 0 84 -29t29 -83q0 -11 -2 -27l-88 -629q70 122 153 175t187 53q126 0 194 -76.5t68 -214.5q0 -34 -8 -92l-70 -488q-6 -48 -6 -59q0 -58 23 -94q-116 -53 -203 -53q-135 0 -135 139q0 17 2 33l69 460q7 47 7 70q0 125 -95 125 q-98 0 -161 -121.5t-101 -390.5l-41 -295h-315z" />
<glyph unicode="i" horiz-adv-x="536" d="M55 119q0 17 2 33l121 884h318l-119 -850q-4 -32 -4 -59q0 -63 20 -94q-116 -53 -205 -53q-133 0 -133 139zM209 1339q0 87 49.5 140t138.5 53q75 0 117.5 -38t42.5 -105q0 -88 -48.5 -140.5t-137.5 -52.5q-76 0 -119 37.5t-43 105.5z" />
<glyph unicode="j" horiz-adv-x="538" d="M-88 -266l96 -223q290 111 332 397l162 1128h-320l-153 -1089q-25 -177 -117 -213zM213 1339q0 87 49.5 140t138.5 53q75 0 117.5 -38t42.5 -105q0 -88 -48.5 -140.5t-137.5 -52.5q-76 0 -119 37.5t-43 105.5z" />
<glyph unicode="k" horiz-adv-x="1130" d="M35 0l223 1552q110 45 186 45q55 0 84 -29t29 -83q0 -11 -2 -27l-205 -1458h-315zM434 545l408 512l288 -47l-362 -437l315 -553q-85 -40 -200 -40q-86 0 -132.5 26.5t-74.5 79.5z" />
<glyph unicode="l" horiz-adv-x="610" d="M66 223q0 18 4 49l180 1280q110 45 186 45q115 0 115 -112q0 -11 -2 -27l-158 -1147q-4 -24 -4 -35q0 -45 51 -45q48 0 82 15l25 -207q-100 -59 -226 -59q-123 0 -188 63t-65 180z" />
<glyph unicode="m" horiz-adv-x="1615" d="M37 0l141 1018q95 39 166 39q62 0 93.5 -42.5t31.5 -113.5q0 -12 -2 -37l-4 -35q65 123 140 175.5t171 52.5q87 0 142.5 -51t74.5 -144q67 106 142.5 150.5t177.5 44.5q109 0 169 -79t60 -220q0 -50 -8 -99l-72 -473q-6 -48 -6 -59q0 -58 23 -94q-116 -53 -205 -53 q-133 0 -133 139q0 17 2 33l65 469q6 49 6 86q0 100 -61 100q-76 0 -124.5 -118.5t-88.5 -393.5l-43 -295h-313l86 621q6 49 6 81q0 105 -60 105q-78 0 -127.5 -118t-89.5 -394l-43 -295h-317z" />
<glyph unicode="n" horiz-adv-x="1148" d="M37 0l141 1018q95 39 166 39q62 0 93.5 -42.5t31.5 -113.5q0 -12 -2 -37l-4 -51q71 131 155.5 187.5t192.5 56.5q126 0 194 -76.5t68 -214.5q0 -34 -8 -92l-70 -488q-6 -48 -6 -59q0 -58 23 -94q-116 -53 -203 -53q-135 0 -135 139q0 17 2 33l69 460q7 47 7 70 q0 125 -95 125q-97 0 -158.5 -120.5t-101.5 -391.5l-43 -295h-317z" />
<glyph unicode="o" horiz-adv-x="1144" d="M59 420q0 188 67 331t199.5 224.5t313.5 81.5q215 0 329.5 -116.5t114.5 -328.5q0 -188 -67 -330t-197.5 -222t-308.5 -80q-219 0 -335 115.5t-116 324.5zM377 432q0 -96 41.5 -148.5t116.5 -52.5q56 0 101.5 33t73 88t42 120t14.5 134q0 96 -40.5 148.5t-119.5 52.5 q-56 0 -101 -34t-72 -89.5t-41.5 -120t-14.5 -131.5z" />
<glyph unicode="p" horiz-adv-x="1138" d="M-33 -471l209 1483q113 45 193 45q47 0 72.5 -34.5t25.5 -96.5q0 -21 -2 -41l-6 -47q68 116 147.5 167.5t181.5 51.5q55 0 107 -22.5t95.5 -65t70 -113.5t26.5 -160q0 -152 -42.5 -282t-121 -227t-198.5 -152t-268 -55q-66 0 -109 2l-63 -453h-318zM381 217q35 -2 98 -2 q89 0 153.5 58t94 146t29.5 193q0 195 -117 195q-80 0 -143 -100t-93 -324z" />
<glyph unicode="q" horiz-adv-x="1136" d="M49 340q0 204 72.5 364.5t217.5 256.5t341 96q189 0 418 -21l-209 -1507h-318l91 645q-65 -102 -141 -148t-173 -46q-55 0 -107 22.5t-95.5 65t-70 113t-26.5 159.5zM381 424q0 -195 119 -195q76 0 137.5 100t91.5 324l23 166q-35 2 -95 2q-67 0 -121 -33t-87 -89.5 t-50.5 -126.5t-17.5 -148z" />
<glyph unicode="r" horiz-adv-x="804" d="M37 0l139 1018q92 39 166 39q61 0 93 -43t32 -113q0 -17 -2 -37l-2 -20q58 115 121.5 164t144.5 49q73 0 145 -37l-120 -275q-42 33 -107 33q-98 0 -157 -119.5t-99 -400.5l-37 -258h-317z" />
<glyph unicode="s" horiz-adv-x="925" d="M-8 111l102 188q62 -50 143 -72t146 -22q63 0 104 23.5t41 70.5q0 37 -37.5 61.5t-105.5 47.5q-57 19 -99.5 39.5t-87 53.5t-68.5 81.5t-24 109.5q0 171 120 268t311 97q220 0 370 -125l-131 -168q-119 72 -233 72q-55 0 -91 -26t-36 -69q0 -34 30.5 -56.5t92.5 -45.5 q54 -19 89 -34t80 -41.5t71 -55.5t44.5 -72t18.5 -94q0 -117 -62.5 -200.5t-163 -122.5t-227.5 -39q-249 0 -397 131z" />
<glyph unicode="t" horiz-adv-x="804" d="M72 799l32 237h150l33 236q93 41 166 41q60 0 93.5 -35.5t33.5 -95.5q0 -11 -2 -25l-19 -121h266l-30 -237h-271l-55 -420q-2 -18 -2 -43q0 -105 86 -105q80 0 145 35l21 -233q-123 -53 -266 -53q-150 0 -231 75.5t-81 212.5q0 32 6 72l62 459h-137z" />
<glyph unicode="u" horiz-adv-x="1120" d="M70 264q0 44 6 96l94 652q110 45 190 45q56 0 85.5 -29.5t29.5 -83.5q0 -10 -2 -26l-74 -494q-6 -40 -6 -66q0 -60 19 -93.5t69 -33.5q91 0 145.5 95t88.5 331l51 355q113 45 188 45q55 0 85 -29.5t30 -83.5q0 -10 -2 -26l-106 -732q-5 -40 -5 -59q0 -61 21 -94 q-116 -53 -205 -53q-54 0 -88.5 37.5t-34.5 103.5q0 17 2 37l4 45q-69 -117 -150.5 -170t-182.5 -53q-123 0 -187.5 72.5t-64.5 211.5z" />
<glyph unicode="v" horiz-adv-x="1062" d="M86 1016q37 18 93 29.5t102 11.5q141 0 157 -158l45 -407l6 -259q216 407 287 824l297 -47q-80 -511 -463 -1010h-338z" />
<glyph unicode="w" horiz-adv-x="1591" d="M82 1016q36 18 88.5 29.5t95.5 11.5q72 0 118.5 -37.5t53.5 -120.5l39 -412l2 -254q196 392 248 783q64 41 139 41q58 0 98.5 -39t47.5 -119l35 -399l2 -258q216 411 280 815l275 -47q-68 -508 -441 -1010h-309l-49 582q-81 -299 -250 -582h-299z" />
<glyph unicode="x" horiz-adv-x="1030" d="M-78 0l426 539l-233 477q105 41 192 41q75 0 116 -25.5t69 -85.5l81 -172l199 283l285 -47l-367 -486l266 -504q-87 -40 -170 -40q-90 0 -139.5 25.5t-79.5 84.5l-106 213l-217 -303h-322z" />
<glyph unicode="y" horiz-adv-x="1067" d="M55 -279q169 101 299 287q-87 26 -106 131l-156 877q84 41 182 41q69 0 115.5 -38t54.5 -120l48 -418l8 -270q173 342 284 846l297 -47q-30 -171 -113 -387.5t-200.5 -432t-276.5 -403.5t-321 -281z" />
<glyph unicode="z" horiz-adv-x="946" d="M-16 0l26 213l441 494l94 92h-426l39 237h751q23 -54 23 -110q0 -54 -19.5 -90.5t-78.5 -100.5l-361 -399l-106 -98h487l-39 -238h-831z" />
<glyph unicode="{" horiz-adv-x="657" d="M43 426l35 262q116 0 131 113l55 399q39 285 336 397l109 -223q-94 -37 -119 -213l-51 -368q-22 -148 -156 -232q98 -64 98 -182q0 -15 -4 -43l-47 -371q-4 -29 -4 -59q0 -133 74 -166l-203 -232q-219 94 -219 312q0 34 6 74l57 391q2 12 2 28q0 51 -27 82t-73 31z" />
<glyph unicode="|" horiz-adv-x="483" d="M-12 -471l286 2048h228l-285 -2048h-229z" />
<glyph unicode="}" horiz-adv-x="659" d="M-39 -268q94 37 119 213l51 368q22 148 156 232q-99 65 -99 182q0 8 5 43l47 371q4 29 4 59q0 133 -74 166l203 231q219 -94 219 -311q0 -34 -6 -74l-58 -391q-2 -12 -2 -28q0 -51 27.5 -82t73.5 -31l-35 -262q-116 0 -131 -113l-55 -399q-39 -286 -336 -398z" />
<glyph unicode="~" horiz-adv-x="1122" d="M74 455q45 92 125.5 150.5t158.5 58.5q111 0 277 -52q119 -34 174 -34q50 0 96 29.5t74 78.5l65 -125q-59 -102 -140.5 -155.5t-164.5 -53.5q-99 0 -250 51q-9 3 -14 5q-110 36 -160 36q-48 0 -93.5 -30.5t-78.5 -81.5z" />
<glyph unicode="&#xa2;" horiz-adv-x="1011" d="M78 420q0 174 64.5 317.5t183 229t268.5 90.5l18 127h78l-18 -131q103 -16 180.5 -86t93.5 -209l-237 -76q-12 104 -72 121l-78 -572h12q63 0 131 27t115 68l74 -234q-151 -108 -367 -112l-18 -127h-78l18 131q-179 17 -273.5 130.5t-94.5 305.5zM393 432q0 -137 90 -186 l76 559q-80 -27 -123 -138t-43 -235z" />
<glyph unicode="&#xa3;" horiz-adv-x="1021" d="M16 0l29 223h29q46 0 85 67.5t54 176.5l8 61h-127l29 220h127l24 176q25 172 138.5 265t294.5 93q193 0 317 -82l-49 -221q-91 53 -207 53q-94 0 -136 -47t-54 -135l-15 -102h285l-29 -220h-289l-12 -75q-22 -133 -78 -215h449l-35 -238h-838z" />
<glyph unicode="&#xa5;" d="M150 1235q28 21 79 34t95 13q169 0 208 -119l105 -336l258 455l291 -51l-438 -684h172l-31 -217h-189l-47 -330h-317l47 330h-190l28 217h172z" />
<glyph unicode="&#xa8;" horiz-adv-x="980" d="M223 1339q0 87 50 140t139 53q75 0 117 -38t42 -105q0 -88 -48.5 -140.5t-137.5 -52.5q-76 0 -119 37.5t-43 105.5zM647 1339q0 87 50 140t139 53q75 0 117 -38t42 -105q0 -88 -48.5 -140.5t-137.5 -52.5q-76 0 -119 37.5t-43 105.5z" />
<glyph unicode="&#xa9;" horiz-adv-x="1705" d="M98 608q0 198 61.5 363t173.5 280.5t276 179.5t364 64q330 0 512 -166.5t182 -468.5q0 -261 -107 -460.5t-307.5 -309.5t-466.5 -110q-328 0 -508 165t-180 463zM356 639q0 -215 121 -333t344 -118q179 0 313.5 86t203.5 232t69 330q0 215 -123 332.5t-348 117.5 q-179 0 -312 -86.5t-200.5 -232t-67.5 -328.5zM516 672q0 201 114.5 337t289.5 136q40 0 79 -11t79.5 -35.5t69 -74.5t34.5 -119l-189 -59q-9 88 -73 88q-44 0 -76.5 -42.5t-46 -97.5t-13.5 -110q0 -137 113 -137q50 0 101 19t83 48l60 -178q-60 -50 -139 -75t-156 -25 q-158 0 -244 88t-86 248z" />
<glyph unicode="&#xab;" horiz-adv-x="1122" d="M55 512l371 506l209 -133l-240 -373l137 -373l-247 -133zM526 512l371 506l209 -133l-240 -373l138 -373l-248 -133z" />
<glyph unicode="&#xad;" horiz-adv-x="823" d="M86 393l39 264h612l-39 -264h-612z" />
<glyph unicode="&#xae;" horiz-adv-x="1052" d="M150 1051q0 195 138 319.5t359 124.5q199 0 307.5 -89.5t108.5 -250.5q0 -196 -138.5 -317t-357.5 -121q-197 0 -307 89t-110 245zM260 1063q0 -122 85.5 -189t238.5 -67q167 0 269.5 96t102.5 250q0 120 -85 186t-238 66q-168 0 -270.5 -95t-102.5 -247zM420 907l55 398 q55 6 160 6q75 0 117.5 -24.5t42.5 -69.5q0 -75 -78 -121q53 -18 53 -74q0 -10 -2 -30t-2 -29q0 -20 6 -35q-40 -29 -88 -29q-43 0 -43 43q0 7 3 27t3 28q0 20 -13.5 33.5t-33.5 13.5h-39l-18 -137h-123zM573 1130h5q84 0 84 60q0 31 -48 31h-28z" />
<glyph unicode="&#xb4;" horiz-adv-x="516" d="M119 1325l395 301l119 -254l-451 -198z" />
<glyph unicode="&#xb8;" horiz-adv-x="466" d="M-121 -436l64 110q46 -32 110 -32q40 0 66 24.5t26 63.5q0 47 -39.5 76.5t-132.5 46.5l160 188l154 -41l-76 -80q115 -52 115 -178q0 -110 -74 -172t-195 -62q-102 0 -178 56z" />
<glyph unicode="&#xbb;" horiz-adv-x="1120" d="M14 139l242 373l-137 373l248 133l227 -506l-369 -506zM485 139l242 373l-137 373l248 133l227 -506l-369 -506z" />
<glyph unicode="&#xd3;" horiz-adv-x="1478" d="M96 578q0 194 51.5 360.5t147 290.5t242 195t327.5 71q277 0 428.5 -157.5t151.5 -444.5q0 -192 -51.5 -358t-147.5 -289.5t-242 -194.5t-325 -71q-278 0 -430 156.5t-152 441.5zM440 592q0 -167 69.5 -258.5t197.5 -91.5q78 0 144.5 38t111.5 101t77 146.5t47 174 t15 183.5q0 167 -67 257.5t-195 90.5q-97 0 -175.5 -57t-126.5 -150.5t-73 -205t-25 -228.5zM727 1763l395 301l119 -254l-450 -198z" />
<glyph unicode="&#xf3;" horiz-adv-x="1144" d="M59 420q0 188 67 331t199.5 224.5t313.5 81.5q215 0 329.5 -116.5t114.5 -328.5q0 -188 -67 -330t-197.5 -222t-308.5 -80q-219 0 -335 115.5t-116 324.5zM377 432q0 -96 41.5 -148.5t116.5 -52.5q56 0 101.5 33t73 88t42 120t14.5 134q0 96 -40.5 148.5t-119.5 52.5 q-56 0 -101 -34t-72 -89.5t-41.5 -120t-14.5 -131.5zM502 1325l395 301l119 -254l-451 -198z" />
<glyph unicode="&#x104;" horiz-adv-x="1304" d="M-78 0l686 1456q82 39 170 39q171 0 209 -188l250 -1307q-246 -206 -246 -311q0 -47 58 -47q50 0 118 36l29 -120q-102 -50 -203 -50q-84 0 -129 42.5t-45 117.5q0 88 64.5 164.5t187.5 167.5h-178l-51 313h-473l-129 -313h-318zM475 567h326l-92 570z" />
<glyph unicode="&#x105;" d="M49 340q0 204 72.5 364.5t217.5 256.5t341 96q191 0 424 -21l-125 -850q-4 -32 -4 -59q0 -63 20 -94q-112 -99 -181 -190t-69 -154q0 -47 58 -47q51 0 119 36l28 -120q-102 -50 -205 -50q-82 0 -127 43t-45 117q0 83 51.5 157.5t145.5 156.5q-45 6 -73.5 43t-28.5 96 q0 16 2 43l2 26q-66 -111 -144.5 -160.5t-179.5 -49.5q-55 0 -107 22.5t-95.5 65t-70 113t-26.5 159.5zM381 424q0 -195 119 -195q169 0 231 424l25 166q-37 2 -99 2q-67 0 -121 -33t-87 -89.5t-50.5 -126.5t-17.5 -148z" />
<glyph unicode="&#x106;" horiz-adv-x="1212" d="M96 582q0 145 28.5 279.5t87 249.5t140 201t194 134.5t242.5 48.5q341 0 455 -303l-315 -105q-47 146 -162 146q-62 0 -116.5 -40t-92.5 -106t-65.5 -150t-40.5 -173t-13 -174q0 -169 64.5 -258.5t169.5 -89.5q183 0 364 141l105 -238q-97 -77 -231.5 -121t-272.5 -44 q-260 0 -400.5 161t-140.5 441zM655 1763l396 301l118 -254l-450 -198z" />
<glyph unicode="&#x107;" horiz-adv-x="960" d="M59 420q0 177 66.5 322t189 230t277.5 85q51 0 101.5 -14t101.5 -45t87 -93t46 -147l-238 -76q-8 63 -32 94t-70 31q-52 0 -93.5 -35t-66 -91.5t-37 -120.5t-12.5 -128q0 -97 45.5 -149t128.5 -52q63 0 131 27t115 68l73 -234q-80 -57 -180 -84.5t-198 -27.5 q-210 0 -322.5 115.5t-112.5 324.5zM457 1325l395 301l119 -254l-451 -198z" />
<glyph unicode="&#x118;" horiz-adv-x="1118" d="M66 0l206 1475h883l-39 -254h-547l-49 -338h486l-39 -254h-482l-53 -375h574l-39 -254q-246 -206 -246 -311q0 -47 57 -47q51 0 119 36l29 -120q-102 -50 -203 -50q-84 0 -129 42.5t-45 117.5q0 88 64.5 164.5t187.5 167.5h-735z" />
<glyph unicode="&#x119;" horiz-adv-x="1017" d="M57 401q0 186 67 333.5t199 235t308 87.5q167 0 257.5 -79t90.5 -218q0 -100 -40 -175t-111 -118.5t-159.5 -64.5t-195.5 -21q-69 0 -121 8q2 -87 40 -129.5t126 -42.5q149 0 283 84l94 -205q-164 -117 -266.5 -225.5t-102.5 -181.5q0 -47 58 -47q50 0 118 36l29 -120 q-102 -50 -205 -50q-82 0 -127 43t-45 117q0 84 53.5 160.5t151.5 155.5q-50 -4 -78 -4q-205 0 -314.5 109.5t-109.5 311.5zM369 561q66 -4 94 -4q90 0 150.5 43.5t60.5 120.5q0 41 -24 65.5t-70 24.5q-81 0 -134.5 -68t-76.5 -182z" />
<glyph unicode="&#x141;" horiz-adv-x="1034" d="M37 514l33 225l123 52l94 655q93 49 168 49q67 0 104 -35t37 -100q0 -17 -2 -33l-59 -412l329 142l-30 -226l-330 -143l-62 -424h529l-37 -264h-856l82 565z" />
<glyph unicode="&#x142;" horiz-adv-x="710" d="M66 514l30 225l115 64l106 749q110 45 187 45q57 0 85.5 -26.5t28.5 -85.5q0 -11 -2 -27l-67 -493l168 92l-31 -226l-168 -94l-59 -426q-4 -24 -4 -35q0 -45 51 -45q48 0 82 15l24 -207q-100 -59 -225 -59q-124 0 -189 63.5t-65 179.5q0 18 4 49l43 303z" />
<glyph unicode="&#x143;" horiz-adv-x="1437" d="M66 0l206 1446q67 49 152 49q108 0 166 -111l416 -796l112 887h316l-205 -1475h-258l-475 891l-117 -891h-313zM709 1763l395 301l119 -254l-451 -198z" />
<glyph unicode="&#x144;" horiz-adv-x="1148" d="M37 0l141 1018q95 39 166 39q62 0 93.5 -42.5t31.5 -113.5q0 -12 -2 -37l-4 -51q71 131 155.5 187.5t192.5 56.5q126 0 194 -76.5t68 -214.5q0 -34 -8 -92l-70 -488q-6 -48 -6 -59q0 -58 23 -94q-116 -53 -203 -53q-135 0 -135 139q0 17 2 33l69 460q7 47 7 70 q0 125 -95 125q-97 0 -158.5 -120.5t-101.5 -391.5l-43 -295h-317zM545 1325l395 301l119 -254l-451 -198z" />
<glyph unicode="&#x15a;" horiz-adv-x="1116" d="M6 139l113 223q56 -57 149 -88.5t199 -31.5q115 0 172 48t57 126q0 36 -13.5 64t-43 50t-57 35.5t-72.5 32.5q-55 22 -95 42t-89.5 56.5t-80.5 78.5t-53 106.5t-22 142.5q0 220 139.5 345.5t382.5 125.5q245 0 430 -147l-164 -215q-48 45 -118 72.5t-142 27.5 q-82 0 -134 -43.5t-52 -108.5q0 -60 48 -98t145 -78q55 -23 95 -43t89 -56t79.5 -77t52 -103.5t21.5 -136.5q0 -234 -161.5 -371.5t-423.5 -137.5q-138 0 -254.5 41.5t-196.5 117.5zM537 1763l395 301l119 -254l-451 -198z" />
<glyph unicode="&#x15b;" horiz-adv-x="925" d="M-8 111l102 188q62 -50 143 -72t146 -22q63 0 104 23.5t41 70.5q0 37 -37.5 61.5t-105.5 47.5q-57 19 -99.5 39.5t-87 53.5t-68.5 81.5t-24 109.5q0 171 120 268t311 97q220 0 370 -125l-131 -168q-119 72 -233 72q-55 0 -91 -26t-36 -69q0 -34 30.5 -56.5t92.5 -45.5 q54 -19 89 -34t80 -41.5t71 -55.5t44.5 -72t18.5 -94q0 -117 -62.5 -200.5t-163 -122.5t-227.5 -39q-249 0 -397 131zM387 1325l395 301l119 -254l-450 -198z" />
<glyph unicode="&#x179;" horiz-adv-x="1136" d="M-23 0l29 211l627 815l162 195h-605l39 254h945q20 -55 20 -105q0 -57 -29.5 -115.5t-89.5 -138.5l-530 -715l-133 -147h620l-39 -254h-1016zM547 1763l395 301l119 -254l-451 -198z" />
<glyph unicode="&#x17a;" horiz-adv-x="946" d="M-16 0l26 213l441 494l94 92h-426l39 237h751q23 -54 23 -110q0 -54 -19.5 -90.5t-78.5 -100.5l-361 -399l-106 -98h487l-39 -238h-831zM401 1325l396 301l118 -254l-450 -198z" />
<glyph unicode="&#x17b;" horiz-adv-x="1136" d="M-23 0l29 211l627 815l162 195h-605l39 254h945q20 -55 20 -105q0 -57 -29.5 -115.5t-89.5 -138.5l-530 -715l-133 -147h620l-39 -254h-1016zM565 1778q0 87 50 139.5t139 52.5q75 0 117 -38t42 -105q0 -88 -48.5 -140.5t-137.5 -52.5q-76 0 -119 38t-43 106z" />
<glyph unicode="&#x17c;" horiz-adv-x="946" d="M-16 0l26 213l441 494l94 92h-426l39 237h751q23 -54 23 -110q0 -54 -19.5 -90.5t-78.5 -100.5l-361 -399l-106 -98h487l-39 -238h-831zM420 1339q0 87 49.5 140t138.5 53q75 0 117.5 -38t42.5 -105q0 -88 -48.5 -140.5t-137.5 -52.5q-76 0 -119 37.5t-43 105.5z" />
<glyph unicode="&#x2c6;" horiz-adv-x="720" d="M119 1325l395 285l320 -285l-107 -151l-252 147l-293 -147z" />
<glyph unicode="&#x2da;" horiz-adv-x="516" d="M123 1358q0 128 76.5 206t206.5 78q109 0 171 -57t62 -158q0 -127 -76 -204.5t-203 -77.5q-114 0 -175.5 55.5t-61.5 157.5zM293 1366q0 -80 78 -80q46 0 74 40.5t28 90.5q0 40 -20.5 62t-55.5 22q-48 0 -76 -40t-28 -95z" />
<glyph unicode="&#x2dc;" horiz-adv-x="841" d="M166 1303q42 86 116 140t146 54q61 0 158 -45q4 -2 20 -9t21.5 -9t17 -6t20 -5.5t17.5 -1.5q92 0 158 76l69 -115q-128 -194 -282 -194q-62 0 -150 45q-5 2 -18.5 9t-19.5 10t-16.5 7t-19 5.5t-16.5 1.5q-82 0 -149 -78z" />
<glyph unicode="&#x400;" horiz-adv-x="1118" d="M66 0l206 1475h883l-39 -254h-547l-49 -338h486l-39 -254h-482l-53 -375h574l-39 -254h-901zM455 1810l118 254l396 -301l-64 -151z" />
<glyph unicode="&#x401;" horiz-adv-x="1118" d="M66 0l206 1475h883l-39 -254h-547l-49 -338h486l-39 -254h-482l-53 -375h574l-39 -254h-901zM385 1778q0 87 49.5 139.5t138.5 52.5q75 0 117.5 -38t42.5 -105q0 -88 -48.5 -140.5t-137.5 -52.5q-76 0 -119 38t-43 106zM809 1778q0 87 49.5 139.5t138.5 52.5 q75 0 117.5 -38t42.5 -105q0 -88 -48.5 -140.5t-137.5 -52.5q-76 0 -119 38t-43 106z" />
<glyph unicode="&#x402;" horiz-adv-x="1460" d="M137 1221l35 254h983l-35 -254h-362l-60 -418q85 117 188.5 176t215.5 59q154 0 235.5 -96t81.5 -276q0 -201 -72 -355t-215.5 -242.5t-340.5 -88.5l53 262q89 0 162 101.5t73 240.5q0 92 -36.5 142t-102.5 50q-113 0 -194 -110t-113 -336l-47 -330h-332l172 1221h-289z " />
<glyph unicode="&#x403;" horiz-adv-x="983" d="M66 0l206 1475h813l-38 -254h-478l-172 -1221h-331zM485 1763l396 301l118 -254l-450 -198z" />
<glyph unicode="&#x404;" horiz-adv-x="1218" d="M96 582q0 145 28.5 279.5t87 249.5t140 201t194 134.5t242.5 48.5q341 0 455 -303l-315 -105q-47 146 -162 146q-101 0 -176 -99.5t-115 -256.5h449l-35 -256h-451v-31q0 -169 64.5 -258.5t169.5 -89.5q183 0 364 141l105 -238q-97 -77 -231.5 -121t-272.5 -44 q-260 0 -400.5 161t-140.5 441z" />
<glyph unicode="&#x405;" horiz-adv-x="1116" d="M6 139l113 223q56 -57 149 -88.5t199 -31.5q115 0 172 48t57 126q0 36 -13.5 64t-43 50t-57 35.5t-72.5 32.5q-55 22 -95 42t-89.5 56.5t-80.5 78.5t-53 106.5t-22 142.5q0 220 139.5 345.5t382.5 125.5q245 0 430 -147l-164 -215q-48 45 -118 72.5t-142 27.5 q-82 0 -134 -43.5t-52 -108.5q0 -60 48 -98t145 -78q55 -23 95 -43t89 -56t79.5 -77t52 -103.5t21.5 -136.5q0 -234 -161.5 -371.5t-423.5 -137.5q-138 0 -254.5 41.5t-196.5 117.5z" />
<glyph unicode="&#x406;" horiz-adv-x="600" d="M61 0l209 1446q93 49 168 49q68 0 105 -35.5t37 -99.5q0 -17 -2 -33l-189 -1327h-328z" />
<glyph unicode="&#x407;" horiz-adv-x="600" d="M61 0l209 1446q93 49 168 49q68 0 105 -35.5t37 -99.5q0 -17 -2 -33l-189 -1327h-328zM96 1778q0 87 50 139.5t139 52.5q75 0 117 -38t42 -105q0 -88 -48.5 -140.5t-137.5 -52.5q-76 0 -119 38t-43 106zM520 1778q0 87 50 139.5t139 52.5q75 0 117 -38t42 -105 q0 -88 -48.5 -140.5t-137.5 -52.5q-76 0 -119 38t-43 106z" />
<glyph unicode="&#x408;" horiz-adv-x="794" d="M-47 33q103 -53 254 -53q178 0 294.5 101.5t141.5 278.5l137 967q2 16 2 29q0 65 -37.5 102t-103.5 37q-74 0 -174 -49l-145 -1036q-12 -83 -52 -125.5t-104 -42.5q-75 0 -123 30z" />
<glyph unicode="&#x409;" horiz-adv-x="2025" d="M-10 207q92 37 141.5 108t75.5 207l178 953h1038l-82 -592q98 4 156 4q229 0 354 -98t125 -281q0 -250 -183 -389t-488 -139q-202 0 -420 20l172 1221h-420l-137 -740q-38 -204 -139 -320.5t-269 -180.5zM1249 236q58 -3 103 -3q132 0 204 67t72 177q0 73 -50.5 114.5 t-143.5 41.5q-86 0 -129 -2z" />
<glyph unicode="&#x40a;" horiz-adv-x="2035" d="M61 0l209 1446q93 49 170 49q67 0 103.5 -35t36.5 -100q0 -17 -2 -33l-64 -453h506l82 572q93 49 168 49h4q67 0 103 -35t36 -100q0 -17 -2 -33l-61 -444q102 4 159 4q228 0 354 -98.5t126 -280.5q0 -167 -85.5 -287t-236.5 -180.5t-352 -60.5q-202 0 -420 20h-2l90 618 h-506l-86 -618h-330zM1257 236q59 -3 107 -3q130 0 202 67t72 177q0 73 -50.5 114.5t-143.5 41.5q-86 0 -131 -2z" />
<glyph unicode="&#x40b;" horiz-adv-x="1511" d="M137 1221l35 254h983l-35 -254h-362l-62 -430q183 247 437 247q152 0 232.5 -80.5t80.5 -230.5q0 -51 -10 -129l-56 -412q-4 -32 -4 -59q0 -60 19 -94q-122 -53 -213 -53q-66 0 -103 36.5t-37 102.5q0 17 2 33l54 391q8 66 8 86q0 62 -29.5 104.5t-101.5 42.5 q-131 0 -220 -109.5t-122 -336.5l-47 -330h-332l172 1221h-289z" />
<glyph unicode="&#x40c;" horiz-adv-x="1273" d="M61 0l209 1446q93 49 168 49q68 0 105 -35.5t37 -99.5q0 -17 -2 -33l-189 -1327h-328zM502 745l512 750l295 -53l-457 -641l375 -762q-37 -26 -90 -42.5t-107 -16.5q-100 0 -150.5 26.5t-76.5 83.5zM666 1763l395 301l119 -254l-451 -198z" />
<glyph unicode="&#x40d;" horiz-adv-x="1433" d="M63 0l209 1446q93 49 170 49q67 0 103.5 -35t36.5 -100q0 -17 -2 -33l-97 -692l590 596l31 215q93 49 168 49q67 0 104 -35t37 -100q0 -17 -2 -33l-188 -1327h-328l117 809l-588 -594l-31 -215h-330zM584 1810l118 254l396 -301l-64 -151z" />
<glyph unicode="&#x40e;" horiz-adv-x="923" d="M27 201q73 11 152 72.5t132 154.5l41 74q-44 33 -63 108l-219 838q70 47 161 47q99 0 153.5 -36.5t78.5 -133.5l67 -281l29 -272l103 272l202 451l295 -53l-557 -1092q-78 -153 -206.5 -255.5t-252.5 -117.5zM365 1872q0 21 4 53h211q-2 -12 -2 -29q0 -46 24 -72t68 -26 q60 0 96 32.5t39 94.5h213q-23 -150 -116 -231.5t-238 -81.5q-144 0 -221.5 68.5t-77.5 191.5z" />
<glyph unicode="&#x40f;" horiz-adv-x="1363" d="M63 0l209 1446q93 49 170 49q67 0 103.5 -35t36.5 -100q0 -17 -2 -33l-152 -1073h434l172 1192q93 49 168 49q67 0 104 -35t37 -100q0 -17 -2 -33l-188 -1327h-373l-28 -197q-100 -49 -181 -49q-64 0 -101.5 37.5t-37.5 102.5q0 12 2 28l12 78h-383z" />
<glyph unicode="&#x410;" horiz-adv-x="1304" d="M-78 0l686 1456q82 39 170 39q171 0 209 -188l250 -1307h-344l-51 313h-473l-129 -313h-318zM475 567h326l-92 570z" />
<glyph unicode="&#x411;" horiz-adv-x="1210" d="M66 0l206 1475h891l-39 -254h-555l-47 -338q102 4 158 4q228 0 353.5 -98.5t125.5 -280.5q0 -167 -85.5 -287t-236.5 -180.5t-352 -60.5t-419 20zM430 236q58 -3 105 -3q130 0 202 67t72 177q0 73 -51 114.5t-144 41.5q-86 0 -129 -2z" />
<glyph unicode="&#x412;" horiz-adv-x="1251" d="M66 0l206 1475h2q293 20 461 20q229 0 353 -86t124 -244q0 -132 -60 -230.5t-169 -160.5q193 -91 193 -303q0 -152 -86 -264.5t-232 -169.5t-332 -57q-222 0 -460 20zM430 236q79 -3 139 -3q117 0 186.5 64t69.5 162q0 82 -47 128t-131 46h-162zM522 887h94 q115 0 178.5 57.5t63.5 157.5q0 66 -43 102.5t-129 36.5q-70 0 -115 -2z" />
<glyph unicode="&#x413;" horiz-adv-x="983" d="M66 0l206 1475h813l-38 -254h-478l-172 -1221h-331z" />
<glyph unicode="&#x414;" horiz-adv-x="1525" d="M-49 -106q0 12 2 28l43 311q109 41 174.5 156t105.5 338l132 748h1028l-172 -1227h166l-66 -445q-100 -49 -180 -49q-64 0 -102 38t-38 102q0 4 3 28l12 78h-783l-45 -197q-86 -49 -161 -49q-58 0 -88.5 37t-30.5 103zM383 254h549l137 967h-407l-97 -533 q-53 -283 -182 -434z" />
<glyph unicode="&#x415;" horiz-adv-x="1118" d="M66 0l206 1475h883l-39 -254h-547l-49 -338h486l-39 -254h-482l-53 -375h574l-39 -254h-901z" />
<glyph unicode="&#x416;" horiz-adv-x="1783" d="M-51 0l479 758l-219 678q80 59 180 59q71 0 110 -25t58 -84l203 -643l-451 -743h-360zM664 0l208 1446q93 49 168 49q68 0 105 -35.5t37 -99.5q0 -17 -2 -33l-189 -1327h-327zM1110 745l414 750l305 -53l-387 -684l252 -719q-88 -59 -191 -59q-87 0 -126.5 27.5 t-61.5 98.5z" />
<glyph unicode="&#x417;" horiz-adv-x="1171" d="M-29 195l142 194q65 -78 155 -112.5t185 -34.5q135 0 216 65.5t81 179.5q0 82 -52 125t-149 43h-182l32 226h113q108 0 175 60.5t67 150.5q0 67 -43.5 104t-120.5 37t-164 -28t-160 -81l-67 224q112 74 241 110.5t246 36.5q201 0 312.5 -88t111.5 -246q0 -141 -77 -243 t-212 -134q127 -17 199 -98.5t72 -212.5q0 -158 -83 -271.5t-221.5 -167.5t-318.5 -54q-304 0 -498 215z" />
<glyph unicode="&#x418;" horiz-adv-x="1433" d="M63 0l209 1446q93 49 170 49q67 0 103.5 -35t36.5 -100q0 -17 -2 -33l-97 -692l590 596l31 215q93 49 168 49q67 0 104 -35t37 -100q0 -17 -2 -33l-188 -1327h-328l117 809l-588 -594l-31 -215h-330z" />
<glyph unicode="&#x419;" horiz-adv-x="1433" d="M63 0l209 1446q93 49 170 49q67 0 103.5 -35t36.5 -100q0 -17 -2 -33l-97 -692l590 596l31 215q93 49 168 49q67 0 104 -35t37 -100q0 -17 -2 -33l-188 -1327h-328l117 809l-588 -594l-31 -215h-330zM598 1872q0 21 4 53h211q-2 -12 -2 -29q0 -46 24 -72t68 -26 q60 0 96 32.5t39 94.5h213q-23 -150 -116 -231.5t-238 -81.5q-144 0 -221.5 68.5t-77.5 191.5z" />
<glyph unicode="&#x41a;" horiz-adv-x="1273" d="M61 0l209 1446q93 49 168 49q68 0 105 -35.5t37 -99.5q0 -17 -2 -33l-189 -1327h-328zM502 745l512 750l295 -53l-457 -641l375 -762q-37 -26 -90 -42.5t-107 -16.5q-100 0 -150.5 26.5t-76.5 83.5z" />
<glyph unicode="&#x41b;" horiz-adv-x="1427" d="M-10 207q92 37 141.5 108t75.5 207l178 953h1038l-206 -1475h-332l172 1221h-420l-137 -740q-38 -204 -139 -320.5t-269 -180.5z" />
<glyph unicode="&#x41c;" horiz-adv-x="1769" d="M4 0l346 1456q32 17 78 28t82 11q189 0 213 -145l162 -1012l446 1116q75 41 154 41q95 0 136 -44t38 -151l-31 -1300h-338l56 938l-394 -938h-299l-153 920l-195 -920h-301z" />
<glyph unicode="&#x41d;" horiz-adv-x="1431" d="M61 0l209 1446q93 49 170 49q67 0 103.5 -35t36.5 -100q0 -17 -2 -33l-64 -453h506l82 572q93 49 168 49q67 0 104 -35t37 -100q0 -17 -2 -33l-188 -1327h-328l90 618h-506l-86 -618h-330z" />
<glyph unicode="&#x41e;" horiz-adv-x="1478" d="M96 578q0 194 51.5 360.5t147 290.5t242 195t327.5 71q277 0 428.5 -157.5t151.5 -444.5q0 -192 -51.5 -358t-147.5 -289.5t-242 -194.5t-325 -71q-278 0 -430 156.5t-152 441.5zM440 592q0 -167 69.5 -258.5t197.5 -91.5q78 0 144.5 38t111.5 101t77 146.5t47 174 t15 183.5q0 167 -67 257.5t-195 90.5q-97 0 -175.5 -57t-126.5 -150.5t-73 -205t-25 -228.5z" />
<glyph unicode="&#x41f;" horiz-adv-x="1411" d="M66 0l206 1475h1133l-207 -1475h-332l172 1221h-469l-172 -1221h-331z" />
<glyph unicode="&#x420;" horiz-adv-x="1214" d="M66 0l206 1475q222 20 494 20q232 0 358.5 -98t126.5 -281q0 -260 -179 -416.5t-466 -156.5q-84 0 -133 2l-76 -545h-331zM510 799q45 -2 129 -2q124 0 192 77.5t68 200.5q0 77 -48 121.5t-136 44.5q-34 0 -144 -4z" />
<glyph unicode="&#x421;" horiz-adv-x="1212" d="M96 582q0 145 28.5 279.5t87 249.5t140 201t194 134.5t242.5 48.5q341 0 455 -303l-315 -105q-47 146 -162 146q-62 0 -116.5 -40t-92.5 -106t-65.5 -150t-40.5 -173t-13 -174q0 -169 64.5 -258.5t169.5 -89.5q183 0 364 141l105 -238q-97 -77 -231.5 -121t-272.5 -44 q-260 0 -400.5 161t-140.5 441z" />
<glyph unicode="&#x422;" horiz-adv-x="1064" d="M135 1221l39 254h985l-37 -254h-327l-172 -1221h-332l172 1221h-328z" />
<glyph unicode="&#x423;" horiz-adv-x="923" d="M27 201q73 11 152 72.5t132 154.5l41 74q-44 33 -63 108l-219 838q70 47 161 47q99 0 153.5 -36.5t78.5 -133.5l67 -281l29 -272l103 272l202 451l295 -53l-557 -1092q-78 -153 -206.5 -255.5t-252.5 -117.5z" />
<glyph unicode="&#x424;" horiz-adv-x="1548" d="M80 608q0 201 77.5 361.5t225.5 257t346 106.5l16 113q93 49 168 49q68 0 105 -35.5t37 -99.5q0 -15 -2 -27q233 -12 356 -131t123 -330q0 -200 -77.5 -361.5t-225.5 -260t-344 -109.5l-21 -141h-327l20 141q-231 12 -354 132.5t-123 334.5zM416 643q0 -221 178 -246 l98 680q-89 -14 -153.5 -82t-93.5 -159.5t-29 -192.5zM922 397q89 16 153 84.5t92.5 158.5t28.5 189q0 110 -46.5 172t-131.5 76z" />
<glyph unicode="&#x425;" horiz-adv-x="1261" d="M-78 0l549 758l-299 690q31 22 79.5 34.5t92.5 12.5q105 0 159 -28t83 -97l141 -332l301 457l320 -53l-490 -684l334 -731q-71 -47 -168 -47q-84 0 -138 14.5t-81.5 40.5t-46.5 69l-164 388l-334 -492h-338z" />
<glyph unicode="&#x426;" horiz-adv-x="1449" d="M63 0l209 1446q93 49 170 49q67 0 103.5 -35t36.5 -100q0 -17 -2 -33l-152 -1073h434l172 1192q93 49 168 49q67 0 104 -35t37 -100q0 -17 -2 -33l-153 -1079h170l-66 -445q-100 -49 -180 -49q-64 0 -101.5 37.5t-37.5 102.5q0 12 2 28l12 78h-924z" />
<glyph unicode="&#x427;" horiz-adv-x="1306" d="M133 778q0 49 10 127l78 541q93 49 170 49q67 0 102 -35t35 -100q0 -17 -2 -33l-41 -336q-8 -74 -8 -121q0 -36 5 -64t17.5 -54t38 -40t62.5 -14q119 0 204.5 110.5t117.5 336.5l47 330h331l-206 -1475h-332l94 674q-86 -118 -194.5 -178t-227.5 -60q-147 0 -224 87 t-77 255z" />
<glyph unicode="&#x428;" horiz-adv-x="1980" d="M63 0l209 1446q93 49 170 49q67 0 103.5 -35t36.5 -100q0 -17 -2 -33l-152 -1073h360l173 1192q93 49 167 49q68 0 105 -35.5t37 -99.5q0 -17 -2 -33l-152 -1073h363l172 1192q93 49 168 49q67 0 104 -35t37 -100q0 -17 -2 -33l-189 -1327h-1706z" />
<glyph unicode="&#x429;" horiz-adv-x="2066" d="M63 0l209 1446q93 49 170 49q67 0 103.5 -35t36.5 -100q0 -17 -2 -33l-152 -1073h360l173 1192q93 49 167 49q68 0 105 -35.5t37 -99.5q0 -17 -2 -33l-152 -1073h363l172 1192q93 49 168 49q67 0 104 -35t37 -100q0 -17 -2 -33l-154 -1079h168l-65 -445 q-100 -49 -181 -49q-64 0 -101.5 37.5t-37.5 102.5q0 12 2 28l13 78h-1539z" />
<glyph unicode="&#x42a;" horiz-adv-x="1378" d="M121 1221l39 254h616l-82 -592q98 4 156 4q229 0 354 -98t125 -281q0 -250 -183.5 -389t-488.5 -139q-201 0 -419 20l172 1221h-289zM602 236q58 -3 103 -3q132 0 204 67t72 177q0 73 -51 114.5t-144 41.5q-86 0 -129 -2z" />
<glyph unicode="&#x42b;" horiz-adv-x="1806" d="M63 0l209 1446q93 49 170 49q67 0 103.5 -35t36.5 -100q0 -17 -2 -33l-62 -444q102 4 160 4q228 0 353.5 -98.5t125.5 -280.5q0 -167 -85.5 -287t-236.5 -180.5t-352 -60.5q-202 0 -420 20zM426 236q59 -3 106 -3q131 0 203 67t72 177q0 73 -51 114.5t-144 41.5 q-86 0 -131 -2zM1268 0l209 1446q93 49 168 49q67 0 104 -35t37 -100q0 -17 -2 -33l-189 -1327h-327z" />
<glyph unicode="&#x42c;" horiz-adv-x="1206" d="M63 0l209 1446q93 49 170 49q67 0 103.5 -35t36.5 -100q0 -17 -2 -33l-62 -444q102 4 160 4q228 0 353.5 -98.5t125.5 -280.5q0 -167 -85.5 -287t-236.5 -180.5t-352 -60.5q-202 0 -420 20zM426 236q59 -3 106 -3q131 0 203 67t72 177q0 73 -51 114.5t-144 41.5 q-86 0 -131 -2z" />
<glyph unicode="&#x42d;" horiz-adv-x="1222" d="M-16 156l151 215q68 -63 156 -96t172 -33q139 0 225.5 103t124.5 276h-451l35 256h447v38q0 157 -50.5 237.5t-136.5 80.5q-123 0 -206 -162l-289 139q192 285 514 285q244 0 377 -159t133 -435q0 -187 -48.5 -353t-139 -293t-230 -201t-309.5 -74q-151 0 -275.5 47.5 t-199.5 128.5z" />
<glyph unicode="&#x42e;" horiz-adv-x="1878" d="M63 0l209 1446q93 49 170 49q67 0 103.5 -35t36.5 -100q0 -17 -2 -33l-64 -450h141q31 134 88 245.5t138.5 195.5t192.5 130.5t241 46.5q254 0 391 -154.5t137 -435.5q0 -150 -29 -287t-88 -253.5t-143 -202t-200 -134t-252 -48.5q-242 0 -375 153.5t-133 431.5v56h-144 l-88 -621h-330zM950 565q0 -155 54 -239t153 -84q83 0 151 61.5t109.5 160t63.5 214t22 231.5q0 155 -54.5 239.5t-154.5 84.5q-69 0 -127.5 -42t-97.5 -110.5t-66.5 -157t-40 -179.5t-12.5 -179z" />
<glyph unicode="&#x42f;" horiz-adv-x="1288" d="M-76 0l479 641q-103 45 -159 126.5t-56 193.5q0 165 87.5 287.5t239 184.5t345.5 62q225 0 424 -20l-207 -1475h-332l84 602q-42 -6 -127 -10l-430 -592h-348zM539 989q0 -79 54 -123.5t155 -44.5q52 0 114 6l58 406q-37 2 -109 2q-125 0 -198.5 -65t-73.5 -181z" />
<glyph unicode="&#x430;" d="M49 340q0 204 72.5 364.5t217.5 256.5t341 96q191 0 424 -21l-125 -850q-4 -32 -4 -59q0 -63 20 -94q-116 -53 -204 -53q-54 0 -88.5 37.5t-34.5 103.5q0 16 2 43l2 26q-66 -111 -144.5 -160.5t-179.5 -49.5q-55 0 -107 22.5t-95.5 65t-70 113t-26.5 159.5zM381 424 q0 -195 119 -195q169 0 231 424l25 166q-37 2 -99 2q-67 0 -121 -33t-87 -89.5t-50.5 -126.5t-17.5 -148z" />
<glyph unicode="&#x431;" horiz-adv-x="1163" d="M82 455q0 63 10 145q32 236 88.5 407.5t139.5 281t184.5 168.5t232.5 79l361 57q51 -66 51 -143q0 -105 -174 -139l-240 -47q-57 -12 -99.5 -32.5t-83 -60t-73.5 -106t-59 -162.5q123 154 332 154q169 0 259.5 -111t90.5 -311q0 -193 -65 -339t-197.5 -231t-317.5 -85 q-212 0 -326 124.5t-114 350.5zM393 432q0 -97 40.5 -149t115.5 -52q58 0 104.5 34.5t73.5 90t41 120t14 130.5q0 96 -40 148.5t-115 52.5t-130 -58t-79.5 -141.5t-24.5 -175.5z" />
<glyph unicode="&#x432;" horiz-adv-x="1034" d="M51 254q0 24 4 63l70 431q25 149 143 229t320 80q184 0 287.5 -65t103.5 -183q0 -185 -205 -274q166 -62 166 -211q0 -156 -142.5 -250t-371.5 -94q-178 0 -276.5 74t-98.5 200zM362 293q0 -41 28 -68.5t79 -27.5q86 0 124 41t38 94q0 55 -42.5 89t-115.5 34h-82 l-20 -105q-9 -41 -9 -57zM420 608h63q95 0 144 40.5t49 101.5q0 38 -27.5 63t-83.5 25q-54 0 -84 -29.5t-41 -87.5z" />
<glyph unicode="&#x433;" horiz-adv-x="919" d="M18 250q0 68 27.5 124.5t81 99.5t108.5 73t134 63q42 17 62.5 26.5t49.5 25t42.5 28.5t23.5 31.5t10 40.5q0 30 -25.5 46.5t-70.5 16.5q-115 0 -236 -77l-102 194q188 115 387 115q173 0 270 -70t97 -192q0 -45 -11 -85t-27 -69.5t-45.5 -57.5t-55.5 -47t-68 -40.5 t-71 -34t-77 -31.5q-40 -16 -56.5 -23t-47.5 -23t-44.5 -28.5t-25.5 -32t-12 -40.5q0 -68 102 -68q70 0 159.5 21.5t160.5 62.5l61 -199q-87 -61 -198.5 -90.5t-219.5 -29.5q-185 0 -284 71t-99 199z" />
<glyph unicode="&#x434;" horiz-adv-x="1161" d="M61 424q0 129 31.5 242.5t90 201t150 138.5t204.5 51q196 0 288 -125q-19 108 -64 188t-115.5 131t-152 80.5t-188.5 46.5l57 219q137 -15 248.5 -50t205.5 -96.5t157.5 -149t99 -211t35.5 -277.5q0 -144 -22.5 -268.5t-70 -229t-117 -178.5t-168.5 -115.5t-220 -41.5 q-217 0 -333 116t-116 328zM379 430q0 -96 39 -147.5t112 -51.5q77 0 133 58t80.5 140.5t24.5 176.5q0 96 -39 148.5t-113 52.5q-77 0 -132.5 -59t-80 -142t-24.5 -176z" />
<glyph unicode="&#x435;" horiz-adv-x="1015" d="M57 401q0 186 67 333.5t199 235t308 87.5q167 0 257.5 -79t90.5 -218q0 -100 -40 -175t-111 -118.5t-159.5 -64.5t-195.5 -21q-69 0 -121 8q2 -87 40 -129.5t126 -42.5q149 0 283 84l94 -205q-181 -116 -414 -116q-205 0 -314.5 109.5t-109.5 311.5zM369 561q66 -4 94 -4 q90 0 150.5 43.5t60.5 120.5q0 41 -24 65.5t-70 24.5q-81 0 -134.5 -68t-76.5 -182z" />
<glyph unicode="&#x436;" horiz-adv-x="1562" d="M-66 0l381 561l-198 455q74 41 170 41q76 0 118.5 -26.5t63.5 -80.5l156 -407l-355 -543h-336zM553 0l145 1012q113 45 187 45q114 0 114 -113q0 -10 -2 -26l-129 -918h-315zM952 545l334 512l277 -47l-297 -437l227 -553q-76 -40 -170 -40q-90 0 -137 26.5t-68 83.5z " />
<glyph unicode="&#x437;" horiz-adv-x="892" d="M-31 137l127 170q42 -48 101.5 -69t117.5 -21q80 0 128.5 35t48.5 96q0 86 -134 86h-102l27 199h94q54 0 83 28.5t29 75.5q0 39 -27 60.5t-75 21.5q-101 0 -192 -65l-64 204q89 50 186.5 74.5t178.5 24.5q152 0 235.5 -65t83.5 -181q0 -99 -58 -165.5t-165 -96.5 q99 -13 155 -76.5t56 -150.5q0 -163 -129.5 -252.5t-333.5 -89.5q-101 0 -205 42t-166 115z" />
<glyph unicode="&#x438;" horiz-adv-x="1120" d="M70 264q0 44 6 96l94 652q110 45 190 45q56 0 85.5 -29.5t29.5 -83.5q0 -10 -2 -26l-74 -494q-6 -40 -6 -66q0 -60 19 -93.5t69 -33.5q91 0 145.5 95t88.5 331l51 355q113 45 188 45q55 0 85 -29.5t30 -83.5q0 -10 -2 -26l-106 -732q-5 -40 -5 -59q0 -61 21 -94 q-116 -53 -205 -53q-54 0 -88.5 37.5t-34.5 103.5q0 17 2 37l4 45q-69 -117 -150.5 -170t-182.5 -53q-123 0 -187.5 72.5t-64.5 211.5z" />
<glyph unicode="&#x439;" horiz-adv-x="1120" d="M70 264q0 44 6 96l94 652q110 45 190 45q56 0 85.5 -29.5t29.5 -83.5q0 -10 -2 -26l-74 -494q-6 -40 -6 -66q0 -60 19 -93.5t69 -33.5q91 0 145.5 95t88.5 331l51 355q113 45 188 45q55 0 85 -29.5t30 -83.5q0 -10 -2 -26l-106 -732q-5 -40 -5 -59q0 -61 21 -94 q-116 -53 -205 -53q-54 0 -88.5 37.5t-34.5 103.5q0 17 2 37l4 45q-69 -117 -150.5 -170t-182.5 -53q-123 0 -187.5 72.5t-64.5 211.5zM367 1434q0 21 4 53h211q-2 -12 -2 -29q0 -46 24 -72t68 -26q60 0 96 32.5t39 94.5h213q-23 -150 -116 -231.5t-238 -81.5 q-144 0 -221.5 68.5t-77.5 191.5z" />
<glyph unicode="&#x43a;" horiz-adv-x="1128" d="M35 0l145 1012q113 45 187 45q114 0 114 -113q0 -10 -2 -26l-129 -918h-315zM434 545l408 512l288 -47l-362 -437l315 -553q-85 -40 -200 -40q-86 0 -132.5 26.5t-74.5 79.5z" />
<glyph unicode="&#x43b;" horiz-adv-x="1095" d="M-20 203q63 19 101 69.5t58 145.5l123 618h797l-146 -1036h-317l113 801h-209l-84 -422q-32 -159 -117.5 -253.5t-218.5 -143.5z" />
<glyph unicode="&#x43c;" horiz-adv-x="1331" d="M-6 0l244 1018q27 16 69 27.5t76 11.5q189 0 205 -125l78 -557l243 643q28 17 72 28t76 11q86 0 122 -38.5t35 -133.5l-18 -885h-313l35 629l-240 -629h-232l-63 635l-145 -635h-244z" />
<glyph unicode="&#x43d;" horiz-adv-x="1122" d="M35 0l145 1012q113 45 187 45q114 0 114 -113q0 -10 -2 -26l-39 -269h281l51 363q110 45 186 45q55 0 84 -29.5t29 -83.5q0 -10 -2 -26l-129 -918h-309l57 410h-280l-60 -410h-313z" />
<glyph unicode="&#x43e;" horiz-adv-x="1144" d="M59 420q0 188 67 331t199.5 224.5t313.5 81.5q215 0 329.5 -116.5t114.5 -328.5q0 -188 -67 -330t-197.5 -222t-308.5 -80q-219 0 -335 115.5t-116 324.5zM377 432q0 -96 41.5 -148.5t116.5 -52.5q56 0 101.5 33t73 88t42 120t14.5 134q0 96 -40.5 148.5t-119.5 52.5 q-56 0 -101 -34t-72 -89.5t-41.5 -120t-14.5 -131.5z" />
<glyph unicode="&#x43f;" horiz-adv-x="1148" d="M37 0l141 1018q95 39 166 39q62 0 93.5 -42.5t31.5 -113.5q0 -12 -2 -37l-4 -51q71 131 155.5 187.5t192.5 56.5q126 0 194 -76.5t68 -214.5q0 -34 -8 -92l-70 -488q-6 -48 -6 -59q0 -58 23 -94q-116 -53 -203 -53q-135 0 -135 139q0 17 2 33l69 460q7 47 7 70 q0 125 -95 125q-97 0 -158.5 -120.5t-101.5 -391.5l-43 -295h-317z" />
<glyph unicode="&#x440;" horiz-adv-x="1138" d="M-33 -471l209 1483q113 45 193 45q47 0 72.5 -34.5t25.5 -96.5q0 -21 -2 -41l-6 -47q68 116 147.5 167.5t181.5 51.5q55 0 107 -22.5t95.5 -65t70 -113.5t26.5 -160q0 -152 -42.5 -282t-121 -227t-198.5 -152t-268 -55q-66 0 -109 2l-63 -453h-318zM381 217q35 -2 98 -2 q89 0 153.5 58t94 146t29.5 193q0 195 -117 195q-80 0 -143 -100t-93 -324z" />
<glyph unicode="&#x441;" horiz-adv-x="960" d="M59 420q0 177 66.5 322t189 230t277.5 85q51 0 101.5 -14t101.5 -45t87 -93t46 -147l-238 -76q-8 63 -32 94t-70 31q-52 0 -93.5 -35t-66 -91.5t-37 -120.5t-12.5 -128q0 -97 45.5 -149t128.5 -52q63 0 131 27t115 68l73 -234q-80 -57 -180 -84.5t-198 -27.5 q-210 0 -322.5 115.5t-112.5 324.5z" />
<glyph unicode="&#x442;" horiz-adv-x="1615" d="M37 0l141 1018q95 39 166 39q62 0 93.5 -42.5t31.5 -113.5q0 -12 -2 -37l-4 -35q65 123 140 175.5t171 52.5q87 0 142.5 -51t74.5 -144q67 106 142.5 150.5t177.5 44.5q109 0 169 -79t60 -220q0 -50 -8 -99l-72 -473q-6 -48 -6 -59q0 -58 23 -94q-116 -53 -205 -53 q-133 0 -133 139q0 17 2 33l65 469q6 49 6 86q0 100 -61 100q-76 0 -124.5 -118.5t-88.5 -393.5l-43 -295h-313l86 621q6 49 6 81q0 105 -60 105q-78 0 -127.5 -118t-89.5 -394l-43 -295h-317z" />
<glyph unicode="&#x443;" horiz-adv-x="1067" d="M55 -279q169 101 299 287q-87 26 -106 131l-156 877q84 41 182 41q69 0 115.5 -38t54.5 -120l48 -418l8 -270q173 342 284 846l297 -47q-30 -171 -113 -387.5t-200.5 -432t-276.5 -403.5t-321 -281z" />
<glyph unicode="&#x444;" horiz-adv-x="1599" d="M51 328q0 120 24.5 229t74 200t119.5 158t166.5 104.5t209.5 37.5q39 0 72 -8l71 503q113 45 191 45q53 0 83 -29t30 -83q0 -11 -2 -27l-84 -592q125 191 294 191q116 0 182 -91.5t66 -258.5q0 -148 -40 -279t-114.5 -231t-189 -158.5t-254.5 -58.5q-38 0 -67 2l-64 -453 h-315l90 639q-128 -188 -295 -188q-119 0 -183.5 90.5t-64.5 257.5zM371 414q0 -91 23 -137t77 -46q68 0 112.5 91.5t75.5 314.5l25 174q-45 10 -70 10q-60 0 -108 -37.5t-76.5 -97.5t-43.5 -130.5t-15 -141.5zM915 217q27 -2 70 -2q59 0 106.5 37.5t75 99t42 131.5 t14.5 142q0 182 -97 182q-68 0 -112 -92.5t-74 -315.5z" />
<glyph unicode="&#x445;" horiz-adv-x="1030" d="M-78 0l426 539l-233 477q105 41 192 41q75 0 116 -25.5t69 -85.5l81 -172l199 283l285 -47l-367 -486l266 -504q-87 -40 -170 -40q-90 0 -139.5 25.5t-79.5 84.5l-106 213l-217 -303h-322z" />
<glyph unicode="&#x446;" horiz-adv-x="1202" d="M35 0l145 1012q113 45 187 45q114 0 114 -113q0 -10 -2 -26l-96 -680h268l111 774q113 45 186 45q56 0 85.5 -29.5t29.5 -83.5q0 -10 -2 -26l-96 -685h151l-65 -434q-106 -45 -191 -45q-54 0 -82 34.5t-28 94.5q0 27 2 43l10 74h-727z" />
<glyph unicode="&#x447;" horiz-adv-x="1062" d="M76 514q0 46 6 92l63 406q106 45 189 45q112 0 112 -113q0 -10 -2 -26l-36 -259q-5 -34 -5 -51q0 -76 82 -76q78 0 127.5 84t77.5 289l19 131h317l-149 -1036h-318l74 504q-145 -223 -338 -223q-105 0 -162 60t-57 173z" />
<glyph unicode="&#x448;" horiz-adv-x="1572" d="M35 0l145 1012q113 45 187 45q114 0 114 -113q0 -10 -2 -26l-96 -680h207l110 774q113 45 187 45q114 0 114 -113q0 -10 -2 -26l-96 -680h207l111 774q113 45 186 45q57 0 86 -29.5t29 -83.5q0 -10 -2 -26l-129 -918h-1356z" />
<glyph unicode="&#x449;" horiz-adv-x="1660" d="M35 0l145 1012q113 45 187 45q114 0 114 -113q0 -10 -2 -26l-96 -680h207l110 774q113 45 187 45q114 0 114 -113q0 -10 -2 -26l-96 -680h207l111 774q113 45 186 45q57 0 86 -29.5t29 -83.5q0 -10 -2 -26l-97 -685h154l-66 -434q-106 -45 -190 -45q-54 0 -82.5 34.5 t-28.5 94.5q0 27 2 43l11 74h-1188z" />
<glyph unicode="&#x44a;" horiz-adv-x="1089" d="M70 801l30 235h502l-51 -319q39 2 111 2q176 0 271 -77t95 -218q0 -201 -140.5 -322.5t-363.5 -121.5q-172 0 -259 75t-87 217q0 37 4 70l66 459h-178zM489 295q0 -98 89 -98q76 0 115.5 52.5t39.5 131.5q0 58 -34 89.5t-99 31.5q-55 0 -82 -2l-24 -150q-5 -31 -5 -55z " />
<glyph unicode="&#x44b;" horiz-adv-x="1464" d="M70 272q0 37 4 70l96 670q113 45 192 45q55 0 85 -29.5t30 -83.5q0 -12 -2 -26l-33 -201q39 2 111 2q177 0 272 -77t95 -218q0 -201 -140.5 -322.5t-363.5 -121.5q-172 0 -259 75t-87 217zM381 295q0 -98 88 -98q76 0 116 52.5t40 131.5q0 58 -34 89.5t-99 31.5 q-55 0 -82 -2l-25 -150q-4 -25 -4 -55zM969 0l145 1012q113 45 186 45q56 0 85.5 -29.5t29.5 -83.5q0 -10 -2 -26l-129 -918h-315z" />
<glyph unicode="&#x44c;" horiz-adv-x="976" d="M70 272q0 37 4 70l96 670q113 45 192 45q55 0 85 -29.5t30 -83.5q0 -12 -2 -26l-33 -201q39 2 111 2q177 0 272 -77t95 -218q0 -201 -140.5 -322.5t-363.5 -121.5q-172 0 -259 75t-87 217zM381 295q0 -98 88 -98q76 0 116 52.5t40 131.5q0 58 -34 89.5t-99 31.5 q-55 0 -82 -2l-25 -150q-4 -25 -4 -55z" />
<glyph unicode="&#x44d;" horiz-adv-x="966" d="M-23 104l117 209q35 -39 97 -60.5t126 -21.5q88 0 149.5 53.5t94.5 143.5h-221l29 193h219q-6 90 -51.5 138t-126.5 48q-102 0 -220 -96l-77 219q176 127 350 127q199 0 321.5 -121.5t122.5 -333.5q0 -175 -67 -315.5t-196.5 -223.5t-301.5 -83q-106 0 -202 31.5 t-163 92.5z" />
<glyph unicode="&#x44e;" horiz-adv-x="1495" d="M35 0l145 1012q113 45 187 45q114 0 114 -113q0 -10 -2 -26l-39 -275h111q48 189 171 301.5t308 112.5q194 0 300 -114t106 -320q0 -181 -60.5 -325t-183 -231t-289.5 -87q-180 0 -278 108t-103 305h-116l-56 -393h-315zM819 412q0 -181 117 -181q43 0 78 35.5t56 93 t32.5 126.5t11.5 141q0 86 -29 133t-84 47q-58 0 -101 -61.5t-62 -149t-19 -184.5z" />
<glyph unicode="&#x44f;" horiz-adv-x="1054" d="M-53 0l293 436q-109 83 -109 234q0 179 145 283t373 104q148 0 371 -21l-146 -1036h-317l51 360q-27 -2 -80 -2h-24l-234 -358h-323zM414 682q0 -53 38 -83t107 -30h78l37 271h-82q-82 0 -130 -42.5t-48 -115.5z" />
<glyph unicode="&#x450;" horiz-adv-x="1015" d="M57 401q0 186 67 333.5t199 235t308 87.5q167 0 257.5 -79t90.5 -218q0 -100 -40 -175t-111 -118.5t-159.5 -64.5t-195.5 -21q-69 0 -121 8q2 -87 40 -129.5t126 -42.5q149 0 283 84l94 -205q-181 -116 -414 -116q-205 0 -314.5 109.5t-109.5 311.5zM354 1372l119 254 l395 -301l-63 -151zM369 561q66 -4 94 -4q90 0 150.5 43.5t60.5 120.5q0 41 -24 65.5t-70 24.5q-81 0 -134.5 -68t-76.5 -182z" />
<glyph unicode="&#x451;" horiz-adv-x="1015" d="M57 401q0 186 67 333.5t199 235t308 87.5q167 0 257.5 -79t90.5 -218q0 -100 -40 -175t-111 -118.5t-159.5 -64.5t-195.5 -21q-69 0 -121 8q2 -87 40 -129.5t126 -42.5q149 0 283 84l94 -205q-181 -116 -414 -116q-205 0 -314.5 109.5t-109.5 311.5zM285 1339 q0 87 49.5 140t138.5 53q75 0 117.5 -38t42.5 -105q0 -88 -49 -140.5t-138 -52.5q-76 0 -118.5 37.5t-42.5 105.5zM369 561q66 -4 94 -4q90 0 150.5 43.5t60.5 120.5q0 41 -24 65.5t-70 24.5q-81 0 -134.5 -68t-76.5 -182zM709 1339q0 87 49.5 140t138.5 53q75 0 117.5 -38 t42.5 -105q0 -88 -49 -140.5t-138 -52.5q-76 0 -118.5 37.5t-42.5 105.5z" />
<glyph unicode="&#x452;" horiz-adv-x="1136" d="M35 0l172 1194h-96l32 240h99l16 118q110 45 186 45q55 0 84 -29t29 -83q0 -11 -2 -27l-4 -24h307l-33 -240h-307l-51 -360q69 120 151.5 171.5t186.5 51.5q126 0 194 -76.5t68 -214.5q0 -34 -8 -92l-109 -766q-41 -287 -329 -397l-97 223q92 37 117 213l98 665 q6 41 6 70q0 125 -94 125q-97 0 -159.5 -121t-100.5 -391l-41 -295h-315z" />
<glyph unicode="&#x453;" horiz-adv-x="919" d="M18 250q0 68 27.5 124.5t81 99.5t108.5 73t134 63q42 17 62.5 26.5t49.5 25t42.5 28.5t23.5 31.5t10 40.5q0 30 -25.5 46.5t-70.5 16.5q-115 0 -236 -77l-102 194q188 115 387 115q173 0 270 -70t97 -192q0 -45 -11 -85t-27 -69.5t-45.5 -57.5t-55.5 -47t-68 -40.5 t-71 -34t-77 -31.5q-40 -16 -56.5 -23t-47.5 -23t-44.5 -28.5t-25.5 -32t-12 -40.5q0 -68 102 -68q70 0 159.5 21.5t160.5 62.5l61 -199q-87 -61 -198.5 -90.5t-219.5 -29.5q-185 0 -284 71t-99 199zM393 1325l395 301l119 -254l-450 -198z" />
<glyph unicode="&#x454;" horiz-adv-x="962" d="M57 422q0 182 71.5 326.5t201.5 226.5t295 82q177 0 329 -139l-120 -197q-83 86 -181 86q-87 0 -148.5 -51t-94.5 -135h215l-27 -193h-221q4 -95 54.5 -146t135.5 -51q64 0 129 25.5t103 65.5l73 -230q-80 -57 -180.5 -84.5t-197.5 -27.5q-207 0 -322 116.5t-115 325.5z " />
<glyph unicode="&#x455;" horiz-adv-x="925" d="M-8 111l102 188q62 -50 143 -72t146 -22q63 0 104 23.5t41 70.5q0 37 -37.5 61.5t-105.5 47.5q-57 19 -99.5 39.5t-87 53.5t-68.5 81.5t-24 109.5q0 171 120 268t311 97q220 0 370 -125l-131 -168q-119 72 -233 72q-55 0 -91 -26t-36 -69q0 -34 30.5 -56.5t92.5 -45.5 q54 -19 89 -34t80 -41.5t71 -55.5t44.5 -72t18.5 -94q0 -117 -62.5 -200.5t-163 -122.5t-227.5 -39q-249 0 -397 131z" />
<glyph unicode="&#x456;" horiz-adv-x="536" d="M55 119q0 17 2 33l121 884h318l-119 -850q-4 -32 -4 -59q0 -63 20 -94q-116 -53 -205 -53q-133 0 -133 139zM209 1339q0 87 49.5 140t138.5 53q75 0 117.5 -38t42.5 -105q0 -88 -48.5 -140.5t-137.5 -52.5q-76 0 -119 37.5t-43 105.5z" />
<glyph unicode="&#x457;" horiz-adv-x="536" d="M-6 1339q0 87 49.5 140t138.5 53q75 0 117.5 -38t42.5 -105q0 -88 -48.5 -140.5t-137.5 -52.5q-76 0 -119 37.5t-43 105.5zM57 119q0 17 2 33l119 884h318l-117 -850q-4 -32 -4 -59q0 -63 20 -94q-116 -53 -207 -53q-65 0 -98 36t-33 103zM418 1339q0 87 49.5 140 t138.5 53q75 0 117.5 -38t42.5 -105q0 -88 -48.5 -140.5t-137.5 -52.5q-76 0 -119 37.5t-43 105.5z" />
<glyph unicode="&#x458;" horiz-adv-x="538" d="M-88 -266l96 -223q290 111 332 397l162 1128h-320l-153 -1089q-25 -177 -117 -213zM213 1339q0 87 49.5 140t138.5 53q75 0 117.5 -38t42.5 -105q0 -88 -48.5 -140.5t-137.5 -52.5q-76 0 -119 37.5t-43 105.5z" />
<glyph unicode="&#x459;" horiz-adv-x="1544" d="M-16 190q61 27 99 80t58 148l121 618h801l-51 -319q39 2 110 2q177 0 272 -77t95 -218q0 -201 -140.5 -322.5t-363.5 -121.5q-172 0 -259 75t-87 217q0 37 4 70l66 459h-209l-84 -422q-32 -160 -117 -255t-217 -144zM950 295q0 -98 88 -98q76 0 116 52.5t40 131.5 q0 58 -34 89.5t-99 31.5q-55 0 -82 -2l-25 -150q-4 -25 -4 -55z" />
<glyph unicode="&#x45a;" horiz-adv-x="1579" d="M35 0l145 1012q113 45 187 45q114 0 114 -113q0 -10 -2 -26l-37 -269h281l51 363q113 45 193 45q55 0 84.5 -29.5t29.5 -83.5q0 -12 -2 -26l-32 -201q39 2 110 2q177 0 272 -77t95 -218q0 -201 -140.5 -322.5t-363.5 -121.5q-172 0 -259 75t-87 217q0 37 4 70l10 68h-280 l-58 -410h-315zM985 295q0 -98 88 -98q76 0 116 52.5t40 131.5q0 58 -34 89.5t-99 31.5q-55 0 -82 -2l-25 -150q-4 -25 -4 -55z" />
<glyph unicode="&#x45b;" horiz-adv-x="1142" d="M35 0l172 1194h-96l32 240h99l16 118q110 45 186 45q55 0 84 -29t29 -83q0 -11 -2 -27l-4 -24h307l-33 -240h-307l-51 -365q70 122 153 175t187 53q126 0 194 -76.5t68 -214.5q0 -34 -8 -92l-70 -488q-6 -48 -6 -59q0 -58 23 -94q-116 -53 -203 -53q-135 0 -135 139 q0 17 2 33l69 460q7 47 7 70q0 125 -95 125q-98 0 -161 -121.5t-101 -390.5l-41 -295h-315z" />
<glyph unicode="&#x45c;" horiz-adv-x="1128" d="M35 0l145 1012q113 45 187 45q114 0 114 -113q0 -10 -2 -26l-129 -918h-315zM434 545l408 512l288 -47l-362 -437l315 -553q-85 -40 -200 -40q-86 0 -132.5 26.5t-74.5 79.5zM516 1325l395 301l119 -254l-450 -198z" />
<glyph unicode="&#x45d;" horiz-adv-x="1120" d="M70 264q0 44 6 96l94 652q110 45 190 45q56 0 85.5 -29.5t29.5 -83.5q0 -10 -2 -26l-74 -494q-6 -40 -6 -66q0 -60 19 -93.5t69 -33.5q91 0 145.5 95t88.5 331l51 355q113 45 188 45q55 0 85 -29.5t30 -83.5q0 -10 -2 -26l-106 -732q-5 -40 -5 -59q0 -61 21 -94 q-116 -53 -205 -53q-54 0 -88.5 37.5t-34.5 103.5q0 17 2 37l4 45q-69 -117 -150.5 -170t-182.5 -53q-123 0 -187.5 72.5t-64.5 211.5zM352 1372l119 254l395 -301l-63 -151z" />
<glyph unicode="&#x45e;" horiz-adv-x="1067" d="M55 -279q169 101 299 287q-87 26 -106 131l-156 877q84 41 182 41q69 0 115.5 -38t54.5 -120l48 -418l8 -270q173 342 284 846l297 -47q-30 -171 -113 -387.5t-200.5 -432t-276.5 -403.5t-321 -281zM338 1434q0 21 4 53h211q-2 -12 -2 -29q0 -46 24 -72t68 -26 q60 0 96 32.5t39 94.5h213q-23 -150 -116 -231.5t-238 -81.5q-144 0 -221.5 68.5t-77.5 191.5z" />
<glyph unicode="&#x45f;" horiz-adv-x="1114" d="M35 0l145 1012q113 45 187 45q114 0 114 -113q0 -10 -2 -26l-96 -680h268l111 774q113 45 186 45q56 0 85.5 -29.5t29.5 -83.5q0 -10 -2 -26l-129 -918h-291l-29 -201q-106 -45 -190 -45q-54 0 -82.5 34.5t-28.5 94.5q0 27 2 43l11 74h-289z" />
<glyph unicode="&#x490;" horiz-adv-x="983" d="M66 0l206 1475h486l33 196q93 49 167 49q67 0 103.5 -35t36.5 -100q0 -17 -2 -33l-49 -331h-478l-172 -1221h-331z" />
<glyph unicode="&#x491;" horiz-adv-x="833" d="M37 0l145 1036h381l31 201q110 45 186 45q55 0 84 -29.5t29 -83.5q0 -10 -2 -26l-49 -344h-375l-113 -799h-317z" />
<glyph unicode="&#x2000;" horiz-adv-x="1032" />
<glyph unicode="&#x2001;" horiz-adv-x="2064" />
<glyph unicode="&#x2002;" horiz-adv-x="1032" />
<glyph unicode="&#x2003;" horiz-adv-x="2064" />
<glyph unicode="&#x2004;" horiz-adv-x="688" />
<glyph unicode="&#x2005;" horiz-adv-x="516" />
<glyph unicode="&#x2006;" horiz-adv-x="344" />
<glyph unicode="&#x2007;" horiz-adv-x="344" />
<glyph unicode="&#x2008;" horiz-adv-x="258" />
<glyph unicode="&#x2009;" horiz-adv-x="412" />
<glyph unicode="&#x200a;" horiz-adv-x="114" />
<glyph unicode="&#x2010;" horiz-adv-x="823" d="M86 393l39 264h612l-39 -264h-612z" />
<glyph unicode="&#x2011;" horiz-adv-x="823" d="M86 393l39 264h612l-39 -264h-612z" />
<glyph unicode="&#x2012;" horiz-adv-x="823" d="M86 393l39 264h612l-39 -264h-612z" />
<glyph unicode="&#x2013;" horiz-adv-x="1163" d="M86 393l39 264h952l-41 -264h-950z" />
<glyph unicode="&#x2014;" horiz-adv-x="1691" d="M88 393l39 264h1481l-43 -264h-1477z" />
<glyph unicode="&#x2018;" horiz-adv-x="520" d="M147 1069q0 162 98 273t263 155l41 -84q-208 -58 -260 -213q64 23 102 23q63 0 96 -39t33 -111q0 -101 -55.5 -160t-149.5 -59q-81 0 -124.5 57t-43.5 158z" />
<glyph unicode="&#x2019;" horiz-adv-x="518" d="M156 936q208 58 260 213q-64 -23 -103 -23q-63 0 -96 39t-33 111q0 101 55.5 160t149.5 59q81 0 124.5 -57t43.5 -158q0 -162 -97.5 -273t-262.5 -155z" />
<glyph unicode="&#x201a;" horiz-adv-x="534" d="M2 -211q208 58 260 213q-61 -22 -102 -22q-63 0 -96 38.5t-33 110.5q0 101 55.5 160t149.5 59q81 0 124 -57t43 -158q0 -162 -97.5 -273t-262.5 -155z" />
<glyph unicode="&#x201c;" horiz-adv-x="974" d="M147 1069q0 162 98 273t263 155l41 -84q-208 -58 -260 -213q64 23 102 23q63 0 96 -39t33 -111q0 -101 -55.5 -160t-149.5 -59q-81 0 -124.5 57t-43.5 158zM602 1069q0 162 98 273t263 155l41 -84q-209 -59 -261 -213q64 23 103 23q63 0 96 -39t33 -111 q0 -101 -55.5 -160t-149.5 -59q-81 0 -124.5 57t-43.5 158z" />
<glyph unicode="&#x201d;" horiz-adv-x="972" d="M156 936q208 58 260 213q-64 -23 -103 -23q-63 0 -96 39t-33 111q0 101 55.5 160t149.5 59q81 0 124.5 -57t43.5 -158q0 -162 -97.5 -273t-262.5 -155zM610 936q208 58 260 213q-64 -23 -102 -23q-63 0 -96 39t-33 111q0 101 55.5 160t149.5 59q81 0 124.5 -57t43.5 -158 q0 -162 -98 -273t-263 -155z" />
<glyph unicode="&#x201e;" horiz-adv-x="989" d="M2 -211q208 58 260 213q-61 -22 -102 -22q-63 0 -96 38.5t-33 110.5q0 101 55.5 160t149.5 59q81 0 124 -57t43 -158q0 -162 -97.5 -273t-262.5 -155zM457 -211q208 58 260 213q-61 -22 -103 -22q-63 0 -96 38.5t-33 110.5q0 101 55.5 160t149.5 59q81 0 124.5 -57 t43.5 -158q0 -162 -97.5 -273t-262.5 -155z" />
<glyph unicode="&#x2022;" horiz-adv-x="763" d="M131 567q0 130 75 209.5t206 79.5q117 0 178 -56t61 -157q0 -130 -74.5 -209.5t-205.5 -79.5q-117 0 -178.5 56t-61.5 157z" />
<glyph unicode="&#x2026;" horiz-adv-x="1488" d="M31 141q0 95 53.5 151t148.5 56q82 0 128.5 -44t46.5 -118q0 -96 -54 -151t-149 -55q-84 0 -129 42.5t-45 118.5zM510 141q0 95 53.5 151t149.5 56q82 0 128 -44t46 -118q0 -96 -54 -151t-149 -55q-84 0 -129 42.5t-45 118.5zM989 141q0 95 53.5 151t149.5 56 q82 0 128 -44t46 -118q0 -96 -54 -151t-149 -55q-84 0 -129 42.5t-45 118.5z" />
<glyph unicode="&#x202f;" horiz-adv-x="412" />
<glyph unicode="&#x2039;" horiz-adv-x="651" d="M55 512l371 506l209 -133l-240 -373l137 -373l-247 -133z" />
<glyph unicode="&#x203a;" horiz-adv-x="649" d="M14 139l242 373l-137 373l248 133l227 -506l-369 -506z" />
<glyph unicode="&#x205f;" horiz-adv-x="516" />
<glyph unicode="&#x20ac;" horiz-adv-x="1146" d="M59 516l37 234h117q57 241 210.5 386.5t387.5 145.5q83 0 175 -25t163 -69l-121 -217q-99 61 -215 61q-96 0 -165 -76.5t-105 -199.5h356l-131 -240h-262v-18q0 -128 52 -197.5t149 -69.5q62 0 124.5 19t106.5 51l76 -227q-77 -48 -175 -71t-186 -23q-226 0 -346.5 134 t-120.5 380v22h-127z" />
<glyph unicode="&#x2122;" horiz-adv-x="1511" d="M170 1323l20 152h508l-20 -152h-158l-84 -586h-196l84 586h-154zM614 737l174 727q10 8 33.5 14.5t38.5 6.5q92 0 113 -86l104 -428l228 489q34 25 73 25q50 0 69.5 -26.5t18.5 -92.5l-16 -629h-193l15 379l-174 -379h-146l-88 383l-86 -383h-164z" />
<glyph unicode="&#x25fc;" horiz-adv-x="1054" d="M0 0v1055h1055v-1055h-1055z" />
</font>
</defs>
</svg>
